<?xml version="1.0" encoding="utf-8"?>
<!-- Generator: Adobe Illustrator 21.0.0, SVG Export Plug-In . SVG Version: 6.00 Build 0)  -->
<svg version="1.1" id="Layer_1" xmlns="http://www.w3.org/2000/svg" xmlns:xlink="http://www.w3.org/1999/xlink" x="0px" y="0px"
	 viewBox="0 0 1000 1000" style="enable-background:new 0 0 1000 1000;" xml:space="preserve">
<style type="text/css">
	.st0{fill:url(#SVGID_1_);}
	.st1{fill:url(#SVGID_2_);}
	.st2{fill:#FFFFFF;}
	.st3{fill:#FFFF52;}
	.st4{fill:#9A96BB;}
	.st5{fill:#DD8322;}
	.st6{fill:#051221;}
	.st7{fill:url(#SVGID_3_);}
	.st8{fill:url(#SVGID_4_);}
	.st9{fill:url(#SVGID_5_);}
	.st10{fill:url(#SVGID_6_);}
	.st11{fill:url(#SVGID_7_);}
	.st12{fill:url(#SVGID_8_);}
	.st13{fill:url(#SVGID_9_);}
	.st14{fill:url(#SVGID_10_);}
</style>
<g>
	<linearGradient id="SVGID_1_" gradientUnits="userSpaceOnUse" x1="500" y1="170.736" x2="500" y2="831.5206">
		<stop  offset="0" style="stop-color:#00FAF9"/>
		<stop  offset="1" style="stop-color:#114FBC"/>
	</linearGradient>
	<path class="st0" d="M942.7,560l57.3-99.3l-250-433H250L0,460.7L57.3,560l-14.5-0.1l-0.1,154.9l32.5,7.6c7,1.6,14.1,3.2,21.1,4.7
		v132.5l34.2,6.4c37.3,7.1,76.8,13.3,117.4,18.5L500,972.3l252.1-87.9c40.6-5.2,80.1-11.4,117.3-18.4l34.2-6.4V727.1
		c7-1.5,14.1-3.1,21.1-4.7l32.5-7.6l-0.1-154.9L942.7,560z"/>
	<g>
		<g>
			<linearGradient id="SVGID_2_" gradientUnits="userSpaceOnUse" x1="500.8728" y1="578.0436" x2="500.8728" y2="124.1386">
				<stop  offset="0" style="stop-color:#00FAF9"/>
				<stop  offset="1" style="stop-color:#114FBC"/>
			</linearGradient>
			<polyline class="st1" points="291.1,97.3 88.3,459.2 159.1,588.5 837.4,588.5 913.4,460 705.4,100.8 306.5,100.8 			"/>
			<polyline class="st2" points="130.3,544 790.1,238.5 890.1,419.8 138.8,551.4 			"/>
			<polygon class="st3" points="75.2,587.7 75.2,687.3 131.1,700.8 131.1,838.9 305.1,858.6 575.2,872.6 863.6,829.8 877.6,700.8 
				922.2,686.4 922.2,592 			"/>
			<polyline class="st4" points="198.5,514.5 198.5,597.7 812.7,597.7 812.7,510.5 751.7,491.5 696.7,509.2 720.9,389.9 681.6,384 
				202.4,511.2 			"/>
			<polyline class="st4" points="759.5,463 759.5,490.9 681.6,522.3 713,384 748.4,401 			"/>
			<path class="st2" d="M661.5,355.6l7.6,76.9c0,0-87.8-11.8-87.2-17c0.7-5.2,11.1-264.8,11.1-264.8h44.6l9.2,118.7"/>
			<polyline class="st4" points="287.6,406.7 284.5,490.9 487.3,424.2 479.5,377.9 450.6,363.5 399.9,397.6 368.9,388.4 
				333.9,418.1 294.2,405 			"/>
			<polyline class="st2" points="290.7,413.3 290.7,482.8 337,467 337,427.2 316.9,408.9 306.4,405 			"/>
			<path class="st2" d="M435.8,371.8v66.4c0,0,56.4-2.6,56.4-5.7s-9.6-48.5-9.6-48.5l-15.3-16.2h-23.1"/>
			<polyline class="st2" points="517.1,419.8 523.6,591.2 595.6,591.2 595.6,420.4 550.7,419.8 			"/>
			<polygon class="st2" points="101.9,483.9 112.2,502.8 583.5,100.8 417.1,100.8 			"/>
			<polygon class="st3" points="35,460 109.3,591.2 160.5,597.7 84,460 300.7,97.3 709.5,97.3 918.7,457.4 842.6,591.2 893.3,587.7 
				965,460 729.4,55.5 271.4,55.5 			"/>
			<polyline class="st5" points="927.3,460.7 960.6,460.7 894.2,594.7 838.3,594.7 			"/>
			<polyline class="st5" points="48.4,460.7 91.9,460.7 167,594.7 110.7,594.7 			"/>
			<polyline class="st2" points="274.2,69.7 286.3,90.7 695.1,106.1 713.7,90.7 725.8,69.7 729.4,55.5 			"/>
			<polyline class="st3" points="309.5,860.8 502.2,896.6 695.1,864.3 498.8,936.4 306.5,872.6 			"/>
			<g>
				<path class="st6" d="M915.1,581.2c-3,0-5.9,0-8.9,0.1l69.6-120.5l-237.9-412H262.1l-237.9,412l69.6,120.5c-3,0-5.9,0-8.9-0.1
					L63.8,581l-0.1,117.1l16.3,3.8c12.4,2.9,24.9,5.6,37.3,8.2v132.1l17.1,3.2c39.2,7.4,78.7,13.5,118.3,18.5L500,950.1l247.3-86.2
					c39.6-5,79.1-11.1,118.3-18.5l17.1-3.2V710.1c12.5-2.6,24.9-5.3,37.3-8.2l16.3-3.8L936.2,581L915.1,581.2z M48.4,460.7
					L274.2,69.7h451.6l225.8,391.1l-69.7,120.7c-8.1,0.1-16.2,0.1-24.3,0.2l69.8-120.8L713.7,90.7H286.3L72.7,460.7l69.8,120.8
					c-8.1,0-16.2-0.1-24.3-0.2L48.4,460.7z M742.4,479.4l-109.8,30.4v72.7c-7,0-14,0-21,0.1v-88.7l66.6-18.5l15.7-4.4v-81.4
					l49.8,16.9v51.1l15.7,5.3v-67.7l-73.2-24.9l-23.4,6.5l-20.7,5.7l-41.2,11.4V154.6l26.9,9.1c4.1,62.1,9.3,140.5,12.9,197.6
					l20.7-5.7c-3.1-49.2-7.2-110.8-10.4-159l0.5,0.8c3.5,5.5,7.2,10.9,11,16.2c4,5.1,7.8,10.4,12.1,15.3c4.3,4.9,8.4,10,12.8,14.6
					l13.5,14c9.4,8.8,18.8,17.9,28.8,26c9.7,8.6,20.1,16.2,30.4,24c10.3,7.7,21.1,14.8,31.7,22.2l32.8,20.4l21.5,12.1l56.9,98.6
					l-69.8,121c-5.9,0-11.8,0.1-17.7,0.1v-77.5L742.4,479.4z M578.6,830.5c0-19.1,0-38.3,0-57.4c0-8.5,2.6-15.4,7.7-20.6
					c2.4-2.3,5.1-4,8.3-5.2c2.9-1.1,6.1-1.8,9.6-1.9c3.5-0.2,6.7,0.1,9.5,0.8c3.3,0.9,6,2.4,8.4,4.5c5.2,4.6,7.8,11.2,7.8,19.7
					c0,19.1,0,38.2,0,57.4c0,8.5-2.6,15.5-7.8,20.8c-4.5,4.5-10.5,7-17.9,7.3c-7.4,0.4-13.4-1.4-18-5.5
					C581.2,845.7,578.6,839,578.6,830.5z M466.3,766c0-5.6,0-11.1,0-16.7c0-0.1,0-0.2,0-0.3c17.3,0.3,34.6,0.4,51.8,0.2
					c0,0.1,0,0.2,0,0.3c0,5.6,0,11.1,0,16.7c-5.8,0.1-11.6,0.1-17.4,0.1c0,30.4,0,60.7,0,91.1c-5.7,0-11.4,0-17.1-0.1
					c0-30.4,0-60.7,0-91.1C477.9,766.2,472.2,766.2,466.3,766z M406.4,782c-5.7-0.3-11.4-0.6-17-0.9c0-3.2,0-6.4,0-9.6
					c0-3.8-0.7-6.4-2.2-7.8c-1.4-1.3-3.5-2-6.5-2.3c-2.9-0.2-5,0.3-6.3,1.5c-1.6,1.3-2.4,3.8-2.4,7.6c0,19.1,0,38.3,0,57.4
					c0,3.7,0.8,6.3,2.4,7.9c1.3,1.3,3.5,2.1,6.3,2.3c3,0.2,5.1-0.3,6.5-1.5c1.4-1.3,2.2-3.8,2.2-7.6c0-4.6,0-9.2,0-13.9
					c5.7,0.4,11.4,0.6,17,0.9c0,4.7,0,9.3,0,13.9c0,8.5-2.6,15.2-7.8,19.8c-4.6,4-10.5,5.8-17.9,5.3c-7.2-0.5-13.2-3-18-7.6
					c-5.1-5.5-7.7-12.4-7.7-20.8c0-19.1,0-38.3,0-57.4c0-8.3,2.6-14.8,7.7-19.7c2.6-2.1,5.5-3.5,8.7-4.4c2.8-0.7,5.9-1,9.3-0.8
					c3.5,0.2,6.7,0.9,9.6,2c3.2,1.3,6,3,8.3,5.3c5.2,5.2,7.8,12.1,7.8,20.6C406.4,775.6,406.4,778.8,406.4,782z M549.2,728.1
					C515.6,729,482,729,448.3,728c0-0.1,0-0.3,0-0.4c0.1-35,0.2-70,0.3-105c-4.8-6.3-9.6-12.7-14.4-19c38.2,0.1,76.4,0.1,114.6,0.1
					c0.1,41.4,0.2,82.7,0.3,124.1C549.2,727.9,549.2,728,549.2,728.1z M505.7,437l-21,27.6l-258.3,71.5v8.2l-21,21v-45.1L505.7,437z
					 M298.2,472.7v-54.2h9.8c9.2,0,16.7,7.5,16.7,16.7v30.2L298.2,472.7z M372.2,452.2v-54.6h9.9c9.2,0,16.7,7.5,16.7,16.7v30.6
					L372.2,452.2z M446.3,431.7v-54.2h9.8c9.2,0,16.7,7.5,16.7,16.7v30.2L446.3,431.7z M526.6,582.7v-152l28.8,9.8l21,7.2v134.9
					C559.8,582.7,543.2,582.7,526.6,582.7z M536.3,150.8L519,411.5l-25.1,7v-24.3c0-20-15.8-36.4-35.6-37.5c0-0.1,0-0.1,0-0.1v-21.4
					h-23.9v21.4l0.1,0.2c-15.5,0.8-28.5,11-33.5,25c-5-2.9-10.7-4.7-16.8-5v-0.2v-21.4h-23.9v21.4v0.2
					c-15.7,0.9-28.9,11.4-33.7,25.8c-4.9-2.8-10.5-4.5-16.5-4.9v-21.1h-23.9v21.1c-19.8,1.2-35.6,17.5-35.6,37.6v50.7l-66.2,18.4
					v77.6c-5.9,0-11.8-0.1-17.7-0.1l-69.8-121L199,283.8c24-7.2,46.7-16.4,68.9-26.9c24.2-11.6,47.4-25,69.4-40.2
					c2.1-1.5,4.2-2.9,6.2-4.3c16.4-5.6,32.7-11.4,48.8-17.7c29-11.5,57.5-24.1,85.2-38.3c25.1-13.3,49.4-28,72.5-44.8h151.4
					l129.8,224.8l-31.6-18.9c-10.5-7.1-21.2-13.8-31.4-21.2c-10.1-7.5-20.5-14.8-30.1-23c-10-7.8-19.1-16.4-28.5-24.8l-13.3-13.4
					c-4.4-4.5-8.4-9.3-12.7-13.9c-4.2-4.7-7.9-9.7-11.9-14.6c-3.7-5-7.4-10.1-10.8-15.3l-5-7.9l-4.5-8.1c-0.7-1.3-1.3-2.6-2-4
					c-0.4-5.6-0.7-11-1.1-15.9l-0.5-7l-46.3-15.7L536.3,150.8z M433.6,116.7l-6,7.8c-2.1,2.5-4.4,4.9-6.6,7.3l-13.2,14.6l-14.2,13.6
					c-2.4,2.2-4.7,4.6-7.1,6.7l-7.6,6.3c-5.1,4.1-10,8.5-15.2,12.4l-5.8,4.3c-19.5,6.4-39.1,12.3-58.9,17.7
					c-21.6,5.9-43.5,11.4-65.3,16.1l64.7-112h139L433.6,116.7z M438.3,120.2l6.1-8.6h86.5c-19,12.1-38.8,23-59.1,33
					c-27.7,13.2-56,24.8-84.9,35.3c-1.5,0.5-3.1,1-4.6,1.6c0.8-0.7,1.5-1.4,2.3-2.1l7.5-6.7c2.4-2.3,4.7-4.8,7.1-7.1l14-14.3
					l12.9-15.3c2.1-2.6,4.3-5.1,6.4-7.7L438.3,120.2z M300.6,226.2c-12.5,6.8-25.2,13.1-38.1,18.8c-17,7.4-34.7,14.1-52.3,19.6
					l9.7-16.8C247.3,241.5,274,234.2,300.6,226.2z M182.8,740.3c-9.2-1.5-18.4-3.1-27.6-4.8c0,9.1,0,18.1,0,27.2
					c6.3,1.2,12.7,2.3,19.1,3.4c0,5.7,0,11.3,0,17c-6.4-1.1-12.8-2.2-19.1-3.4c0,15.6,0,31.3,0,46.9c-5.7-1-11.3-2-16.9-3.1
					c0-36,0-72.1,0-108.1c14.8,2.8,29.6,5.5,44.5,7.9C182.8,729,182.8,734.6,182.8,740.3z M167.5,698.6c-3.2-10.9-6.4-21.5-9.6-32
					c-12.9-1.7-25.8-3.5-38.7-5.3c-3.3,8.8-6.6,17.4-9.8,25.7c-8.3-1.8-16.5-3.6-24.8-5.5c8.5-20.5,17.2-42.6,26-66.3
					c-4.8-4.4-9.6-8.7-14.4-12.9c25.3,0.2,50.6,0.4,75.9,0.5c9.9,32.3,19.7,66.2,29.5,101.8C190.3,702.6,178.9,700.6,167.5,698.6z
					 M277.4,844.6c-1-5.8-2.1-11.6-3.1-17.5c-6.5-0.7-13-1.6-19.5-2.4c-1,5.6-2,11.2-3,16.7c-5.8-0.7-11.5-1.5-17.3-2.3
					c7.2-35,14.4-70.1,21.6-105.2c5.7,0.7,11.3,1.4,16.9,2.1c7.2,36.8,14.4,73.7,21.6,110.4C288.9,845.9,283.1,845.3,277.4,844.6z
					 M312.4,629.4c-20.6-0.5-41.2-1.2-61.7-1.8c-0.2,20-0.4,40-0.6,59.9c20.6,2.2,41.1,4.1,61.7,5.8c-0.1,8.7-0.1,17.3-0.2,25.9
					c-0.8-0.1-1.5-0.2-2.3-0.3c-7.8-0.8-15.5-1.7-23.2-2.5c-23.1-2.7-46.2-5.8-69.3-9.4c0.3-29.4,0.5-58.7,0.8-88.1
					c-4.8-5.4-9.5-10.7-14.3-15.9c36.4,0.2,72.8,0.4,109.2,0.5C312.5,612,312.4,620.7,312.4,629.4z M318.6,603.4
					c36.4,0.2,72.8,0.2,109.2,0.3c0,9.3-0.1,18.6-0.1,27.8c-20.6-0.2-41.2-0.5-61.8-0.8c-0.2,22.1-0.3,44.3-0.4,66.4
					c20.6,1.2,41.3,2.1,62,2.7c-0.1,9.1-0.1,18.1-0.1,27.3c0,0.1,0,0.3,0,0.4c-31.8-1.3-63.6-3.4-95.3-6.2c0-0.1,0-0.1,0-0.1
					c0.3-33.2,0.5-66.4,0.8-99.6C328.1,615.3,323.4,609.3,318.6,603.4z M500,927.8l-156.7-54.6L500,902.3l156.7-29.1L500,927.8z
					 M672.4,720.7c-33.3,3.1-66.7,5.3-100.1,6.7c0-0.1,0-0.3,0-0.4c-0.1-34.9-0.3-69.7-0.4-104.7c-4.9-6.2-9.8-12.4-14.6-18.7
					c15.4,0,30.8,0,46.2-0.1c0.2,31.6,0.3,63.2,0.5,94.8c12.1-0.5,24.1-1.2,36.2-1.9c-0.2-31-0.4-62-0.6-92.9
					c10.6-0.1,21.2-0.1,31.8-0.1c0.3,39,0.6,78.1,0.9,117.2C672.4,720.6,672.4,720.6,672.4,720.7z M746.3,771.8
					c0,8.8-2.6,15.8-7.7,21.2c-0.7,0.8-1.5,1.6-2.5,2.3c3.3,15.5,6.5,31,9.7,46.5c-5.8,0.7-11.5,1.4-17.3,2.1
					c-2.9-14.1-5.9-28.2-8.8-42.4c-2.6,0.3-5.1,0.6-7.7,0.9c0,14.5,0,28.9,0,43.4c-5.7,0.6-11.3,1.2-17,1.8c0-36,0-72.1,0-108
					c8.5-0.9,17.1-1.8,25.6-2.8c7.3-0.8,13.3,0.6,17.9,4.4c5.1,4.1,7.7,10.5,7.7,19.1C746.3,764.1,746.3,768,746.3,771.8z
					 M777.1,707.8c-17.3-15.8-34.6-33.1-52-51.7c0.2,19.6,0.4,39.2,0.5,58.8c-10,1.3-20,2.4-30,3.5c-0.6,0.1-1.2,0.2-1.8,0.2
					c-0.3-32.6-0.6-65.1-0.8-97.7c-4.9-5.7-9.7-11.6-14.6-17.5c11-0.1,21.9-0.1,32.8-0.2c17.4,19.8,34.7,38.7,52,56
					c-0.2-18.7-0.4-37.4-0.6-56.2c10.6-0.1,21.2-0.1,31.8-0.2c0.4,34,0.7,68.1,1,102.1C789.3,705.9,783.2,706.9,777.1,707.8z
					 M799.8,581.9c-16.6,0.1-33.2,0.2-49.8,0.2v-83.5l49.8,16.9V581.9z M840.8,789.3c0,12.7,0,25.3,0,38c-5.7,1-11.3,2-17,3
					c0-12.7,0-25.3,0-38c-6.9-22.2-13.8-44.5-20.7-66.7c5.9-0.9,11.9-1.9,17.8-2.9c3.8,12.3,7.6,24.5,11.4,36.8
					c3.9-13.6,7.8-27.2,11.6-40.8c5.9-1.1,11.9-2.2,17.8-3.3C854.7,740.1,847.8,764.7,840.8,789.3z M915.2,619.9
					c-11.3,0.6-22.7,1.3-34,1.8c0.1,22.4,0.2,44.8,0.3,67.2c-10.9,2.3-21.8,4.5-32.8,6.6c-0.2-24.1-0.4-48.1-0.5-72.2
					c-8,0.4-16,0.8-24,1.1c-7.4-6.9-14.8-14.1-22.2-21.6c37.7-0.2,75.4-0.5,113.1-0.7C915.2,608,915.2,614,915.2,619.9z"/>
				<path class="st6" d="M720.7,753.8c-2.9,0.3-5.8,0.6-8.7,0.9c0,10.3,0,20.5,0,30.7c2.9-0.3,5.8-0.6,8.7-0.9
					c2.9-0.4,5-1.2,6.3-2.6c1.5-1.6,2.3-4.2,2.3-8c0-3.9,0-7.7,0-11.6c0-3.6-0.8-6.1-2.3-7.4C725.7,753.8,723.6,753.5,720.7,753.8z"
					/>
				<path class="st6" d="M610.7,836.6c1.5-1.4,2.3-4,2.3-7.8c0-19.1,0-38.3,0-57.4c0-3.8-0.8-6.3-2.3-7.6c-1.3-1.2-3.4-1.7-6.3-1.5
					c-2.9,0.2-5,0.8-6.3,2.2c-1.6,1.5-2.4,4.1-2.4,7.9c0,19.1,0,38.3,0,57.4c0,3.7,0.8,6.2,2.4,7.6c1.3,1.2,3.5,1.7,6.3,1.5
					C607.3,838.7,609.4,837.9,610.7,836.6z"/>
				<path class="st6" d="M480.4,631.8c0,23,0,45.9-0.1,69c12.3,0.1,24.5,0.1,36.8,0c0-23-0.1-46-0.1-69
					C504.9,631.8,492.7,631.8,480.4,631.8z"/>
				<path class="st6" d="M257.8,808.2c4.5,0.6,9.1,1.1,13.6,1.7c-2.3-13.2-4.5-26.4-6.8-39.6C262.3,782.9,260.1,795.5,257.8,808.2z"
					/>
				<path class="st6" d="M133.4,622.6c-2.4,6.8-4.8,13.4-7.2,19.9c8.4,0.8,16.8,1.6,25.2,2.4c-2.3-7.3-4.6-14.6-6.9-21.8
					C140.8,623,137,622.8,133.4,622.6z"/>
			</g>
			<path class="st2" d="M604.3,745.3c-3.6,0.2-6.8,0.8-9.6,1.9c-3.2,1.2-6,2.9-8.3,5.2c-5.1,5.2-7.7,12-7.7,20.6
				c0,19.1,0,38.3,0,57.4c0,8.5,2.6,15.2,7.7,19.9c4.6,4,10.5,5.9,18,5.5c7.4-0.4,13.4-2.9,17.9-7.3c5.2-5.3,7.8-12.2,7.8-20.8
				c0-19.1,0-38.3,0-57.4c0-8.5-2.6-15.2-7.8-19.7c-2.4-2.1-5.2-3.6-8.4-4.5C611,745.4,607.8,745.1,604.3,745.3z M613,828.8
				c0,3.8-0.8,6.4-2.3,7.8c-1.3,1.3-3.4,2-6.3,2.2c-2.9,0.2-5-0.3-6.3-1.5c-1.6-1.4-2.4-3.9-2.4-7.6c0-19.1,0-38.2,0-57.4
				c0-3.7,0.8-6.3,2.4-7.9c1.3-1.3,3.5-2,6.3-2.2c3-0.2,5.1,0.3,6.3,1.5c1.5,1.3,2.3,3.8,2.3,7.6C613,790.5,613,809.7,613,828.8z"/>
			<path class="st2" d="M256.1,734c-7.2,35.1-14.4,70.2-21.6,105.2c5.7,0.8,11.5,1.6,17.3,2.3c1-5.6,2-11.2,3-16.7
				c6.5,0.8,13,1.6,19.5,2.4c1,5.8,2,11.6,3.1,17.5c5.7,0.7,11.5,1.3,17.3,1.9c-7.2-36.8-14.4-73.6-21.6-110.4
				C267.4,735.4,261.8,734.7,256.1,734z M257.8,808.2c2.3-12.6,4.5-25.3,6.8-37.9c2.3,13.2,4.5,26.4,6.8,39.6
				C266.9,809.3,262.3,808.7,257.8,808.2z"/>
			<path class="st2" d="M746.3,771.8c0-3.8,0-7.7,0-11.5c0-8.7-2.6-15-7.7-19.1c-4.6-3.7-10.6-5.2-17.9-4.4
				c-8.5,1-17.1,1.9-25.6,2.8c0,36,0,72,0,108c5.7-0.6,11.3-1.2,17-1.8c0-14.5,0-28.9,0-43.4c2.6-0.3,5.1-0.6,7.7-0.9
				c2.9,14.2,5.9,28.3,8.8,42.4c5.8-0.7,11.5-1.4,17.3-2.1c-3.3-15.5-6.5-31-9.7-46.5c0.9-0.7,1.7-1.5,2.5-2.3
				C743.8,787.7,746.3,780.6,746.3,771.8z M729.4,773.9c0,3.7-0.8,6.4-2.3,8c-1.4,1.4-3.5,2.3-6.3,2.6c-2.9,0.3-5.8,0.6-8.7,0.9
				c0-10.2,0-20.5,0-30.7c2.9-0.3,5.8-0.6,8.7-0.9c2.9-0.3,5,0.1,6.3,1.1c1.5,1.4,2.3,3.9,2.3,7.4
				C729.4,766.2,729.4,770,729.4,773.9z"/>
			<path class="st2" d="M840.8,827.3c0-12.6,0-25.3,0-38c7-24.6,13.9-49.2,20.9-73.9c-5.9,1.2-11.9,2.2-17.8,3.3
				c-3.9,13.6-7.8,27.2-11.6,40.8c-3.8-12.3-7.6-24.5-11.4-36.8c-5.9,1-11.9,1.9-17.8,2.9c6.9,22.2,13.8,44.5,20.7,66.7
				c0,12.6,0,25.3,0,38C829.5,829.3,835.2,828.3,840.8,827.3z"/>
			<path class="st2" d="M500.8,857.4c0-30.4,0-60.7,0-91.1c5.8,0,11.5,0,17.4-0.1c0-5.6,0-11.1,0-16.7c0-0.1,0-0.2,0-0.3
				c-17.3,0.2-34.5,0.1-51.8-0.2c0,0.1,0,0.2,0,0.3c0,5.6,0,11.1,0,16.7c5.8,0.1,11.6,0.2,17.4,0.2c0,30.4,0,60.7,0,91.1
				C489.4,857.4,495.1,857.4,500.8,857.4z"/>
			<path class="st2" d="M182.8,740.3c0-5.7,0-11.3,0-17c-14.8-2.4-29.7-5-44.5-7.9c0,36,0,72.1,0,108.1c5.6,1,11.2,2.1,16.9,3.1
				c0-15.6,0-31.3,0-46.9c6.3,1.2,12.7,2.3,19.1,3.4c0-5.7,0-11.3,0-17c-6.4-1-12.8-2.2-19.1-3.4c0-9,0-18.1,0-27.2
				C164.4,737.2,173.5,738.8,182.8,740.3z"/>
			<path class="st2" d="M406.4,782c0-3.2,0-6.4,0-9.6c0-8.5-2.6-15.4-7.8-20.6c-2.4-2.3-5.1-4.1-8.3-5.3c-2.9-1.1-6.1-1.8-9.6-2
				c-3.4-0.2-6.5,0.1-9.3,0.8c-3.3,0.8-6.1,2.3-8.7,4.4c-5.1,4.8-7.7,11.3-7.7,19.7c0,19.1,0,38.3,0,57.4c0,8.3,2.6,15.3,7.7,20.8
				c4.8,4.6,10.8,7.1,18,7.6c7.4,0.4,13.4-1.4,17.9-5.3c5.2-4.7,7.8-11.3,7.8-19.8c0-4.6,0-9.2,0-13.9c-5.7-0.3-11.4-0.5-17-0.9
				c0,4.7,0,9.3,0,13.9c0,3.8-0.7,6.3-2.2,7.6c-1.4,1.2-3.5,1.6-6.5,1.5c-2.9-0.2-5-0.9-6.3-2.3c-1.6-1.5-2.4-4.1-2.4-7.9
				c0-19.1,0-38.3,0-57.4c0-3.7,0.8-6.2,2.4-7.6c1.3-1.2,3.5-1.6,6.3-1.5c3,0.2,5.1,0.9,6.5,2.3c1.4,1.4,2.2,4,2.2,7.8
				c0,3.2,0,6.4,0,9.6C395,781.4,400.7,781.7,406.4,782z"/>
			<linearGradient id="SVGID_3_" gradientUnits="userSpaceOnUse" x1="865.0262" y1="652.7749" x2="865.0262" y2="687.2639">
				<stop  offset="0" style="stop-color:#DC8329"/>
				<stop  offset="1" style="stop-color:#FFFF4C"/>
			</linearGradient>
			<path class="st7" d="M853.7,654.3l0.3,34.8c7.5-1.5,14.9-3,22.3-4.5l-0.2-33C868.7,652.6,861.2,653.5,853.7,654.3z"/>
			<g>
				<g>
					<linearGradient id="SVGID_4_" gradientUnits="userSpaceOnUse" x1="709.4525" y1="666.5412" x2="709.4525" y2="706.5773">
						<stop  offset="0" style="stop-color:#DC8329"/>
						<stop  offset="1" style="stop-color:#FFFF4C"/>
					</linearGradient>
					<path class="st8" d="M698.6,667.8l0.4,45c7.1-0.8,14.2-1.6,21.4-2.4l-0.4-43.9C712.8,666.9,705.7,667.3,698.6,667.8z"/>
					<linearGradient id="SVGID_5_" gradientUnits="userSpaceOnUse" x1="765.4379" y1="666.5412" x2="765.4379" y2="706.5773">
						<stop  offset="0" style="stop-color:#DC8329"/>
						<stop  offset="1" style="stop-color:#FFFF4C"/>
					</linearGradient>
					<path class="st9" d="M789.7,660.9c-7.1,0.6-14.2,1.3-21.2,1.9l0.1,9.2l-8.6-8.6c-6.4,0.5-12.8,1-19.3,1.5
						c13.2,13.7,25.7,26,38,37.3c3.1-0.5,11.4-1.8,11.4-1.8l0-4C790,684.7,789.9,672.8,789.7,660.9z"/>
				</g>
			</g>
			<linearGradient id="SVGID_6_" gradientUnits="userSpaceOnUse" x1="622.2863" y1="672.441" x2="622.2863" y2="721.6238">
				<stop  offset="0" style="stop-color:#DC8329"/>
				<stop  offset="1" style="stop-color:#FFFF4C"/>
			</linearGradient>
			<path class="st10" d="M645.4,670.3l0.2,31l-5,0.3c-12.1,0.7-24.2,1.4-36.3,1.9l-5.4,0.2l0-5.4c-0.1-8.9-0.1-17.8-0.1-26.6
				c-7.1,0.2-14.2,0.3-21.3,0.4l0.2,49.8c30-1.3,60.1-3.3,89.6-6l-0.4-46.5C659.7,669.7,652.5,670.1,645.4,670.3z"/>
			<linearGradient id="SVGID_7_" gradientUnits="userSpaceOnUse" x1="498.7683" y1="673.0966" x2="498.7683" y2="723.5773">
				<stop  offset="0" style="stop-color:#DC8329"/>
				<stop  offset="1" style="stop-color:#FFFF4C"/>
			</linearGradient>
			<path class="st11" d="M522.4,672.3l0,33.6l-5.2,0c-6.2,0.1-12.3,0.1-18.4,0.1c-6.1,0-12.3,0-18.4-0.1l-5.2,0l0-5.2
				c0-9.7,0-19.4,0-29.1c-7.1-0.2-14.3-0.4-21.4-0.6l-0.2,51.9c15.8,0.4,31.7,0.6,47.3,0.6c14.3,0,28.7-0.2,43-0.5l-0.1-50.6
				C536.7,672.4,529.5,672.4,522.4,672.3z"/>
			<linearGradient id="SVGID_8_" gradientUnits="userSpaceOnUse" x1="379.8292" y1="668.5078" x2="379.8292" y2="717.0884">
				<stop  offset="0" style="stop-color:#DC8329"/>
				<stop  offset="1" style="stop-color:#FFFF4C"/>
			</linearGradient>
			<path class="st12" d="M360.3,701.9l0.2-35.4c-7.6-0.5-15.1-1-22.7-1.6l-0.4,51.3c28.4,2.5,56.8,4.4,84.8,5.6
				c0-5.7,0-11.3,0.1-17.1c-17.9-0.6-36.6-1.4-57-2.6L360.3,701.9z"/>
			<linearGradient id="SVGID_9_" gradientUnits="userSpaceOnUse" x1="264.2996" y1="658.6747" x2="264.2996" y2="706.5335">
				<stop  offset="0" style="stop-color:#DC8329"/>
				<stop  offset="1" style="stop-color:#FFFF4C"/>
			</linearGradient>
			<path class="st13" d="M244.8,692.2l0-4.7c0.1-10.3,0.2-20.6,0.3-30.9c-7.5-0.8-15-1.6-22.6-2.5c-0.2,16.1-0.3,32.2-0.5,48.3
				c21,3.2,42.7,6.2,64.6,8.7l6.5,0.7c4.4,0.5,8.7,1,13.2,1.5c0-5.1,0.1-10.1,0.1-15.2c-18.4-1.5-37.5-3.3-57-5.4L244.8,692.2z"/>
			<linearGradient id="SVGID_10_" gradientUnits="userSpaceOnUse" x1="143.1902" y1="646.8751" x2="143.1902" y2="690.801">
				<stop  offset="0" style="stop-color:#DC8329"/>
				<stop  offset="1" style="stop-color:#FFFF4C"/>
			</linearGradient>
			<path class="st14" d="M157.1,645.7l1.6,5.1l-7.8-0.7c-8.4-0.7-16.8-1.5-25.2-2.4l-6.7-0.7l2.3-6.4c0-0.1,0.1-0.2,0.1-0.3
				c-4.6-0.7-9.2-1.4-13.8-2.2c-5.3,13.8-10.5,27-15.6,39.4c4.7,1.1,9.5,2.1,14.3,3.2c2.7-7,5.4-14.2,8.2-21.5l1.5-4l4.2,0.6
				c12.8,1.9,25.7,3.7,38.6,5.3l3.4,0.4l1,3.2c2.9,9.5,5.8,19.1,8.7,28.9c7.6,1.4,15.2,2.7,22.8,4c-4.6-16.7-9.3-33.1-14-49.1
				C172.7,647.8,164.9,646.8,157.1,645.7z"/>
		</g>
		<circle class="st6" cx="701" cy="150.6" r="8.7"/>
		<circle class="st6" cx="529.1" cy="301.2" r="27.3"/>
		<circle class="st6" cx="516.4" cy="259.1" r="6.2"/>
		<path class="st6" d="M163.8,331.4l-25,38.2c3.9,2.9,8.6,4.8,13.9,4.8c12.7,0,23-10.3,23-23C175.7,342.8,170.9,335.3,163.8,331.4z"
			/>
		<path class="st6" d="M735,154.9c-13.9,3.1-24.4,15.4-24.4,30.3c0,17.1,13.9,31,31,31c9.4,0,17.8-4.2,23.5-10.8L735,154.9z"/>
	</g>
</g>
</svg>
