<svg xmlns="http://www.w3.org/2000/svg" width="147" height="81" viewBox="0 0 147 81"><defs><style>.a,.e{fill:none;}.a{stroke:#e5e5e5;stroke-width:2px;}.b,.c{isolation:isolate;}.c{opacity:0.5;mix-blend-mode:luminosity;}.d{stroke:none;}</style></defs><g transform="translate(-921 -781)"><g class="a" transform="translate(921 781)"><rect class="d" width="147" height="81" rx="8"/><rect class="e" x="1" y="1" width="145" height="79" rx="7"/></g><g class="b" transform="translate(937.461 804)"><path class="c" d="M21.695,16.968a5.244,5.244,0,0,0,2.887-5.685c-.375-4.011-3.669-5.355-8.032-5.729V0H13.156V5.4c-.881,0-1.785.022-2.688.044V0H7.074V5.553c-1.248.038-2.7.019-6.809,0V9.167c2.679-.047,4.085-.22,4.407,1.5V25.871c-.2,1.363-1.3,1.167-3.724,1.124L.265,31.028c6.188,0,6.809.022,6.809.022v4.756h3.394v-4.69c.925.022,1.829.022,2.688.022v4.668H16.55V31.05c5.685-.309,9.486-1.741,9.993-7.1C26.939,19.657,24.912,17.739,21.695,16.968ZM10.534,9.41c1.917,0,7.911-.595,7.911,3.394,0,3.812-5.994,3.372-7.911,3.372Zm0,17.607V19.568c2.292,0,9.31-.639,9.31,3.724C19.844,27.5,12.826,27.017,10.534,27.017Z" transform="translate(-0.265)"/><path class="c" d="M17.856,26.809,6.87,20.32,17.855,35.805l11-15.486-11,6.49h0ZM18.023,0,7.034,18.235l10.988,6.5,10.988-6.49Z" transform="translate(36.239)"/><path class="c" d="M102.947,102.414l2.037-7.671,4.823-1.762,1.2-4.508-.041-.112L106.218,90.1l3.421-12.881h-9.7L95.464,94.024l-3.735,1.364-1.234,4.648,3.732-1.363-2.637,9.907H117.41l1.655-6.166H102.947" transform="translate(-7.994 -75.264)"/></g></g></svg>