<svg xmlns="http://www.w3.org/2000/svg" xmlns:xlink="http://www.w3.org/1999/xlink" width="131" height="130.556" viewBox="0 0 131 130.556"><defs><style>.a{fill:#f3c845;}.b{fill:#b6761f;}.c{fill:url(#a);}.d{fill:url(#b);}.e{fill:url(#c);}.f{fill:#4d200b;}.g{fill:#c3976c;}.h{fill:#f9ff94;}.i{fill:#260f02;}.j{fill:url(#d);}.k{fill:url(#e);}.l{fill:#30c2eb;}.m{fill:#49ebed;}.n{fill:#fff;}.o{fill:url(#f);}.p{fill:url(#g);}.q{fill:url(#h);}.r{fill:url(#i);}.s{fill:url(#j);}.t{fill:url(#k);}.u{fill:url(#l);}.v{fill:url(#m);}.w{fill:url(#n);}.x{fill:url(#o);}.y{fill:url(#p);}.z{fill:url(#q);}.aa{fill:url(#r);}.ab{fill:url(#s);}.ac{fill:url(#t);}.ad{fill:url(#u);}.ae{fill:url(#v);}.af{fill:url(#w);}.ag{fill:url(#x);}.ah{fill:url(#y);}.ai{fill:url(#z);}.aj{fill:url(#aa);}.ak{fill:url(#ab);}.al{fill:url(#ac);}.am{fill:url(#ad);}.an{fill:url(#ae);}.ao{fill:url(#af);}.ap{fill:url(#ag);}.aq{fill:url(#ah);}.ar{fill:url(#ai);}.as{fill:url(#aj);}.at{fill:url(#ak);}.au{fill:url(#al);}.av{fill:url(#am);}.aw{fill:url(#an);}.ax{fill:url(#ao);}.ay{fill:url(#ap);}.az{fill:url(#aq);}.ba{fill:url(#ar);}.bb{fill:url(#as);}.bc{fill:url(#at);}.bd{fill:url(#au);}.be{fill:url(#av);}.bf{fill:url(#aw);}.bg{fill:url(#ax);}.bh{fill:url(#ay);}.bi{fill:url(#az);}.bj{fill:url(#ba);}.bk{fill:url(#bb);}.bl{fill:url(#bc);}.bm{fill:url(#bd);}.bn{fill:url(#be);}.bo{fill:url(#bf);}.bp{fill:url(#bg);}.bq{fill:url(#bh);}.br{fill:url(#bi);}.bs{fill:url(#bj);}.bt{fill:url(#bk);}.bu{fill:url(#bl);}.bv{fill:url(#bm);}.bw{fill:url(#bn);}.bx{fill:url(#bo);}.by{fill:url(#bp);}.bz{fill:url(#bq);}.ca{fill:url(#br);}.cb{fill:url(#bs);}.cc{fill:url(#bt);}.cd{fill:url(#bu);}.ce{fill:url(#bv);}.cf{fill:url(#bw);}.cg{fill:url(#bx);}.ch{fill:url(#by);}.ci{fill:url(#bz);}.cj{fill:url(#ca);}.ck{fill:url(#cb);}.cl{fill:url(#cc);}.cm{fill:url(#cd);}.cn{fill:url(#ce);}.co{fill:url(#cf);}.cp{fill:url(#cg);}.cq{fill:url(#ch);}.cr{fill:url(#ci);}.cs{fill:url(#cj);}.ct{fill:url(#ck);}.cu{fill:url(#cl);}.cv{fill:url(#cm);}.cw{fill:url(#cn);}.cx{fill:url(#co);}.cy{fill:url(#cp);}.cz{fill:url(#cq);}.da{fill:url(#cr);}.db{fill:url(#cs);}.dc{fill:url(#ct);}.dd{fill:url(#cu);}.de{fill:url(#cv);}.df{fill:url(#cw);}.dg{fill:url(#cx);}.dh{fill:url(#cy);}.di{fill:url(#cz);}.dj{fill:url(#da);}.dk{fill:url(#db);}.dl{fill:url(#dc);}.dm{fill:url(#dd);}.dn{fill:url(#de);}.do{fill:url(#df);}.dp{fill:url(#dg);}.dq{fill:url(#dh);}.dr{fill:url(#di);}.ds{fill:url(#dj);}.dt{fill:url(#dk);}.du{fill:url(#dl);}.dv{fill:url(#dm);}.dw{fill:url(#dn);}.dx{fill:url(#do);}.dy{fill:url(#dp);}.dz{fill:url(#dq);}.ea{fill:url(#dr);}.eb{fill:url(#ds);}.ec{fill:url(#dt);}.ed{fill:url(#du);}.ee{fill:url(#dv);}.ef{fill:url(#dw);}.eg{fill:url(#dx);}.eh{fill:url(#dy);}.ei{fill:url(#dz);}.ej{fill:url(#ea);}.ek{fill:url(#eb);}.el{fill:url(#ec);}.em{fill:url(#ed);}.en{fill:url(#ee);}.eo{fill:url(#ef);}.ep{fill:url(#eg);}.eq{fill:url(#eh);}.er{fill:url(#ei);}.es{fill:url(#ej);}.et{fill:url(#ek);}.eu{fill:url(#el);}.ev{fill:url(#em);}.ew{fill:url(#en);}.ex{fill:url(#eo);}.ey{fill:url(#ep);}.ez{fill:url(#eq);}.fa{fill:url(#er);}.fb{fill:url(#es);}.fc{fill:url(#et);}.fd{fill:url(#eu);}.fe{fill:url(#ev);}.ff{fill:url(#ew);}.fg{fill:url(#ex);}.fh{fill:url(#ey);}.fi{fill:url(#ez);}.fj{fill:url(#fa);}.fk{fill:url(#fb);}.fl{fill:url(#fc);}.fm{fill:url(#fd);}.fn{fill:url(#fe);}.fo{fill:url(#ff);}.fp{fill:url(#fg);}.fq{fill:url(#fh);}.fr{fill:url(#fi);}.fs{fill:url(#fj);}.ft{fill:url(#fk);}.fu{fill:url(#fl);}.fv{fill:url(#fm);}.fw{fill:url(#fn);}.fx{fill:url(#fo);}.fy{fill:url(#fp);}.fz{fill:url(#fq);}.ga{fill:url(#fr);}.gb{fill:url(#fs);}.gc{fill:url(#ft);}.gd{fill:url(#fu);}.ge{fill:url(#fv);}.gf{fill:url(#fw);}.gg{fill:url(#fx);}.gh{fill:url(#fy);}.gi{fill:url(#fz);}.gj{fill:url(#ga);}.gk{fill:url(#gb);}.gl{fill:url(#gc);}.gm{fill:url(#gd);}.gn{fill:url(#ge);}.go{fill:url(#gf);}.gp{fill:url(#gg);}.gq{fill:url(#gh);}.gr{fill:url(#gi);}.gs{fill:url(#gj);}.gt{fill:url(#gk);}.gu{fill:url(#gl);}.gv{fill:url(#gm);}.gw{fill:url(#gn);}.gx{fill:url(#go);}.gy{fill:url(#gp);}.gz{fill:url(#gq);}.ha{fill:url(#gr);}.hb{fill:url(#gs);}.hc{fill:url(#gt);}.hd{fill:url(#gu);}.he{fill:#6e3517;}.hf{opacity:0.46;fill:url(#gv);}.hg{fill:url(#gw);}.hh{fill:url(#gx);}.hi{fill:url(#gy);}.hj{fill:url(#gz);}.hk{fill:url(#ha);}.hl{fill:url(#hb);}.hm{fill:url(#hc);}.hn{fill:url(#hd);}.ho{fill:url(#he);}.hp{fill:url(#hf);}.hq{fill:url(#hg);}.hr{fill:url(#hh);}.hs{fill:url(#hi);}.ht{fill:url(#hj);}.hu{fill:url(#hk);}.hv{fill:url(#hl);}.hw{fill:url(#hm);}.hx{fill:url(#hn);}.hy{fill:url(#ho);}.hz{fill:url(#hp);}.ia{fill:url(#hq);}.ib{fill:url(#hr);}</style><linearGradient id="a" y1="0.5" x2="0.999" y2="0.5" gradientUnits="objectBoundingBox"><stop offset="0" stop-color="#925c32"/><stop offset="1" stop-color="#6e3517"/></linearGradient><linearGradient id="b" x1="0" y1="0.499" x2="1" y2="0.499" xlink:href="#a"/><linearGradient id="c" x1="0.483" y1="0.73" x2="0.527" y2="0.135" gradientUnits="objectBoundingBox"><stop offset="0" stop-color="#670505"/><stop offset="0.916" stop-color="#3f0505"/></linearGradient><linearGradient id="d" x1="2.858" y1="-4.412" x2="3.89" y2="-4.412" gradientUnits="objectBoundingBox"><stop offset="0" stop-color="#4aefeb"/><stop offset="1" stop-color="#0782e2"/></linearGradient><linearGradient id="e" x1="4.506" y1="-1.907" x2="5.673" y2="-1.907" gradientUnits="objectBoundingBox"><stop offset="0" stop-color="#002bb5"/><stop offset="1" stop-color="#0782e2"/></linearGradient><linearGradient id="f" x1="2.508" y1="-1.801" x2="3.61" y2="-1.801" gradientUnits="objectBoundingBox"><stop offset="0" stop-color="#002bb5"/><stop offset="0.299" stop-color="#0782e2"/><stop offset="0.447" stop-color="#002bb5"/><stop offset="0.734" stop-color="#49ebed"/><stop offset="1" stop-color="#002bb5"/></linearGradient><linearGradient id="g" x1="-15.239" y1="-2.516" x2="-11.452" y2="-2.516" xlink:href="#d"/><linearGradient id="h" x1="-7.16" y1="-4.628" x2="-6.094" y2="-4.628" xlink:href="#e"/><linearGradient id="i" x1="-6.785" y1="-1.676" x2="-4.648" y2="-1.676" xlink:href="#f"/><linearGradient id="j" x1="0" y1="0.5" x2="0.999" y2="0.5" xlink:href="#e"/><linearGradient id="k" x1="0.001" y1="0.5" x2="0.999" y2="0.5" xlink:href="#d"/><linearGradient id="l" x1="0.001" y1="0.498" x2="1" y2="0.498" xlink:href="#f"/><linearGradient id="m" x1="10.17" y1="-2.672" x2="11.624" y2="-2.672" xlink:href="#e"/><linearGradient id="n" x1="12.348" y1="-5.77" x2="13.523" y2="-5.77" xlink:href="#d"/><linearGradient id="o" x1="5.428" y1="-1.928" x2="6.656" y2="-1.928" xlink:href="#f"/><linearGradient id="p" x1="-0.001" y1="0.499" x2="1" y2="0.499" gradientUnits="objectBoundingBox"><stop offset="0" stop-color="#28bfea"/><stop offset="1" stop-color="#0782e2"/></linearGradient><linearGradient id="q" x1="-0.001" y1="0.5" x2="1" y2="0.5" xlink:href="#e"/><linearGradient id="r" x1="0.001" y1="0.5" x2="1.003" y2="0.5" xlink:href="#f"/><linearGradient id="s" x1="0.002" y1="0.5" x2="1.002" y2="0.5" xlink:href="#d"/><linearGradient id="t" x1="-0.001" y1="0.501" x2="0.998" y2="0.501" xlink:href="#e"/><linearGradient id="u" x1="0.002" y1="0.501" x2="1.002" y2="0.501" xlink:href="#e"/><linearGradient id="v" x1="-0.002" y1="0.501" x2="0.998" y2="0.501" xlink:href="#d"/><linearGradient id="w" x1="-0.002" y1="0.5" x2="1" y2="0.5" xlink:href="#f"/><linearGradient id="x" x1="0" y1="0.501" x2="1" y2="0.501" xlink:href="#d"/><linearGradient id="y" x1="0.001" y1="0.5" x2="1" y2="0.5" xlink:href="#e"/><linearGradient id="z" x1="0" y1="0.5" x2="1" y2="0.5" xlink:href="#e"/><linearGradient id="aa" x1="0.002" y1="0.5" x2="1.001" y2="0.5" xlink:href="#d"/><linearGradient id="ab" x1="0" y1="0.499" x2="1.001" y2="0.499" xlink:href="#f"/><linearGradient id="ac" x1="0.952" y1="0.943" x2="0.489" y2="0.013" xlink:href="#e"/><linearGradient id="ad" x1="0.509" y1="0.23" x2="1.116" y2="0.78" xlink:href="#p"/><linearGradient id="ae" x1="-0.001" y1="0.501" x2="0.999" y2="0.501" xlink:href="#d"/><linearGradient id="af" x1="0.628" y1="0.798" x2="0.183" y2="0.158" xlink:href="#p"/><linearGradient id="ag" x1="0" y1="0.5" x2="1" y2="0.5" xlink:href="#f"/><linearGradient id="ah" x1="0" y1="0.5" x2="1.001" y2="0.5" xlink:href="#d"/><linearGradient id="ai" x1="0" y1="0.5" x2="1" y2="0.5" xlink:href="#e"/><linearGradient id="aj" x1="0" y1="0.5" x2="1" y2="0.5" xlink:href="#f"/><linearGradient id="ak" x1="0.546" y1="0.769" x2="2.223" y2="0.769" xlink:href="#p"/><linearGradient id="al" x1="0.302" y1="0.765" x2="1.227" y2="0.765" xlink:href="#e"/><linearGradient id="am" x1="0.279" y1="0.565" x2="1.346" y2="0.565" xlink:href="#f"/><linearGradient id="an" x1="1.378" y1="0.858" x2="1.249" y2="-0.219" xlink:href="#e"/><linearGradient id="ao" x1="1.437" y1="0.121" x2="2.033" y2="0.697" xlink:href="#p"/><linearGradient id="ap" x1="0.91" y1="0.069" x2="1.948" y2="0.069" xlink:href="#d"/><linearGradient id="aq" x1="3.163" y1="0.743" x2="2.413" y2="0.158" xlink:href="#p"/><linearGradient id="ar" x1="0.699" y1="0.388" x2="1.317" y2="0.388" xlink:href="#f"/><linearGradient id="as" x1="1.371" y1="1.004" x2="1.272" y2="-0.215" xlink:href="#e"/><linearGradient id="at" x1="1.387" y1="0.223" x2="1.799" y2="0.829" xlink:href="#p"/><linearGradient id="au" x1="1.088" y1="0.339" x2="2.175" y2="0.339" xlink:href="#d"/><linearGradient id="av" x1="2.461" y1="0.877" x2="1.988" y2="0.262" xlink:href="#p"/><linearGradient id="aw" x1="0.788" y1="0.432" x2="1.302" y2="0.432" xlink:href="#f"/><linearGradient id="ax" x1="0.351" y1="0.814" x2="1.528" y2="0.814" xlink:href="#d"/><linearGradient id="ay" x1="0.806" y1="0.756" x2="2.423" y2="0.756" xlink:href="#e"/><linearGradient id="az" x1="0.311" y1="0.67" x2="1.688" y2="0.67" xlink:href="#f"/><linearGradient id="ba" x1="1.885" y1="-1.501" x2="2.723" y2="-1.501" xlink:href="#p"/><linearGradient id="bb" x1="2.914" y1="-1.25" x2="4.726" y2="-1.25" xlink:href="#e"/><linearGradient id="bc" x1="1.776" y1="-0.835" x2="2.746" y2="-0.835" xlink:href="#f"/><linearGradient id="bd" x1="3.362" y1="0.571" x2="3.259" y2="-0.597" xlink:href="#e"/><linearGradient id="be" x1="2.613" y1="-0.323" x2="2.9" y2="0.468" xlink:href="#p"/><linearGradient id="bf" x1="4.655" y1="-2.835" x2="5.593" y2="-2.835" xlink:href="#d"/><linearGradient id="bg" x1="2.669" y1="0.868" x2="2.459" y2="-0.353" xlink:href="#p"/><linearGradient id="bh" x1="2.212" y1="-0.052" x2="2.695" y2="-0.052" xlink:href="#f"/><linearGradient id="bi" x1="2.117" y1="-0.404" x2="3.407" y2="-0.404" xlink:href="#d"/><linearGradient id="bj" x1="2.069" y1="-0.106" x2="2.81" y2="-0.106" xlink:href="#e"/><linearGradient id="bk" x1="1.684" y1="-0.023" x2="2.77" y2="-0.023" xlink:href="#f"/><linearGradient id="bl" x1="2.95" y1="-5.034" x2="3.888" y2="-5.034" xlink:href="#p"/><linearGradient id="bm" x1="3.197" y1="-7.759" x2="4.254" y2="-7.759" xlink:href="#e"/><linearGradient id="bn" x1="2.61" y1="-2.883" x2="3.596" y2="-2.883" xlink:href="#f"/><linearGradient id="bo" x1="2.45" y1="-6.204" x2="3.457" y2="-6.204" xlink:href="#d"/><linearGradient id="bp" x1="3.229" y1="-2.946" x2="4.158" y2="-2.946" xlink:href="#e"/><linearGradient id="bq" x1="2.063" y1="-2.243" x2="3.046" y2="-2.243" xlink:href="#f"/><linearGradient id="br" x1="0.957" y1="-3.701" x2="2.008" y2="-3.701" xlink:href="#d"/><linearGradient id="bs" x1="1.25" y1="-4.285" x2="2.074" y2="-4.285" xlink:href="#e"/><linearGradient id="bt" x1="0.702" y1="-1.75" x2="1.681" y2="-1.75" xlink:href="#f"/><linearGradient id="bu" x1="-5.906" y1="-4.572" x2="-4.046" y2="-4.572" xlink:href="#d"/><linearGradient id="bv" x1="-11.331" y1="-4.652" x2="-9.073" y2="-4.652" xlink:href="#e"/><linearGradient id="bw" x1="-4.145" y1="-2.975" x2="-2.403" y2="-2.975" xlink:href="#f"/><linearGradient id="bx" x1="-7.827" y1="1.115" x2="-5.956" y2="1.115" xlink:href="#e"/><linearGradient id="by" x1="-5.886" y1="0.197" x2="-4.557" y2="0.197" xlink:href="#d"/><linearGradient id="bz" x1="-2.996" y1="0.777" x2="-1.568" y2="0.777" xlink:href="#f"/><linearGradient id="ca" x1="12.41" y1="-3.426" x2="14.042" y2="-3.426" xlink:href="#e"/><linearGradient id="cb" x1="13.662" y1="-4.879" x2="14.898" y2="-4.879" xlink:href="#d"/><linearGradient id="cc" x1="6.538" y1="-1.782" x2="8.023" y2="-1.782" xlink:href="#f"/><linearGradient id="cd" x1="-5.861" y1="-1.067" x2="-5.027" y2="-1.067" xlink:href="#p"/><linearGradient id="ce" x1="-12.498" y1="-1.109" x2="-10.856" y2="-1.109" xlink:href="#e"/><linearGradient id="cf" x1="-5.585" y1="-0.645" x2="-4.617" y2="-0.645" xlink:href="#f"/><linearGradient id="cg" x1="-4.436" y1="-3.029" x2="-3.796" y2="-3.029" xlink:href="#d"/><linearGradient id="ch" x1="-8.75" y1="-2.403" x2="-7.025" y2="-2.403" xlink:href="#e"/><linearGradient id="ci" x1="-6.382" y1="-9.164" x2="-5.514" y2="-9.164" xlink:href="#e"/><linearGradient id="cj" x1="-6.709" y1="-8.311" x2="-5.873" y2="-8.311" xlink:href="#d"/><linearGradient id="ck" x1="-3.417" y1="-1.904" x2="-2.476" y2="-1.904" xlink:href="#f"/><linearGradient id="cl" x1="-11.068" y1="1.842" x2="-10.428" y2="1.842" xlink:href="#d"/><linearGradient id="cm" x1="-23.588" y1="1.714" x2="-21.863" y2="1.714" xlink:href="#e"/><linearGradient id="cn" x1="-15.389" y1="0.354" x2="-14.52" y2="0.354" xlink:href="#e"/><linearGradient id="co" x1="-16.92" y1="0.269" x2="-16.083" y2="0.269" xlink:href="#d"/><linearGradient id="cp" x1="-8.747" y1="1.036" x2="-7.805" y2="1.036" xlink:href="#f"/><linearGradient id="cq" x1="-2.567" y1="0.766" x2="-2.683" y2="-0.319" xlink:href="#e"/><linearGradient id="cr" x1="-2.332" y1="-0.012" x2="-2.026" y2="0.702" xlink:href="#p"/><linearGradient id="cs" x1="-7.773" y1="-2.513" x2="-6.857" y2="-2.513" xlink:href="#d"/><linearGradient id="ct" x1="-2.272" y1="1.122" x2="-2.496" y2="0.05" xlink:href="#p"/><linearGradient id="cu" x1="-2.505" y1="0.133" x2="-1.968" y2="0.133" xlink:href="#f"/><linearGradient id="cv" x1="-4.94" y1="-0.205" x2="-3.748" y2="-0.205" xlink:href="#d"/><linearGradient id="cw" x1="-5.269" y1="0.777" x2="-4.514" y2="0.777" xlink:href="#e"/><linearGradient id="cx" x1="-3.105" y1="0.291" x2="-2.071" y2="0.291" xlink:href="#f"/><linearGradient id="cy" x1="-4.677" y1="0.533" x2="-3.675" y2="0.533" xlink:href="#p"/><linearGradient id="cz" x1="-4.663" y1="-1.946" x2="-3.664" y2="-1.946" xlink:href="#e"/><linearGradient id="da" x1="-3.725" y1="0.14" x2="-2.723" y2="0.14" xlink:href="#f"/><linearGradient id="db" x1="-4.958" y1="1.507" x2="-5.422" y2="0.577" xlink:href="#e"/><linearGradient id="dc" x1="-2.566" y1="0.897" x2="-1.957" y2="1.446" xlink:href="#p"/><linearGradient id="dd" x1="-4.46" y1="0.252" x2="-3.46" y2="0.252" xlink:href="#d"/><linearGradient id="de" x1="-2.446" y1="1.706" x2="-2.892" y2="1.067" xlink:href="#p"/><linearGradient id="df" x1="-2.738" y1="0.807" x2="-1.74" y2="0.807" xlink:href="#f"/><linearGradient id="dg" x1="-1.749" y1="1.005" x2="-2.053" y2="0.05" xlink:href="#e"/><linearGradient id="dh" x1="-2.863" y1="0.332" x2="-2" y2="0.877" xlink:href="#p"/><linearGradient id="di" x1="-3.587" y1="-1.87" x2="-2.529" y2="-1.87" xlink:href="#d"/><linearGradient id="dj" x1="-3.983" y1="0.988" x2="-4.835" y2="0.393" xlink:href="#p"/><linearGradient id="dk" x1="-1.791" y1="0.375" x2="-0.853" y2="0.375" xlink:href="#f"/><linearGradient id="dl" x1="-2.456" y1="1.094" x2="-1.456" y2="1.094" xlink:href="#d"/><linearGradient id="dm" x1="-4.77" y1="1.348" x2="-3.768" y2="1.348" xlink:href="#e"/><linearGradient id="dn" x1="-1.764" y1="1.274" x2="-0.764" y2="1.274" xlink:href="#f"/><linearGradient id="do" x1="0.476" y1="-0.18" x2="1.528" y2="-0.18" xlink:href="#p"/><linearGradient id="dp" x1="1.686" y1="-0.291" x2="4.792" y2="-0.291" xlink:href="#e"/><linearGradient id="dq" x1="0.478" y1="0.032" x2="1.594" y2="0.032" xlink:href="#f"/><linearGradient id="dr" x1="0.973" y1="3.014" x2="0.898" y2="0.346" xlink:href="#e"/><linearGradient id="ds" x1="0.757" y1="0.804" x2="1.007" y2="2.683" xlink:href="#p"/><linearGradient id="dt" x1="2.058" y1="0.474" x2="3.209" y2="0.474" xlink:href="#d"/><linearGradient id="du" x1="0.8" y1="3.638" x2="0.611" y2="0.427" xlink:href="#p"/><linearGradient id="dv" x1="0.628" y1="0.985" x2="0.978" y2="0.985" xlink:href="#f"/><linearGradient id="dw" x1="0.4" y1="0.508" x2="2.689" y2="0.508" xlink:href="#d"/><linearGradient id="dx" x1="0.242" y1="0.363" x2="1.074" y2="0.363" xlink:href="#e"/><linearGradient id="dy" x1="0.218" y1="0.695" x2="1.902" y2="0.695" xlink:href="#f"/><linearGradient id="dz" x1="1.627" y1="-3.322" x2="2.465" y2="-3.322" xlink:href="#p"/><linearGradient id="ea" x1="3.503" y1="-1.536" x2="5.308" y2="-1.536" xlink:href="#e"/><linearGradient id="eb" x1="1.539" y1="-1.095" x2="2.509" y2="-1.095" xlink:href="#f"/><linearGradient id="ec" x1="1.464" y1="-0.921" x2="2.752" y2="-0.921" xlink:href="#d"/><linearGradient id="ed" x1="1.405" y1="-3.591" x2="2.146" y2="-3.591" xlink:href="#e"/><linearGradient id="ee" x1="0.967" y1="-0.572" x2="2.049" y2="-0.572" xlink:href="#f"/><linearGradient id="ef" x1="4.493" y1="-6.028" x2="5.568" y2="-6.028" xlink:href="#d"/><linearGradient id="eg" x1="8.058" y1="-3.167" x2="9.361" y2="-3.167" xlink:href="#e"/><linearGradient id="eh" x1="3.978" y1="-3.003" x2="5.165" y2="-3.003" xlink:href="#f"/><linearGradient id="ei" x1="-17.757" y1="-5.159" x2="-14.741" y2="-5.159" xlink:href="#d"/><linearGradient id="ej" x1="-9.32" y1="-9.62" x2="-8.371" y2="-9.62" xlink:href="#e"/><linearGradient id="ek" x1="-8.9" y1="-3.908" x2="-6.981" y2="-3.908" xlink:href="#f"/><linearGradient id="el" x1="-8.386" y1="2.899" x2="-7.448" y2="2.899" xlink:href="#e"/><linearGradient id="em" x1="-11.788" y1="4.282" x2="-10.804" y2="4.282" xlink:href="#d"/><linearGradient id="en" x1="-5.02" y1="2.648" x2="-4.053" y2="2.648" xlink:href="#f"/><linearGradient id="eo" x1="13.74" y1="-1.556" x2="14.988" y2="-1.556" xlink:href="#e"/><linearGradient id="ep" x1="17.399" y1="-3.931" x2="18.489" y2="-3.931" xlink:href="#d"/><linearGradient id="eq" x1="7.639" y1="-1.17" x2="8.769" y2="-1.17" xlink:href="#f"/><linearGradient id="er" x1="-7.139" y1="3.098" x2="-6.042" y2="3.098" xlink:href="#p"/><linearGradient id="es" x1="-6.205" y1="5.415" x2="-5.251" y2="5.415" xlink:href="#e"/><linearGradient id="et" x1="-5.509" y1="2.198" x2="-4.476" y2="2.198" xlink:href="#f"/><linearGradient id="eu" x1="-14.337" y1="2.169" x2="-13.256" y2="2.169" xlink:href="#d"/><linearGradient id="ev" x1="-9.545" y1="2.933" x2="-8.66" y2="2.933" xlink:href="#e"/><linearGradient id="ew" x1="-14.337" y1="3.377" x2="-13.256" y2="3.377" xlink:href="#e"/><linearGradient id="ex" x1="-16.678" y1="3.377" x2="-15.615" y2="3.377" xlink:href="#d"/><linearGradient id="ey" x1="-7.694" y1="1.765" x2="-6.631" y2="1.765" xlink:href="#f"/><linearGradient id="ez" x1="-14.172" y1="2.541" x2="-13.085" y2="2.541" xlink:href="#d"/><linearGradient id="fa" x1="-9.343" y1="3.485" x2="-8.461" y2="3.485" xlink:href="#e"/><linearGradient id="fb" x1="-14.172" y1="4.032" x2="-13.085" y2="4.032" xlink:href="#e"/><linearGradient id="fc" x1="-16.501" y1="4.032" x2="-15.432" y2="4.032" xlink:href="#d"/><linearGradient id="fd" x1="-7.539" y1="2.051" x2="-6.48" y2="2.051" xlink:href="#f"/><linearGradient id="fe" x1="-16.206" y1="1.727" x2="-16.651" y2="0.789" xlink:href="#e"/><linearGradient id="ff" x1="-9.065" y1="1.058" x2="-8.228" y2="1.603" xlink:href="#p"/><linearGradient id="fg" x1="-10.186" y1="3.624" x2="-9.116" y2="3.624" xlink:href="#d"/><linearGradient id="fh" x1="-8.901" y1="1.711" x2="-9.513" y2="1.102" xlink:href="#p"/><linearGradient id="fi" x1="-6.164" y1="1.136" x2="-5.209" y2="1.136" xlink:href="#f"/><linearGradient id="fj" x1="-4.097" y1="4.382" x2="-3.092" y2="4.382" xlink:href="#d"/><linearGradient id="fk" x1="-7.224" y1="2.526" x2="-6.161" y2="2.526" xlink:href="#e"/><linearGradient id="fl" x1="-3.326" y1="2.424" x2="-2.288" y2="2.424" xlink:href="#f"/><linearGradient id="fm" x1="-8.906" y1="4.376" x2="-7.068" y2="4.376" xlink:href="#p"/><linearGradient id="fn" x1="-4.612" y1="9.932" x2="-3.66" y2="9.932" xlink:href="#e"/><linearGradient id="fo" x1="-4.362" y1="4.001" x2="-3.266" y2="4.001" xlink:href="#f"/><linearGradient id="fp" x1="-1.913" y1="2.982" x2="-2.022" y2="1.833" xlink:href="#e"/><linearGradient id="fq" x1="-2.933" y1="2.071" x2="-2.462" y2="2.66" xlink:href="#p"/><linearGradient id="fr" x1="-6.953" y1="6.092" x2="-5.891" y2="6.092" xlink:href="#d"/><linearGradient id="fs" x1="-4.315" y1="2.708" x2="-4.871" y2="2.109" xlink:href="#p"/><linearGradient id="ft" x1="-2.071" y1="2.015" x2="-1.513" y2="2.015" xlink:href="#f"/><linearGradient id="fu" x1="-0.925" y1="3.869" x2="-1.014" y2="2.515" xlink:href="#e"/><linearGradient id="fv" x1="-1.437" y1="2.614" x2="-1.081" y2="3.252" xlink:href="#p"/><linearGradient id="fw" x1="-6.218" y1="6.635" x2="-5.067" y2="6.635" xlink:href="#d"/><linearGradient id="fx" x1="-2.016" y1="3.304" x2="-2.411" y2="2.655" xlink:href="#p"/><linearGradient id="fy" x1="-1.232" y1="2.633" x2="-0.764" y2="2.633" xlink:href="#f"/><linearGradient id="fz" x1="-3.768" y1="4.895" x2="-2.485" y2="4.895" xlink:href="#d"/><linearGradient id="ga" x1="-9.734" y1="4.004" x2="-7.746" y2="4.004" xlink:href="#e"/><linearGradient id="gb" x1="-3.642" y1="3.152" x2="-2.072" y2="3.152" xlink:href="#f"/><linearGradient id="gc" x1="3.911" y1="4.351" x2="4.746" y2="4.351" xlink:href="#p"/><linearGradient id="gd" x1="6.59" y1="1.335" x2="8.192" y2="1.335" xlink:href="#e"/><linearGradient id="ge" x1="3.706" y1="1.601" x2="4.674" y2="1.601" xlink:href="#f"/><linearGradient id="gf" x1="5.485" y1="1.841" x2="5.367" y2="0.765" xlink:href="#e"/><linearGradient id="gg" x1="4.12" y1="1.266" x2="4.429" y2="1.972" xlink:href="#p"/><linearGradient id="gh" x1="7.928" y1="1.452" x2="8.845" y2="1.452" xlink:href="#d"/><linearGradient id="gi" x1="4.181" y1="2.965" x2="3.955" y2="1.917" xlink:href="#p"/><linearGradient id="gj" x1="3.746" y1="1.099" x2="4.286" y2="1.099" xlink:href="#f"/><linearGradient id="gk" x1="3.816" y1="2.407" x2="4.997" y2="2.407" xlink:href="#d"/><linearGradient id="gl" x1="4" y1="6.05" x2="4.754" y2="6.05" xlink:href="#e"/><linearGradient id="gm" x1="2.875" y1="2.214" x2="3.904" y2="2.214" xlink:href="#f"/><linearGradient id="gn" x1="6.068" y1="-4.663" x2="7.08" y2="-4.663" xlink:href="#p"/><linearGradient id="go" x1="5.968" y1="-10.002" x2="6.959" y2="-10.002" xlink:href="#e"/><linearGradient id="gp" x1="5.053" y1="-2.879" x2="6.057" y2="-2.879" xlink:href="#f"/><linearGradient id="gq" x1="4.263" y1="-7.256" x2="5.262" y2="-7.256" xlink:href="#d"/><linearGradient id="gr" x1="6.484" y1="-2.553" x2="7.491" y2="-2.553" xlink:href="#e"/><linearGradient id="gs" x1="3.526" y1="-2.423" x2="4.529" y2="-2.423" xlink:href="#f"/><linearGradient id="gt" x1="-0.001" y1="0.5" x2="0.999" y2="0.5" xlink:href="#a"/><linearGradient id="gu" x1="0" y1="0.5" x2="1" y2="0.5" xlink:href="#a"/><linearGradient id="gv" x1="0.002" y1="0.498" x2="1.001" y2="0.498" gradientUnits="objectBoundingBox"><stop offset="0" stop-color="#925c32" stop-opacity="0"/><stop offset="1" stop-color="#c3976c"/></linearGradient><linearGradient id="gw" x1="-12.343" y1="0.068" x2="-11.066" y2="0.068" xlink:href="#d"/><linearGradient id="gx" x1="-11.932" y1="1.141" x2="-11.19" y2="1.141" xlink:href="#e"/><linearGradient id="gy" x1="-7.899" y1="0.398" x2="-6.822" y2="0.398" xlink:href="#f"/><linearGradient id="gz" x1="9.649" y1="-12.466" x2="10.533" y2="-12.466" xlink:href="#p"/><linearGradient id="ha" x1="25.394" y1="-6.651" x2="27.721" y2="-6.651" xlink:href="#e"/><linearGradient id="hb" x1="9.144" y1="-5.986" x2="10.168" y2="-5.986" xlink:href="#f"/><linearGradient id="hc" x1="11.609" y1="-19.297" x2="12.078" y2="-19.297" xlink:href="#d"/><linearGradient id="hd" x1="16.893" y1="-12.673" x2="17.722" y2="-12.673" xlink:href="#e"/><linearGradient id="he" x1="20.947" y1="-20.421" x2="21.777" y2="-20.421" xlink:href="#e"/><linearGradient id="hf" x1="21.391" y1="-23.225" x2="22.095" y2="-23.225" xlink:href="#d"/><linearGradient id="hg" x1="9.026" y1="-10.041" x2="9.681" y2="-10.041" xlink:href="#f"/><linearGradient id="hh" x1="11.325" y1="-4.939" x2="12.998" y2="-4.939" xlink:href="#d"/><linearGradient id="hi" x1="8.441" y1="-13.294" x2="9.189" y2="-13.294" xlink:href="#e"/><linearGradient id="hj" x1="6.746" y1="-4.521" x2="8.016" y2="-4.521" xlink:href="#f"/><linearGradient id="hk" x1="-5.274" y1="-34.988" x2="-5.344" y2="-41.078" xlink:href="#e"/><linearGradient id="hl" x1="-5.86" y1="-14.446" x2="-5.611" y2="-13.153" xlink:href="#p"/><linearGradient id="hm" x1="-25.499" y1="-20.33" x2="-24.356" y2="-20.33" xlink:href="#d"/><linearGradient id="hn" x1="-6.701" y1="-13.048" x2="-6.911" y2="-14.363" xlink:href="#p"/><linearGradient id="ho" x1="-4.66" y1="-13.508" x2="-4.314" y2="-13.508" xlink:href="#f"/><linearGradient id="hp" x1="-16.498" y1="-8.588" x2="-15.575" y2="-8.588" xlink:href="#p"/><linearGradient id="hq" x1="-50.368" y1="-5.293" x2="-47.659" y2="-5.293" xlink:href="#e"/><linearGradient id="hr" x1="-15.667" y1="-4.693" x2="-14.598" y2="-4.693" xlink:href="#f"/></defs><g transform="translate(-308.8 -309.5)"><g transform="translate(313.46 309.5)"><path class="a" d="M442.443,372.5l-83.2-8.43-3.906-3.906L324.6,329.529a28.948,28.948,0,0,1,9.8-15.077l7.984-4.352,7.025.651,85.633,4.009s9.937-.822,12.713,7.333,1.782,24.638,1.782,24.638-.891,20.286-6.271,25.871" transform="translate(-323.846 -309.894)"/><path class="b" d="M595.4,344.874s5.688-19.977,19.806-21.074c0,0,11.411-.1,11.685,12.233,0,0,2.056,19.189-.583,31.286,0,0-1.885,12.336-5.688,14.632l-.171-1.062" transform="translate(-501.852 -318.9)"/><path class="c" d="M608,351.786l19.5,28.133s4.112-15.557,2.707-26.248a65.566,65.566,0,0,0-3.016-17.682C627.155,335.955,616.087,329.924,608,351.786Z" transform="translate(-510.134 -326.395)"/><path class="d" d="M441.681,315.864s-7.744,4.249-12.713,16.893l-83.268-4.8s4.557-9.321,19.155-15.66Z" transform="translate(-337.716 -311.341)"/><path class="b" d="M340.6,327.562h1.748a21.844,21.844,0,0,1,9.252-10.074c6.922-3.941,8.875-5.277,8.772-5.346s-3.358,0-3.358,0-12.439,5.825-15.934,14.563" transform="translate(-334.363 -311.216)"/><path class="b" d="M325.8,366.2l33.581,34.1,83.577,9.8.891-1.3L417.7,372.642" transform="translate(-324.635 -346.771)"/><path class="e" d="M343.6,375.3l28.613,28.441,78.539,8.978-21.931-31.628" transform="translate(-336.335 -352.753)"/><path class="f" d="M355.192,328.342c-1.062-8.841,8.738-12.4,15.728-13.707a61.01,61.01,0,0,1,13.227-.754,54.613,54.613,0,0,1,6.682.377c2.707.377,5.448,1.268,8.155,1.234,2.262-.034,4.523-.069,6.785-.206,2.878-.206,5.757-.48,8.6-.822L364.307,312.1s-13.947,6.237-18.607,15.454" transform="translate(-337.716 -311.209)"/><path class="f" d="M635.541,367.738a10.459,10.459,0,0,0,4.078-.959c3.667-1.748,4.763-6.065,5.071-9.766a47.7,47.7,0,0,0-1.1-15.591c-.788-3.153-3.221-2.776-5.86-2.81a22.232,22.232,0,0,1-4.934-.857,14.474,14.474,0,0,1,4.763-2.639,7.559,7.559,0,0,1,5.346.274,1.431,1.431,0,0,1,.514.377,1.232,1.232,0,0,1,.24.617c1.953,7.539,3.872,15.557,3.084,23.4,0,0-.925,15.626-2.981,19.875" transform="translate(-526.436 -326.104)"/><path class="g" d="M466.786,349.823,400,345.3l67.574,3.084" transform="translate(-373.409 -333.033)"/><path class="g" d="M378.1,321.7l73.982,2.056L380.225,320.6" transform="translate(-359.013 -316.796)"/><path class="g" d="M643.9,349.3l10.177,18.675v-4.215" transform="translate(-533.732 -335.662)"/><path class="h" d="M406.8,365.467l1.919-3.667,24.466,1.4v3.872" transform="translate(-377.879 -343.879)"/><path class="h" d="M359.705,362.481l1.165-3.529-11.205-.651-1.165,3.324" transform="translate(-339.556 -341.578)"/><g transform="translate(0 0)"><path class="i" d="M425.769,379.328,338.8,373.4l30.086,29.812.137.137,79.567,8.635L425.906,379.5Zm-84.4-4.8,16.345,1.131,15.112,14.529-3.8,11.753Zm105.165,36.22-76.655-8.327,3.838-11.891,63.154,6.374Zm-72.92-21.177-14.358-13.81,66,4.523,10.9,15.591Z" transform="translate(-333.18 -351.504)"/><path class="i" d="M622.14,332.9a7.411,7.411,0,0,0-2.125.308c-8.087,2.3-12.439,12.542-13.947,16.859l-.069.24,21.828,31.251.308-.891c4.934-13.33,3.358-31.251,1.953-40.777A8.125,8.125,0,0,0,622.14,332.9Zm-1.85,1.234a6.658,6.658,0,0,1,4.763.377c.445.959,2.913,6.853,3.5,17.1-3.735-6.476-9.32-14.563-10.691-16.517A13.829,13.829,0,0,1,620.289,334.134ZM617,335.607c1.371,1.987,7.95,11.479,11.616,18.161a85.172,85.172,0,0,1-.583,12.439c-7.847-8.5-15.968-22.136-17.133-24.089A20.9,20.9,0,0,1,617,335.607ZM607.062,350.1a41.128,41.128,0,0,1,3.255-7.059c1.885,3.153,9.937,16.38,17.579,24.432-.411,3.084-.994,6.408-1.782,9.9Zm20.492,29.3-.651-.925c3.5-14.872,3.05-26.146,2.056-33a47.723,47.723,0,0,0-2.467-10.074,7.3,7.3,0,0,1,2.639,4.592C630.466,349.211,632.043,366.379,627.554,379.4Z" transform="translate(-508.82 -324.882)"/><path class="i" d="M447.3,323.961a11.875,11.875,0,0,0-5.311-8.258,11.715,11.715,0,0,0-6.339-1.885h0L341.11,309.5h-.069l-.069.034a26.948,26.948,0,0,0-14.906,11.445,28.888,28.888,0,0,0-3.5,7.607l-.171.651,34.781,34.438,84.467,9.184.548.069.308-.548C450.729,357.987,449.05,335.885,447.3,323.961Zm-22.1-9.629q-1.234.822-2.364,1.748c-24.946-.685-68.431-2.673-77.717-3.084,1.4-.72,2.947-1.439,4.592-2.09Zm-90.6,6.339a37.458,37.458,0,0,1,8.875-6.819c3.016.137,50.955,2.364,78.3,3.153a30.667,30.667,0,0,0-5.654,7.23C386.307,322.453,342.035,320.945,334.6,320.671Zm81.007,4.523a36.008,36.008,0,0,0-2.227,5.174L331.035,325.5a19.694,19.694,0,0,1,2.707-3.906C337.649,321.768,384.354,323.344,415.605,325.194Zm-68.122-14.426c-12.816,5.688-16.722,13.021-17.476,14.7l-.583-.034c3.8-9.458,15.865-14.289,17-14.7Zm-6.339-.274,3.015.137c-4.043,1.85-12.919,6.751-15.9,15.112l-.206.617L414.1,331.4l.1-.377c.034-.1,3.05-11.1,12.713-16.619l4.557.206c-4.592,1.679-8.738,5.62-12.028,11.479a45.612,45.612,0,0,0-3.769,8.807l-92.143-6.305C324.353,325.948,328.465,314.4,341.144,310.494Zm16.448,52.222-33.376-33.067,91.595,6.237,25.049,35.877Zm84.228,8.738L431.3,356.411l-14.735-21.074c.583-1.988,5.38-17.065,16.242-20.115a10.555,10.555,0,0,1,8.635,1.336,10.858,10.858,0,0,1,4.866,7.573C448.056,335.817,449.735,357.371,441.82,371.454Z" transform="translate(-322.4 -309.5)"/></g></g><g transform="translate(316.27 355.486)"><g transform="translate(0 6.339)"><path class="j" d="M361.743,490.438l-21.143-5.38,9.937-3.358Z" transform="translate(-337.173 -475.018)"/><path class="k" d="M380.805,478.277,371.519,463.2l-1.919,6.339Z" transform="translate(-356.236 -462.857)"/><path class="l" d="M344.687,474.4,331.7,470.6l3.05,7.162Z" transform="translate(-331.323 -467.722)"/><path class="m" d="M344.687,469.539l-12.987-3.8,14.906-2.536Z" transform="translate(-331.323 -462.857)"/><path class="n" d="M335.841,478.274l7.059-3.015-9.8-3.358,12.3,3.392" transform="translate(-332.243 -468.576)"/><path class="n" d="M379.777,477.407l-8.909-7.779.754-5.448-.24-.48-1.782,6.237" transform="translate(-356.236 -463.186)"/><path class="o" d="M334.129,472.549,355,477.826l.788.206-.411-.685-9.115-14.8-.206-.343-14.975,2.57-.48.069,3.255,7.641Zm11.856-9.355,8.155,13.227-9.835-7.641ZM353.936,477l-18.915-4.8,8.875-3.015Zm-8.43-14.118-1.713,5.654-11.548-3.392Zm-2.467,6.031L334.2,471.9l-2.741-6.408Z" transform="translate(-330.6 -462.2)"/></g><g transform="translate(50.715 16.208)"><path class="p" d="M479.6,527.928l-.1-21.828,5.757,8.807Z" transform="translate(-479.192 -500.926)"/><path class="q" d="M479.8,544.821l12.267-12.747-6.613-.274Z" transform="translate(-479.389 -517.819)"/><path class="l" d="M485.257,505.835,485.7,492.3l-6.2,4.729Z" transform="translate(-479.192 -491.855)"/><path class="m" d="M496.3,505.835l.445-13.535,6.168,13.809Z" transform="translate(-490.235 -491.855)"/><path class="n" d="M480.6,498.215l4.695,6.1L486.117,494l-.206,12.747" transform="translate(-479.915 -492.972)"/><path class="n" d="M482.3,543.519l5.346-10.554,5.448-.651.411-.343-6.476-.171" transform="translate(-481.032 -517.819)"/><path class="r" d="M478.634,496.346,478.7,517.9v.788l.548-.583L491.313,505.6l.274-.274-6.2-13.878-.206-.445-6.579,5.071Zm12.028,9.149L479.868,516.7l4.969-11.445Zm-11.377,11.171-.069-19.532,5.14,7.847Zm11.582-11.719-5.894-.24.411-12.062Zm-6.476-.891-5.106-7.813,5.517-4.249Z" transform="translate(-478.6 -491)"/></g><g transform="translate(43.45 33.204)"><path class="s" d="M459.3,556.44l7.367-11.24,2.262,5.62Z" transform="translate(-458.649 -543.624)"/><path class="m" d="M459.3,567.22l15.591-4.181-5.962-1.439Z" transform="translate(-458.649 -554.404)"/><path class="t" d="M483.062,548.388,488.1,541.5l-7.3,1.268Z" transform="translate(-472.782 -541.192)"/><path class="l" d="M487.4,548.388l5.037-6.888.925,8.327Z" transform="translate(-477.12 -541.192)"/><path class="n" d="M468.342,547l.788,4.181-7.23,5.62,8.738-4.9" transform="translate(-460.358 -544.807)"/><path class="u" d="M473.026,541.08l-.069-.48-7.71,1.336-.206.308L457.4,553.93l.788-.206,15.386-4.146.377-.1Zm-.959.24-4.318,5.928-1.919-4.832Zm-6.682,1.473,1.953,4.9-8.4,4.9ZM460,552.628l7.71-4.523,4.8,1.131Zm8.155-5,4.386-5.962.822,7.2Z" transform="translate(-457.4 -540.6)"/></g><g transform="translate(38.893 0.48)"><path class="v" d="M469.613,447l-2.364,13.261L463,455.978Z" transform="translate(-456.524 -446.349)"/><path class="m" d="M457.979,447,445.3,457.006l6.065-1.028Z" transform="translate(-444.889 -446.349)"/><path class="w" d="M459.253,473.2l-1.953,8.293,6.2-4.009Z" transform="translate(-452.777 -463.571)"/><path class="l" d="M451.365,473.2l-1.953,8.293-4.112-7.265Z" transform="translate(-444.889 -463.571)"/><path class="n" d="M467.143,461.848l-2.4-3.564L469.2,450.3l-6.1,7.95" transform="translate(-456.589 -448.518)"/><path class="x" d="M448.281,463.022l.24.411,6.545-4.249.069-.343,2.433-13.741-.651.514-12.507,9.869-.308.24Zm.788-.617,1.645-7.162,3.667,3.7Zm5.585-3.975-3.735-3.735,5.757-7.813Zm1.062-11.171-5.311,7.2-4.866.822Zm-5.517,7.813-1.679,7.2-3.564-6.305Z" transform="translate(-444.1 -445.1)"/></g><g transform="translate(14.289 14.084)"><path class="y" d="M374.1,503.7l13.707,9.046L383.8,503.7Z" transform="translate(-373.483 -497.224)"/><path class="l" d="M402.4,503.7l6.168,3.255-2.159,5.791Z" transform="translate(-392.086 -497.224)"/><path class="m" d="M402.4,492l4.009-6.1,2.159,9.355Z" transform="translate(-392.086 -485.523)"/><path class="z" d="M374.1,492l13.707-6.1L383.8,492Z" transform="translate(-373.483 -485.523)"/><path class="n" d="M406.075,488l-2.33,5,4.215,3.084v.548l-5.86-3.221,3.427-4.934" transform="translate(-391.889 -486.903)"/><path class="aa" d="M386.829,484.8l-.445.206-13.5,5.962-.583.24,14.015,9.252.411.274,2.3-6.2-.069-.274Zm-.343,1.1,1.85,8.121-5.346-2.844Zm-.617-.069-3.358,5.072-.069.1h-8.224Zm-12.028,5.723h8.6l3.564,8.018Zm12.781,8.018-3.392-7.676,5.243,2.776Z" transform="translate(-372.3 -484.8)"/></g><g transform="translate(47.528 5.243)"><path class="ab" d="M473.767,485.886,470.1,471.7l6.819,3.906Z" transform="translate(-469.826 -467.348)"/><path class="ac" d="M480.8,493.38l8.224-9.355-5.071-.925Z" transform="translate(-476.859 -474.842)"/><path class="ad" d="M476.919,467.85l-3.153-7.95-3.667,4.043Z" transform="translate(-469.826 -459.592)"/><path class="m" d="M490,472.911l2.639-5.311,2.433,6.237Z" transform="translate(-482.907 -464.653)"/><path class="ae" d="M480.8,459.9l3.153,7.95,2.639-5.311Z" transform="translate(-476.859 -459.592)"/><path class="n" d="M492.539,469.6l-1.131,3.8,3.153,1.4-4.66-.72" transform="translate(-482.841 -465.968)"/><path class="af" d="M473.1,478.121l.411-.48,8.258-9.389-.137-.377-2.262-5.825-.1-.308-5.723-2.57-.377-.171-3.872,4.283.1.343Zm.788-1.748,2.673-8.7.034-.1.24.034,4.043.754Zm7.127-8.532-4.181-.788,2.159-4.42Zm-2.364-5.757-2.193,4.489-2.673-6.716Zm-5.517-2.227,2.707,6.785-5.825-3.358Zm2.947,7.539-2.81,9.115-3.221-12.61Z" transform="translate(-469.3 -459)"/></g><g transform="translate(4.866 20.32)"><path class="ag" d="M349.332,529.821,345.7,515.6l6.819,3.941Z" transform="translate(-345.392 -511.282)"/><path class="ah" d="M356.3,537.38l8.224-9.355-5.037-.925Z" transform="translate(-352.359 -518.842)"/><path class="ai" d="M352.519,511.85l-3.187-7.95-3.632,4.009Z" transform="translate(-345.392 -503.592)"/><path class="m" d="M365.6,516.846l2.6-5.346,2.433,6.271Z" transform="translate(-358.473 -508.587)"/><path class="aj" d="M356.3,503.9l3.187,7.95,2.6-5.346Z" transform="translate(-352.359 -503.592)"/><path class="n" d="M368.039,513.6l-1.131,3.769,3.153,1.4-4.66-.685" transform="translate(-358.341 -509.968)"/><path class="ak" d="M348.6,522.121l.411-.48,8.258-9.389-.137-.377-2.262-5.825-.1-.308-5.723-2.57-.377-.171-3.872,4.283.1.343Zm.788-1.748,2.673-8.7.034-.1.24.034,4.043.754Zm7.127-8.567-4.181-.788,2.159-4.42Zm-2.364-5.757-2.193,4.489-2.673-6.716Zm-5.483-2.227,2.707,6.785-5.825-3.358Zm2.913,7.573-2.81,9.115-3.221-12.61Z" transform="translate(-344.8 -503)"/></g><g transform="translate(27.345 6.751)"><path class="al" d="M439.686,516.065,435.3,485.156l5.037-2.056Z" transform="translate(-426.768 -476.349)"/><path class="am" d="M423.91,520.009,411.3,493.041l8.224-3.941Z" transform="translate(-410.992 -480.293)"/><path class="an" d="M411.3,493.041l9.389,4.283-1.165-8.224Z" transform="translate(-410.992 -480.293)"/><path class="m" d="M411.3,477.068l8.224-12.267v8.327Z" transform="translate(-410.992 -464.32)"/><path class="l" d="M435.3,464.8v8.327l5.037-2.056Z" transform="translate(-426.768 -464.32)"/><path class="ao" d="M423.91,527.568l-7.4-4.763L411.3,500.6" transform="translate(-410.992 -487.853)"/><path class="n" d="M421.6,496.879l-1.816-6-6.579,2.125,7.607-3.906" transform="translate(-412.241 -480.293)"/><path class="n" d="M413.9,508.1l9.184,21.52-4.592-2.056,6.956,4.832-.24-.72" transform="translate(-412.701 -492.783)"/><path class="ap" d="M423.593,503.629v-.514l.651-32.69v-.377L418.9,463.4l-.308.445L410.5,475.873l-.1.171.034.137,5.209,22.2.034.1,7.4,4.763Zm-.48-4.009-2.776-19.5-1.1-7.779,4.455-1.816ZM419.207,464.7l4.318,5.346-4.318,1.748Zm-.583.1V472h-.034l-7.093,3.392Zm.069,7.813,1.028,7.367-8.4-3.838Zm-2.5,25.563L411.6,478.717l11.034,23.644Zm-4.9-21.485,8.567,3.941L422.8,501.3Z" transform="translate(-410.4 -463.4)"/></g><g transform="translate(15.454 23.438)"><path class="aq" d="M377.7,513.274,399.494,513l-8.7,5.791Z" transform="translate(-377.015 -512.692)"/><path class="ar" d="M377.7,513.8l12.85,12.165.24-6.648Z" transform="translate(-377.015 -513.217)"/><path class="l" d="M415.9,518.791l13.535.343L424.6,513Z" transform="translate(-402.125 -512.692)"/><path class="m" d="M415.44,529.9l13.535.343L415.2,536.548Z" transform="translate(-401.665 -523.801)"/><path class="n" d="M424.964,514.1l-6.065,4.729,10.349.72-12.747-.1" transform="translate(-402.519 -513.415)"/><path class="n" d="M381.6,516.3l10.588,5.209.685,5.483.343.411.137-6.476" transform="translate(-379.578 -514.861)"/><path class="as" d="M398.042,512.134l-21.554.274H375.7l.583.548,12.644,11.959.274.274,13.809-6.339.445-.206L398.35,512.1ZM389,524.23l-11.274-10.691,11.479,4.866Zm-11.274-11.308,19.532-.24-7.813,5.209ZM389.544,524.4l.206-5.928,12.062.308Zm.822-6.442,7.779-5.174,4.283,5.483Z" transform="translate(-375.7 -512.1)"/></g><g transform="translate(35.329 11.685)"><path class="at" d="M435.1,478.9l6.751,15.009,1.439-9.8Z" transform="translate(-434.62 -478.523)"/><path class="l" d="M456.239,494.1l3.461,6.031-4.9,3.769Z" transform="translate(-447.57 -488.515)"/><path class="m" d="M459,488.381l6.648-2.981-3.187,9.012Z" transform="translate(-450.331 -482.796)"/><path class="au" d="M435.1,478.9l14.837,2.227-6.648,2.981Z" transform="translate(-434.62 -478.523)"/><path class="n" d="M464.971,486.9l-4.66,2.981,1.885,4.866-.274.445-3.221-5.825L464.251,487" transform="translate(-450.133 -483.782)"/><path class="av" d="M449.394,480.164l-.48-.069-14.6-2.193-.617-.1,6.888,15.317.206.445,5.243-4.009.1-.274Zm-.857.754-2.776,7.847-3.015-5.243Zm-.514-.377-5.517,2.467-.1.034-.24-.137-6.716-4.249ZM434.8,478.9l7.265,4.592-1.3,8.669Zm6.511,13.638,1.234-8.327,2.947,5.14Z" transform="translate(-433.7 -477.8)"/></g><g transform="translate(37.591 15.454)"><path class="aw" d="M451.8,539.041,464.65,510.6l5.346.959Z" transform="translate(-447.859 -503.13)"/><path class="ax" d="M451.8,536.938l3.8-29.538,9.046,1.1Z" transform="translate(-447.859 -501.026)"/><path class="ay" d="M462.9,507.4l5.62,8.669,3.427-7.573Z" transform="translate(-455.156 -501.026)"/><path class="m" d="M462.9,496.028l13.5-5.928-4.455,7.025Z" transform="translate(-455.156 -489.655)"/><path class="l" d="M493.755,490.1l-4.455,7.025,5.346.959Z" transform="translate(-472.509 -489.655)"/><path class="az" d="M444.767,536.938l-3.667-7.95,7.47-21.588" transform="translate(-440.826 -501.026)"/><path class="n" d="M469.537,516.144l1.679-6.031L464.5,508.4l8.532.754" transform="translate(-456.207 -501.684)"/><path class="n" d="M448.545,515.2l-3.769,23.1L442,534.081l3.29,7.847.206-.788" transform="translate(-441.418 -506.154)"/><path class="ba" d="M444.206,525.294l.274-.445L462.5,497.572l.206-.308-.959-8.464-.48.206-13.261,5.825-.171.069-.034.137-7.47,21.554-.034.1,3.7,7.984Zm1.748-3.632,8.087-17.956,3.221-7.162,4.729.857Zm15.386-31.594.788,6.819-4.592-.822Zm-.548-.206-3.838,6.1h-.034l-7.813-.925Zm-4.112,6.613-3.05,6.785-5-7.744Zm-15.8,20.252,6.545-18.915L444.1,523.718Zm7.333-20.766,5.106,7.916L444.755,522.9Z" transform="translate(-440.3 -488.8)"/></g><g transform="translate(41.326 4.42)"><path class="bb" d="M457.6,500.018,476.173,474.9l5.037,2.09Z" transform="translate(-455.407 -468.629)"/><path class="bc" d="M457.6,494.364l9.937-28.064,8.635,2.947Z" transform="translate(-455.407 -462.976)"/><path class="bd" d="M486.6,466.3l3.667,9.663,4.969-6.716Z" transform="translate(-474.47 -462.976)"/><path class="m" d="M486.6,460.647l14.461-2.947-5.825,5.894Z" transform="translate(-474.47 -457.323)"/><path class="l" d="M517.625,457.7l-5.825,5.894,5.037,2.09Z" transform="translate(-491.034 -457.323)"/><path class="be" d="M453.919,494.364,452,485.8l11.856-19.5" transform="translate(-451.726 -462.976)"/><path class="n" d="M491.29,476.235l2.913-5.551L488,467.6l8.155,2.536" transform="translate(-475.39 -463.831)"/><path class="n" d="M463.283,473.5l-8.532,21.759-1.85-4.66,1.576,8.327.343-.685" transform="translate(-452.317 -467.709)"/><path class="bf" d="M453.222,488.537l.377-.377L477,465.3l.274-.24.857-8.464-.514.1L463.4,459.615l-.206.034-.069.137-11.856,19.5-.069.1,1.919,8.6Zm2.467-3.187,11.685-15.831,4.66-6.305,4.455,1.816Zm21.725-27.619-.685,6.819-4.318-1.782Zm-.48-.308-5.037,5.14h-.034l-7.436-2.57Zm-5.448,5.62L467.065,469l-3.255-8.635Zm-19.7,16.448,10.383-17.1-8.7,24.6Zm11.582-18.744,3.324,8.807-12.4,16.791Z" transform="translate(-451.2 -456.6)"/></g><g transform="translate(34.575 15.043)"><path class="bg" d="M432.8,489.4l18.538,11.445-10.451.24Z" transform="translate(-432.355 -488.783)"/><path class="bh" d="M432.8,489.4l4.318,17.168,3.769-5.483Z" transform="translate(-432.355 -488.783)"/><path class="l" d="M456.4,523.04l11.24,7.5-.788-7.744Z" transform="translate(-447.868 -510.738)"/><path class="m" d="M449.169,523.5l11.24,7.5L445.4,528.983Z" transform="translate(-440.637 -511.198)"/><path class="n" d="M467.006,523.6l-7.642.754,8.327,6.168L457,523.6" transform="translate(-448.262 -511.264)"/><path class="n" d="M434.7,493.6l6.134,10.074-2.33,4.969.069.548,3.564-5.414" transform="translate(-433.603 -491.544)"/><path class="bi" d="M450.518,499.319l-18.333-11.308-.685-.411.206.754,4.283,16.859.1.377,15.077,2.056.48.069-.822-8.258ZM436.4,504.7l-3.8-15.043L439.69,499.9Zm-3.461-15.557,16.619,10.246-9.389.206Zm3.838,16,3.324-4.9,10.006,6.716Zm4.146-5,9.321-.206.685,6.922Z" transform="translate(-431.5 -487.6)"/></g><g transform="translate(30.155 5.38)"><path class="bj" d="M436.079,460.4,419.7,461.839l8.807,4.592Z" transform="translate(-419.323 -460.057)"/><path class="l" d="M428.507,469.192l-6.888,1.3L419.7,464.6Z" transform="translate(-419.323 -462.818)"/><path class="m" d="M432.188,478l.617,7.265-7.5-5.962Z" transform="translate(-423.004 -471.626)"/><path class="bk" d="M452.973,460.4l-6.956,13.3-.617-7.265Z" transform="translate(-436.217 -460.057)"/><path class="n" d="M433.119,484.451l-1.268-5.38-5.209.171-.343-.411,6.579-1.131.377,6" transform="translate(-423.661 -471.429)"/><path class="bl" d="M428.5,473.449l.24-.445,6.853-13.056.274-.548-16.756,1.474-.514.034,2.056,6.271.24.171Zm-.445-1.028-6.511-5.174,5.962-1.1Zm.548-.377-.514-6.031v-.1l.206-.171,6.237-4.934Zm5.86-11.959-6.716,5.346-7.779-4.078Zm-15.009,1.679,7.436,3.906-5.825,1.1Z" transform="translate(-418.6 -459.4)"/></g><g transform="translate(10.417 0)"><path class="bm" d="M362.5,447.2l22.685,21.485-2.673,4.729Z" transform="translate(-361.986 -446.001)"/><path class="bn" d="M362.5,447.2l26.659,13.3-3.975,8.19Z" transform="translate(-361.986 -446.001)"/><path class="bo" d="M421.106,486,411.1,488.467l6.031,5.723Z" transform="translate(-393.932 -471.505)"/><path class="m" d="M432.675,486l1.2,14.7L428.7,494.19Z" transform="translate(-405.501 -471.505)"/><path class="l" d="M428.747,516.411l-5.174-6.511-2.673,4.729Z" transform="translate(-400.374 -487.215)"/><path class="bp" d="M362.5,445.557l8.738-.857,17.922,14.152" transform="translate(-361.986 -444.357)"/><path class="n" d="M412.7,489.393l5.174,3.564,3.769-5.757-3.5,7.779" transform="translate(-394.984 -472.294)"/><path class="n" d="M387.192,457.97l-20.594-11.1,4.9-1.268-8.5.548.651.411" transform="translate(-362.315 -444.949)"/><path class="bq" d="M361,444.694l.308.411,19.84,25.974.206.274,8.327,1.85-.034-.548-1.165-14.461-.034-.206-.1-.1-17.887-14.118-.1-.069-8.772.857Zm2.844,2.81,14.289,13.535,5.688,5.38-2.364,4.181Zm24.809,24.946-6.682-1.508,2.262-4.043Zm.377-.48-4.489-5.62v-.034h0L388,459.223Zm-4.9-6.065-5.38-5.106,8.944-2.193Zm-13.947-21.554,15.694,12.4-23.37-11.616Zm17.2,13.741-9.149,2.262L363.09,446Z" transform="translate(-361 -443.7)"/></g><g transform="translate(18.915 1.953)"><path class="br" d="M425.993,454.8,409.1,468.575l3.221-9.972Z" transform="translate(-401.116 -452.95)"/><path class="bs" d="M424.547,451.842,406.9,450.3l3.975,5.346Z" transform="translate(-399.67 -449.992)"/><path class="l" d="M397.728,465.9,386.9,474.055l7.607,1.816Z" transform="translate(-386.523 -460.246)"/><path class="m" d="M397.728,455.646,386.9,463.8l6.853-13.5Z" transform="translate(-386.523 -449.992)"/><path class="n" d="M395.551,475.858l1.816-7.47-8.567,5.86,10.04-7.847" transform="translate(-387.772 -460.575)"/><path class="n" d="M423.1,452.374l-11.548,2.5-3.941-3.838-.514-.137,3.941,5.174" transform="translate(-399.801 -450.386)"/><path class="bt" d="M394.058,465.128l16.688-13.6.617-.514-.788-.069-17.339-1.508-.411-.034-6.819,13.57-.206.411,8.087,1.919Zm-.445-15.077,15.489,1.336-11.993,3.358Zm15.831,1.816L394.332,464.2l2.878-8.944Zm-16.379-1.645,3.529,4.763-9.629,7.265Zm3.392,5.585-2.878,8.875-6.751-1.611Z" transform="translate(-385.8 -449.4)"/></g><g transform="translate(19.429 17.442)"><path class="bu" d="M407.132,503.339,392.5,495.8l4.969,8.567Z" transform="translate(-390.718 -495.389)"/><path class="l" d="M394.576,504.367l-6.476-2.6,1.508-5.962Z" transform="translate(-387.826 -495.389)"/><path class="m" d="M394.576,515.8l-3.324,6.476L388.1,513.2Z" transform="translate(-387.826 -506.826)"/><path class="bv" d="M410.287,517.8,397.3,525.3l3.324-6.476Z" transform="translate(-393.873 -509.85)"/><path class="n" d="M392.076,521.5l1.782-5.209-4.489-2.639-.069-.548,6.168,2.57-2.878,5.277" transform="translate(-388.615 -506.761)"/><path class="bw" d="M390.555,510.465l.411-.24,12.781-7.367.548-.308-14.94-7.71-.445-.24-1.611,6.408.1.274Zm.206-1.131-2.707-7.847,5.62,2.262Zm.651-.034,2.776-5.38.034-.1.274-.034,7.916-.857Zm11.342-6.956-8.532.925-4.386-7.607Zm-13.57-6.613L393.4,503l-5.483-2.193Z" transform="translate(-387.3 -494.6)"/></g><g transform="translate(6.682 11)"><path class="bx" d="M388.957,500.212l-21.657,2.6,8.053-6.716Z" transform="translate(-361.406 -489.144)"/><path class="by" d="M403.484,487.526,389.4,476.8l.48,6.613Z" transform="translate(-375.933 -476.457)"/><path class="l" d="M364.9,496.1l-13.5,1.131,5.448,5.585Z" transform="translate(-350.954 -489.144)"/><path class="m" d="M364.9,483.414l-13.5,1.131,13.021-7.744Z" transform="translate(-350.954 -476.457)"/><path class="n" d="M358.066,502.637l5.517-5.346-10.383.343,12.679-1.234" transform="translate(-352.138 -489.341)"/><path class="n" d="M401.947,487.2l-11.1-4.044-1.268-5.38-.377-.377.548,6.476" transform="translate(-375.802 -476.852)"/><path class="bz" d="M356.165,489.747l21.382-2.57.788-.1-.617-.48L363.875,476.04l-.308-.24-13.056,7.779-.411.24,5.791,5.962Zm7.71-13.021,12.37,9.423-11.925-3.6Zm12.4,10.04-19.361,2.33,7.2-6Zm-12.953-10.143.445,5.894-12.028.994Zm-.137,6.511-7.162,5.962-4.866-5Z" transform="translate(-350.1 -475.8)"/></g></g><g transform="translate(358.555 350.586)"><g transform="translate(40.024 16.414)"><path class="ca" d="M573,484.851l20.731-6.751-6.614,8.155Z" transform="translate(-572.246 -477.826)"/><path class="cb" d="M573,497.8l15.865,7.813-1.748-6.408Z" transform="translate(-572.246 -490.775)"/><path class="l" d="M614.2,486.255l13.021-3.7-6.408-4.455Z" transform="translate(-599.328 -477.826)"/><path class="m" d="M614.2,494.8l13.021-3.7-11.274,10.109Z" transform="translate(-599.328 -486.371)"/><path class="n" d="M621.176,479.3l-4.386,6.305,10.109-2.364-12.2,3.7" transform="translate(-599.657 -478.615)"/><path class="n" d="M577.4,499.1l11.651,1.85,2.3,5,.445.274-1.782-6.2" transform="translate(-575.138 -491.63)"/><path class="cc" d="M592.045,477.369l-20.491,6.682-.754.24.72.343,15.626,7.676.343.171L598.8,482.337l.343-.308-6.819-4.729Zm-5.037,14.255-13.947-6.853,12.4,1.234Zm-14.118-7.436,18.573-6.031-5.928,7.265Zm14.7,7.436-1.576-5.688,11.582-3.29Zm-1.131-6.408,5.894-7.265,5.723,3.941Z" transform="translate(-570.8 -477.3)"/></g><g transform="translate(2.981 18.71)"><path class="cd" d="M474,486.2l11.719,18.4-9.526-4.352Z" transform="translate(-470.128 -485.446)"/><path class="ce" d="M467.1,486.2l-3.6,17.339,5.791-3.29Z" transform="translate(-463.226 -485.446)"/><path class="l" d="M480.4,527.2l6.819,11.685,2.707-7.333Z" transform="translate(-474.335 -512.397)"/><path class="m" d="M469.291,527.2l6.819,11.685-12.61-8.4Z" transform="translate(-463.226 -512.397)"/><path class="n" d="M489.846,531.986l-7.23-2.673,4.8,9.183L480.8,527.6" transform="translate(-474.598 -512.66)"/><path class="n" d="M467.524,490.8l1.131,11.753-4.283,3.461-.171.514,5.585-3.29" transform="translate(-463.686 -488.47)"/><path class="cf" d="M478.428,502.881l-11.548-18.2-.445-.685-.171.788-3.5,17.031-.069.377,12.644,8.43.411.274,2.878-7.779Zm-15.043-1.336,3.153-15.214,1.919,12.3Zm3.667-15.489L477.537,502.5l-8.532-3.906Zm-3.529,16.071,5.14-2.947,6.065,10.417Zm5.928-2.707,8.5,3.906-2.4,6.511Z" transform="translate(-462.7 -484)"/></g><g transform="translate(0 12.61)"><path class="cg" d="M477.14,468.3l-.24,13.467L472,478.2Z" transform="translate(-465.832 -467.58)"/><path class="m" d="M465.965,468.3,455,480.191l5.825-1.987Z" transform="translate(-454.657 -467.58)"/><path class="ch" d="M470.883,497.2l-.583,8.5,5.483-4.934Z" transform="translate(-464.715 -486.577)"/><path class="l" d="M460.825,497.2l-.583,8.5L455,499.187Z" transform="translate(-454.657 -486.577)"/><path class="n" d="M476.758,483.519l-2.947-3.118,3.153-8.6-4.763,8.807" transform="translate(-465.963 -469.881)"/><path class="ci" d="M459.243,485.355l.308.377,5.791-5.243v-.343l.24-13.947-.548.583L454.24,478.5l-.24.274Zm.651-.685.514-7.333,4.215,3.05Zm4.9-4.832-4.249-3.118,4.455-8.6Zm-.72-11.171-4.112,7.95-4.66,1.576Zm-4.215,8.567-.514,7.367-4.523-5.654Z" transform="translate(-454 -466.2)"/></g><g transform="translate(23.199 35.946)"><path class="cj" d="M527.671,567.473,522.6,555l5.894,1.371Z" transform="translate(-522.292 -547.907)"/><path class="m" d="M537.4,562.149l5.38-15.249-4.557,4.146Z" transform="translate(-532.02 -542.582)"/><path class="ck" d="M528.494,543.487l-2.81-8.087-3.084,6.716Z" transform="translate(-522.292 -535.023)"/><path class="l" d="M534.41,543.487,531.6,535.4l7.367,3.941Z" transform="translate(-528.208 -535.023)"/><path class="n" d="M523.9,556.2l3.941,1.713.514,9.115.891-9.937" transform="translate(-523.146 -548.696)"/><path class="cl" d="M525.4,534.54l-.445-.24-3.255,7.093.137.308,5.277,12.919.274-.754,5.311-15.043.137-.343Zm-.343.891,2.4,6.922-5.071-1.165Zm-2.6,6.374,5.14,1.165-.72,9.7Zm5.072,10.006.651-8.909,3.667-3.29Zm.514-9.56-2.433-6.99,6.374,3.427Z" transform="translate(-521.7 -534.3)"/></g><g transform="translate(32.793 18.71)"><path class="cm" d="M567.148,485.043,550.7,484.7l8.258,5.551Z" transform="translate(-550.357 -484.46)"/><path class="l" d="M558.958,490.251l-6.956.514-1.3-6.065Z" transform="translate(-550.357 -484.46)"/><path class="m" d="M561.456,500.9l-.171,7.265-6.785-6.751Z" transform="translate(-552.855 -495.109)"/><path class="cn" d="M582.661,485.7,574.3,498.173l.171-7.265Z" transform="translate(-565.87 -485.117)"/><path class="n" d="M561.668,507.316l-.685-5.483-5.209-.377-.274-.48,6.648-.377-.274,6" transform="translate(-553.513 -494.912)"/><path class="co" d="M558.164,497.5l.274-.411,8.224-12.233.343-.514L550.214,484H549.7l1.371,6.476.206.206Zm-.308-1.1-5.894-5.86,6.031-.445Zm.583-.308.137-6.065v-.1l.24-.137,6.716-4.249Zm7.128-11.24-7.265,4.592-7.3-4.9Zm-15.112,0,6.99,4.695L551.55,490Z" transform="translate(-549.7 -484)"/></g><g transform="translate(14.666 35.5)"><path class="cp" d="M503.4,534.7l10.657,10.074-7.847.308Z" transform="translate(-501.138 -534.117)"/><path class="cq" d="M499.653,534.7,497.7,546.967l4.763-1.885Z" transform="translate(-497.392 -534.117)"/><path class="cr" d="M511.6,564.408l6.922,5,.925-5.311Z" transform="translate(-506.529 -553.443)"/><path class="m" d="M502.463,565l.617,5.894-5.38-4.009Z" transform="translate(-497.392 -554.035)"/><path class="cs" d="M518.522,570l-6.922-5,.617,5.894Z" transform="translate(-506.529 -554.035)"/><path class="n" d="M503.855,570.474l-1.062-3.8-3.392.514,4.318-1.885" transform="translate(-498.509 -554.232)"/><path class="ct" d="M498.856,533l-.1.651-1.953,12.37.343.24L502.18,550l.274.206,6.2-.857.411-.069.994-5.688-.24-.24Zm.274,1.919,2.364,8.807.034.1-.24.1-3.838,1.542Zm-1.439,11.034,3.941-1.576.514,4.9Zm5.071,3.6-.514-4.969,5.86,4.249Zm5.825-1.062-5.894-4.283,6.716-.274Zm-6.511-4.8-2.5-9.218,9.458,8.944Z" transform="translate(-496.8 -533)"/></g><g transform="translate(42.696 0)"><path class="cu" d="M585.2,431.1l10.657,10.074-7.847.308Z" transform="translate(-582.938 -430.517)"/><path class="cv" d="M581.453,431.1,579.5,443.4l4.763-1.919Z" transform="translate(-579.192 -430.517)"/><path class="cw" d="M593.4,460.808l6.922,5.037.925-5.346Z" transform="translate(-588.329 -449.843)"/><path class="m" d="M584.263,461.4l.617,5.894-5.38-3.975Z" transform="translate(-579.192 -450.435)"/><path class="cx" d="M600.322,466.437,593.4,461.4l.617,5.894Z" transform="translate(-588.329 -450.435)"/><path class="n" d="M585.655,466.909l-1.062-3.838-3.392.514,4.283-1.885" transform="translate(-580.309 -450.632)"/><path class="cy" d="M580.656,429.4l-.1.651-1.953,12.37.343.24,5.037,3.735.274.206,6.2-.857.411-.069.994-5.688-.24-.24Zm.274,1.919,2.364,8.807.034.1-.24.1-3.838,1.542Zm-1.439,11.034,3.941-1.576.514,4.9Zm5.037,3.6-.514-4.969,5.86,4.249Zm5.86-1.062-5.894-4.283,6.716-.274Zm-6.511-4.8-2.5-9.218,9.458,8.944Z" transform="translate(-578.6 -429.4)"/></g><g transform="translate(13.809 10.623)"><path class="cz" d="M495.8,461.2l20.183,23.815-3.153,4.42Z" transform="translate(-495.286 -460.926)"/><path class="da" d="M495.8,461.2l25.049,16.105-4.866,7.71Z" transform="translate(-495.286 -460.926)"/><path class="db" d="M549.246,508.2,539,509.571l5.38,6.339Z" transform="translate(-523.683 -491.821)"/><path class="m" d="M559.566,508.2l-.411,14.735L554.7,515.91Z" transform="translate(-534.003 -491.821)"/><path class="l" d="M553.107,537.725l-4.455-7.025-3.153,4.42Z" transform="translate(-527.955 -506.611)"/><path class="dc" d="M495.8,461.2l8.772.1,16.277,16" transform="translate(-495.286 -460.926)"/><path class="n" d="M540.6,510.5l4.729,4.112,4.42-5.311-4.318,7.333" transform="translate(-524.734 -492.544)"/><path class="n" d="M519.053,475.626l-19.258-13.3,5-.754-8.5-.377.583.514" transform="translate(-495.615 -460.926)"/><path class="dd" d="M494.3,460.4l.274.445,16.894,28,.171.308,8.053,2.741v-.548l.411-14.495v-.206l-.1-.1-16.208-15.968-.069-.069-8.807-.1Zm2.536,3.118,12.747,15.009,5.071,5.962-2.81,3.906ZM518.766,491l-6.511-2.227L514.963,485Zm.411-.411-3.838-6.1.034-.034h0l4.215-6.648Zm-4.215-6.579-4.8-5.654,9.149-1.2Zm-11.479-22.959,14.255,14.015-21.965-14.118Zm15.591,15.557-9.321,1.234-13.5-15.9Z" transform="translate(-494.3 -460.4)"/></g><g transform="translate(20.594 13.295)"><path class="de" d="M555.1,479.1l-18.3,11.891,4.283-9.595Z" transform="translate(-529.021 -475.365)"/><path class="df" d="M556.939,472.527,539.6,469.1l3.324,5.723Z" transform="translate(-530.862 -468.792)"/><path class="l" d="M527.016,485.8,515.4,492.756l7.333,2.639Z" transform="translate(-514.955 -479.769)"/><path class="m" d="M527.016,474.823,515.4,481.779l8.293-12.679Z" transform="translate(-514.955 -468.792)"/><path class="n" d="M523.845,495.346l2.6-7.23-9.149,4.9,10.828-6.716" transform="translate(-516.203 -480.098)"/><path class="n" d="M555.428,472.987l-11.719,1.234-3.5-4.249-.514-.171,3.324,5.551" transform="translate(-530.928 -469.252)"/><path class="dg" d="M522.187,483.963l18.059-11.719.685-.445-.788-.137-17.065-3.392-.377-.069-8.327,12.747-.274.411,7.813,2.81Zm1.2-15.043,15.249,3.015-12.3,2.022Zm15.523,3.529L522.53,483.072l3.838-8.567ZM522.8,469.057l2.981,5.106-10.349,6.168Zm2.741,5.894-3.8,8.532-6.545-2.33Z" transform="translate(-514.1 -468.2)"/></g><g transform="translate(20.32 28.133)"><path class="dh" d="M534.007,521.781,520.3,512.7l4.009,9.081Z" transform="translate(-517.901 -512.289)"/><path class="l" d="M520.168,521.781,514,518.491l2.159-5.791Z" transform="translate(-513.76 -512.289)"/><path class="m" d="M520.168,532.89l-4.043,6.065L514,529.6Z" transform="translate(-513.76 -523.398)"/><path class="di" d="M533.941,539.2,520.2,545.265l4.043-6.065Z" transform="translate(-517.836 -529.708)"/><path class="n" d="M517.05,538.235l2.33-4.969-4.181-3.118V529.6l5.86,3.221-3.461,4.934" transform="translate(-514.549 -523.398)"/><path class="dj" d="M515.493,527.434l.445-.206,13.5-5.928.583-.24-14.015-9.286-.411-.274-2.3,6.2.069.274Zm.308-1.1-1.85-8.121,5.346,2.844Zm.651.069,3.358-5.037.069-.1H528.1Zm12.028-5.688h-8.6L516.35,512.7Zm-12.747-8.053,3.392,7.71-5.243-2.776Z" transform="translate(-513.3 -511.5)"/></g><g transform="translate(9.595 6.956)"><path class="dk" d="M483.585,451.1l4.352,30.943-5.037,2.022Z" transform="translate(-482.592 -450.62)"/><path class="dl" d="M484.9,451.1l12.576,27.036-8.224,3.906Z" transform="translate(-483.906 -450.62)"/><path class="dm" d="M503.589,521.652,494.2,517.3l1.165,8.258Z" transform="translate(-490.019 -494.136)"/><path class="m" d="M505.758,530,497.5,542.2l.034-8.292Z" transform="translate(-492.189 -502.484)"/><path class="l" d="M487.9,549.693l.034-8.293-5.037,2.022Z" transform="translate(-482.592 -509.977)"/><path class="dn" d="M484.9,451.1l7.367,4.8,5.209,22.239" transform="translate(-483.906 -450.62)"/><path class="n" d="M495.2,518.7l1.816,6,6.579-2.125-7.607,3.906" transform="translate(-490.677 -495.056)"/><path class="n" d="M496.914,475.729l-9.149-21.52,4.592,2.056L485.4,451.4l.24.754" transform="translate(-484.235 -450.817)"/><path class="do" d="M482.72,449.7v.514L482,482.9v.377l5.346,6.648.308-.445,8.121-12.028.1-.171-.034-.137-5.174-22.2-.034-.1-7.4-4.8Zm.48,3.975,2.741,19.5,1.1,7.779-4.455,1.816Zm3.838,34.952-4.283-5.346,4.318-1.748Zm.583-.137v-7.2h.034l7.127-3.392Zm-.069-7.779-1.028-7.367,8.361,3.872Zm2.57-25.563,4.557,19.5-11-23.678Zm4.866,21.485-8.532-3.941-2.913-20.663Z" transform="translate(-482 -449.7)"/></g><g transform="translate(9.252 21.108)"><path class="dp" d="M489.576,492.6l-2.3,31.148-5.38.925Z" transform="translate(-481.592 -492.052)"/><path class="dq" d="M499.9,492.6l6.579,29.058-8.875,2.09Z" transform="translate(-491.912 -492.052)"/><path class="dr" d="M506.475,565.5l-8.258-6.2-.617,8.293Z" transform="translate(-491.912 -535.896)"/><path class="m" d="M503.057,577.4,492.4,587.612l1.782-8.121Z" transform="translate(-488.494 -547.794)"/><path class="l" d="M485.5,591.621l1.782-8.121-5.38.925Z" transform="translate(-481.592 -551.803)"/><path class="ds" d="M504.3,492.6l6.2,6.237.377,22.822" transform="translate(-496.316 -492.052)"/><path class="n" d="M498.391,560.8l.48,6.237,6.888-.685-8.258,2.227" transform="translate(-491.846 -536.882)"/><path class="n" d="M510.734,519.214l-4.386-22.993,4.043,2.981L504.6,493l.1.788" transform="translate(-496.513 -492.315)"/><path class="dt" d="M488.813,491l-.137.514-7.607,31.8-.069.343,3.8,7.607.377-.377,10.451-10.04.137-.137v-.137l-.377-22.787v-.1l-6.168-6.271Zm-.377,4.009L487,514.644l-.583,7.813-4.729.822ZM484.8,530l-3.084-6.134,4.592-.788Zm.583-.034,1.542-7.025h.034l7.676-1.816ZM487,522.32l.548-7.4,7.367,5.551Zm7.881-24.432.343,20.012-5.757-25.46Zm.24,22.034-7.5-5.654,1.542-20.8Z" transform="translate(-481 -491)"/></g><g transform="translate(8.121 21.622)"><path class="du" d="M514.894,518.451l-21.794.24,8.738-5.791Z" transform="translate(-487.823 -505.91)"/><path class="dv" d="M531.656,505.7l-12.85-12.2-.206,6.648Z" transform="translate(-504.585 -493.157)"/><path class="l" d="M492.57,512.243,479,511.9l4.832,6.134Z" transform="translate(-478.555 -505.252)"/><path class="m" d="M492.57,500.148,479,499.805l13.775-6.305Z" transform="translate(-478.555 -493.157)"/><path class="n" d="M485.049,518.183l6.1-4.729L480.8,512.7l12.747.137" transform="translate(-479.738 -505.778)"/><path class="n" d="M530.353,505.3l-10.588-5.243-.685-5.448-.343-.411-.137,6.442" transform="translate(-504.585 -493.617)"/><path class="dw" d="M483.114,505.556l21.554-.24h.788l-.583-.548-12.61-11.993-.274-.274-13.844,6.339-.445.206,5.106,6.545Zm9.081-12.062,11.274,10.691-11.479-4.866Zm11.239,11.274-19.532.206,7.813-5.174Zm-11.788-11.479-.206,5.928-12.062-.308Zm-.857,6.476-7.779,5.174-4.283-5.483Z" transform="translate(-477.7 -492.5)"/></g><g transform="translate(28.887 33.65)"><path class="dx" d="M542.8,553.072l13.056-9.972-9.869.822Z" transform="translate(-541.258 -537.789)"/><path class="l" d="M552.1,536.363l5.106-4.763,4.763,3.941Z" transform="translate(-547.371 -530.229)"/><path class="m" d="M543.62,534.325,539.2,528.5l9.526,1.062Z" transform="translate(-538.892 -528.192)"/><path class="dy" d="M540.434,543.475,539.2,528.5l4.42,5.825Z" transform="translate(-538.892 -528.192)"/><path class="n" d="M541,529.6l3.975,3.838,4.318-2.947.48.206-4.934,4.455-3.564-4.866" transform="translate(-540.075 -528.915)"/><path class="dz" d="M538.3,527.6l.034.48,1.165,14.7.034.617L552.9,533.22l.411-.308L548.2,528.7l-.308-.034Zm.925.685,8.258.925-4.455,4.112Zm-.24.582,3.667,4.832.069.069-.1.274-2.639,7.5Zm1.4,13.227,2.844-8.121,8.738-.72Zm11.822-9.389-8.4.685,4.352-4.009Z" transform="translate(-538.3 -527.6)"/></g><g transform="translate(24.329 21.759)"><path class="ea" d="M579.309,505.279l-30.634-6.065L548.4,493.8Z" transform="translate(-540.382 -493.492)"/><path class="eb" d="M579.834,515.665l-29.641,2.981L549.2,509.6Z" transform="translate(-540.907 -503.877)"/><path class="ec" d="M550.194,518.646l7.162-7.436L549.2,509.6Z" transform="translate(-540.907 -503.877)"/><path class="m" d="M535.141,513.388,526.3,501.6l7.847,2.741Z" transform="translate(-525.854 -498.619)"/><path class="l" d="M526.3,496.473l7.847,2.741-.274-5.414Z" transform="translate(-525.854 -493.492)"/><path class="ed" d="M581.741,527.3l-6.922,5.38-22.719-2.4" transform="translate(-542.814 -515.512)"/><path class="n" d="M556.807,511.35l-6.271-.274-.137,6.888-1.2-8.464" transform="translate(-540.907 -503.812)"/><path class="n" d="M560.1,530.513l23.336-1.576-3.461,3.667,6.888-5h-.788" transform="translate(-548.072 -515.709)"/><path class="ee" d="M564.475,504.585l-.48-.171-30.635-11.377-.343-.137L525,495.744l.308.445,8.7,11.616.137.171h.137l22.685,2.4h.1l6.956-5.414Zm-3.906-.857-19.292-3.8-7.71-1.508-.24-4.8ZM526.3,495.881l6.476-2.3.24,4.66Zm-.069.583,6.785,2.364v.034h0l.857,7.847ZM533.6,499l7.3,1.439-6.408,6.648Zm23.3,10.794-19.909-2.09,25.974-2.639Zm-21.9-2.467,6.545-6.785,20.457,4.043Z" transform="translate(-525 -492.9)"/></g><g transform="translate(33.616 25.289)"><path class="ef" d="M553.5,532.463l6.922-20.663,2.6,10.143Z" transform="translate(-553.02 -508.853)"/><path class="eg" d="M553.5,551.92l15.728-8.121-6.2-2.4Z" transform="translate(-553.02 -528.31)"/><path class="l" d="M576.3,517.079l4.8-12.679-7.4,2.536Z" transform="translate(-566.298 -503.989)"/><path class="m" d="M581.3,517.079l4.8-12.679,1.4,15.077Z" transform="translate(-571.294 -503.989)"/><path class="n" d="M574.7,507.962l2.467,7.265,4.112-9.526L577,517.728" transform="translate(-566.956 -504.843)"/><path class="n" d="M557.1,550.895l8.43-8.292,5.38,1.165.514-.171-6.065-2.3" transform="translate(-555.387 -528.244)"/><path class="eh" d="M559.193,506.181,552.34,526.6l-.24.754.685-.377L568.24,519l.343-.171-1.4-15.146-.034-.48-7.847,2.673Zm8.43,12.542-13.809,7.127,8.361-9.218Zm-14.358,6.888,6.2-18.5,2.33,9.081ZM568,518.277l-5.517-2.125,4.249-11.274Zm-5.825-2.913-2.33-9.046,6.579-2.227Z" transform="translate(-552.1 -503.2)"/></g><g transform="translate(28.784 12.679)"><path class="ei" d="M539.5,494.831l16.38-1.4-8.772-4.626Z" transform="translate(-538.986 -481.124)"/><path class="l" d="M561.7,486.368l6.853-1.268,1.919,5.894Z" transform="translate(-553.579 -478.692)"/><path class="m" d="M560.517,474.93l-.617-7.23,7.47,5.962Z" transform="translate(-552.396 -467.255)"/><path class="ej" d="M539.5,480.961l6.99-13.261.617,7.23Z" transform="translate(-538.986 -467.255)"/><path class="n" d="M560.637,469.5l1.268,5.38,5.209-.171.343.411-6.579,1.1-.377-6" transform="translate(-552.79 -468.438)"/><path class="ek" d="M545.4,466.4l-.24.445L538.308,479.9l-.308.548,16.756-1.439.514-.034-2.056-6.271-.24-.171Zm.445,1.062,6.511,5.209-5.962,1.1Zm-.548.343.514,6.031v.1l-.206.171-6.237,4.969ZM539.4,479.764l6.751-5.346,7.779,4.078Zm15.009-1.645-7.436-3.906,5.825-1.062Z" transform="translate(-538 -466.4)"/></g><g transform="translate(31.731 14.323)"><path class="el" d="M548.6,485.675,565.528,471.9l-3.221,9.972Z" transform="translate(-547.915 -471.66)"/><path class="em" d="M548.6,504.8l17.647,1.542L562.307,501Z" transform="translate(-547.915 -490.789)"/><path class="l" d="M588.6,481.872l10.828-8.121-7.607-1.85Z" transform="translate(-574.208 -471.66)"/><path class="m" d="M588.6,485.421l10.828-8.121-6.888,13.467Z" transform="translate(-574.208 -475.21)"/><path class="n" d="M592.224,472.9l-1.816,7.47,8.567-5.825L588.9,482.358" transform="translate(-574.405 -472.317)"/><path class="n" d="M553.2,504.6l11.548-2.5,3.941,3.872.514.1L565.3,500.9" transform="translate(-550.938 -490.723)"/><path class="en" d="M563.939,471.337l-16.722,13.6-.617.514.788.069,17.339,1.542.411.034,6.888-13.535.206-.411-8.053-1.953Zm.411,15.112-15.489-1.371,11.993-3.324Zm-15.831-1.85,15.146-12.3-2.878,8.909Zm16.379,1.645-3.529-4.763L571,474.25Zm-3.358-5.585,2.878-8.875,6.751,1.645Z" transform="translate(-546.6 -471.2)"/></g></g><g transform="translate(343.478 344.863)"><g transform="translate(0 6.031)"><path class="eo" d="M437.586,458.84,417.3,450.89l10.246-2.09Z" transform="translate(-414.799 -442.461)"/><path class="ep" d="M457.24,447.205,449.907,431.1l-2.707,6.065Z" transform="translate(-434.453 -430.826)"/><path class="l" d="M423.4,438.414,411,433l2.159,7.5Z" transform="translate(-410.657 -432.075)"/><path class="m" d="M423.4,437.165,411,431.751l15.112-.651Z" transform="translate(-410.657 -430.826)"/><path class="n" d="M414.185,441.182l7.4-2.124L412.3,434.5l11.753,4.866" transform="translate(-411.512 -433.061)"/><path class="n" d="M456.349,446.232l-7.847-8.807,1.4-5.311-.137-.514-2.57,5.928" transform="translate(-434.453 -431.155)"/><path class="eq" d="M412.536,439.072l20.08,7.847.754.308-.343-.72-7.2-15.831-.171-.377-15.18.685-.48.034L412.3,439Zm12.919-7.813,6.442,14.152-8.807-8.807Zm6.2,14.666-18.2-7.093,9.183-1.885Zm-6.648-15.043-2.4,5.414-11.068-4.8Zm-3.187,5.654-9.149,1.885-1.919-6.682Z" transform="translate(-410 -430.3)"/></g><g transform="translate(46.089 21.006)"><path class="er" d="M545.6,508.257l2.639-21.657,4.592,9.423Z" transform="translate(-545.223 -482.282)"/><path class="es" d="M545.6,526.333l13.775-11.1L552.83,514.1Z" transform="translate(-545.223 -500.359)"/><path class="l" d="M557.892,488.464l2.125-13.364-6.716,3.941Z" transform="translate(-550.284 -474.723)"/><path class="m" d="M566.7,488.464l2.125-13.364,4.42,14.495Z" transform="translate(-559.093 -474.723)"/><path class="n" d="M554.4,480.229l3.872,6.613L560.4,476.7l-1.816,12.61" transform="translate(-551.008 -475.775)"/><path class="n" d="M548.6,525.134l6.614-9.8,5.483.069.445-.308-6.374-.994" transform="translate(-547.195 -500.359)"/><path class="et" d="M547.207,478.455l-2.6,21.382-.1.788.617-.48,13.535-10.931.308-.24-4.455-14.529-.137-.445-7.162,4.215ZM558,489.043l-12.1,9.766,6.339-10.725Zm-12.679,9.629,2.364-19.361,4.112,8.43Zm12.953-10.177-5.825-.994,1.885-11.891Zm-6.305-1.645-4.078-8.4,6-3.529Z" transform="translate(-544.5 -474)"/></g><g transform="translate(38.447 38.036)"><path class="eu" d="M524.3,535.78,533,525.5l1.542,5.894Z" transform="translate(-523.58 -524.883)"/><path class="m" d="M524.3,547.086l16-2.262-5.757-2.125Z" transform="translate(-523.58 -536.189)"/><path class="ev" d="M551.242,530.737l5.86-6.237-7.4.343Z" transform="translate(-540.277 -524.226)"/><path class="l" d="M554.2,530.737l5.86-6.237-.1,8.361Z" transform="translate(-543.235 -524.226)"/><path class="n" d="M534.773,527.3l.308,4.249-7.881,4.66,9.252-3.769" transform="translate(-525.487 -526.066)"/><path class="ew" d="M539.3,524.18v-.48l-7.813.377-.24.274L522.2,534.974l.788-.1,15.8-2.193.377-.069Zm-.959.1-5.037,5.346-1.3-5.037Zm-6.853.651,1.336,5.106-8.909,3.838Zm-6.545,9.081,8.224-3.529,4.626,1.713Zm8.7-3.941,5.071-5.38-.1,7.23Z" transform="translate(-522.2 -523.7)"/></g><g transform="translate(38.379 4.763)"><path class="ex" d="M548.61,428.3l-3.975,12.85-3.735-4.763Z" transform="translate(-534.424 -427.717)"/><path class="m" d="M536.844,428.3,523,436.661l6.134-.274Z" transform="translate(-522.657 -427.717)"/><path class="ey" d="M535.247,451.9l-2.947,8.018,6.682-3.255Z" transform="translate(-528.771 -443.23)"/><path class="l" d="M529.134,451.9l-2.947,8.018L523,452.174Z" transform="translate(-522.657 -443.23)"/><path class="n" d="M544.564,442.605l-1.919-3.8,5.38-7.4L541,438.527" transform="translate(-534.489 -429.755)"/><path class="ez" d="M525.221,443.219l.171.445,7.025-3.392.1-.343,4.112-13.33-.685.411-13.638,8.258-.308.206Zm.822-.514,2.536-6.888,3.187,4.112Zm6.031-3.255-3.221-4.181,6.682-7.025Zm2.467-10.931L528.374,435l-4.934.24Zm-6.476,7.025-2.536,6.956-2.776-6.682Z" transform="translate(-522 -426.6)"/></g><g transform="translate(12.747 15.317)"><path class="fa" d="M448.9,471.1l12.507,10.691-2.844-9.492Z" transform="translate(-448.317 -466.405)"/><path class="l" d="M477.1,474.6l5.688,4.009-2.844,5.483Z" transform="translate(-466.854 -468.706)"/><path class="m" d="M477.1,464.017l4.729-5.517.959,9.526Z" transform="translate(-466.854 -458.123)"/><path class="fb" d="M448.9,462.818l14.392-4.318-4.729,5.517Z" transform="translate(-448.317 -458.123)"/><path class="n" d="M481.426,460.5l-2.947,4.66,3.769,3.6-.069.548L476.8,465.4l4.009-4.489" transform="translate(-466.657 -459.438)"/><path class="fc" d="M462.414,457.4l-.48.137-14.118,4.249-.617.171,12.781,10.931.377.343,3.05-5.86-.034-.308Zm-.445,1.062.857,8.258-4.969-3.461Zm-.651-.137-3.941,4.592-.069.069-.274-.034-7.881-.994Zm-12.644,4.181,8.532,1.062,2.536,8.4Zm11.685,9.526-2.433-8.053,4.832,3.392Z" transform="translate(-447.2 -457.4)"/></g><g transform="translate(47.082 9.355)"><path class="fd" d="M550.085,465.829,548.2,451.3l6.305,4.729Z" transform="translate(-547.926 -447.428)"/><path class="fe" d="M553.7,474.9l9.286-8.258L558.12,465.1Z" transform="translate(-551.541 -456.499)"/><path class="ff" d="M554.505,449.258,552.312,441l-4.112,3.529Z" transform="translate(-547.926 -440.657)"/><path class="m" d="M566.6,455.569l3.255-4.969,1.611,6.511Z" transform="translate(-560.021 -446.968)"/><path class="fg" d="M560.2,441l2.193,8.258,3.255-4.969Z" transform="translate(-555.814 -440.657)"/><path class="n" d="M569.653,452.6l-1.576,3.632,2.947,1.782-4.523-1.268" transform="translate(-559.955 -448.282)"/><path class="fh" d="M549.319,458.984l.48-.411,9.355-8.293-.1-.411-1.508-6.1-.069-.308-5.346-3.255-.343-.206-4.386,3.769.034.343Zm1.028-1.645,3.735-8.293.034-.1.24.069,3.941,1.234Zm8.121-7.607-4.043-1.3,2.707-4.112Zm-1.645-6-2.741,4.181-1.816-6.99Zm-5.174-2.913,1.85,7.059-5.346-4.043Zm1.987,7.881-3.941,8.7-1.645-12.919Z" transform="translate(-547.4 -440)"/></g><g transform="translate(2.878 19.052)"><path class="fi" d="M421.15,494.029,419.3,479.5l6.271,4.729Z" transform="translate(-418.992 -475.662)"/><path class="fj" d="M424.7,503.1l9.321-8.258-4.9-1.542Z" transform="translate(-422.541 -484.733)"/><path class="fk" d="M425.571,477.458l-2.159-8.258-4.112,3.529Z" transform="translate(-418.992 -468.892)"/><path class="m" d="M437.6,483.769l3.255-4.969,1.645,6.511Z" transform="translate(-431.021 -475.202)"/><path class="fl" d="M431.3,469.2l2.159,8.258,3.255-4.969Z" transform="translate(-426.88 -468.892)"/><path class="n" d="M440.687,480.8l-1.611,3.632,2.981,1.782-4.557-1.268" transform="translate(-430.955 -476.517)"/><path class="fm" d="M420.353,487.249l.48-.411,9.355-8.293-.1-.411-1.542-6.065-.069-.308-5.346-3.255-.343-.206-4.386,3.769.034.343Zm.994-1.645,3.735-8.293.034-.1.24.069,3.941,1.234ZM429.5,478l-4.043-1.3,2.707-4.112Zm-1.645-6-2.741,4.181-1.816-6.99Zm-5.174-2.913,1.85,7.059-5.346-4.043Zm1.953,7.881-3.906,8.7-1.645-12.919Z" transform="translate(-418.4 -468.3)"/></g><g transform="translate(25.837 8.978)"><path class="fn" d="M512.014,492.756l-.514-31.217,5.243-1.439Z" transform="translate(-502.556 -452.835)"/><path class="fo" d="M495.449,495.517,486.3,467.144l8.635-2.844Z" transform="translate(-485.992 -455.596)"/><path class="fp" d="M486.3,467.144l8.772,5.448-.137-8.293Z" transform="translate(-485.992 -455.596)"/><path class="m" d="M486.3,451.3l9.663-11.1-1.028,8.258Z" transform="translate(-485.992 -439.755)"/><path class="l" d="M512.528,440.2l-1.028,8.258,5.243-1.439Z" transform="translate(-502.556 -439.755)"/><path class="fq" d="M495.449,500.973l-6.716-5.654L486.3,472.6" transform="translate(-485.992 -461.052)"/><path class="n" d="M496.013,472.079l-1.062-6.168-6.751,1.336,8.018-2.947" transform="translate(-487.241 -455.596)"/><path class="n" d="M487.9,480.4l6.442,22.513-4.318-2.6,6.339,5.654-.137-.754" transform="translate(-487.043 -466.179)"/><path class="fr" d="M495.063,479.335l.068-.514,4.695-32.348.069-.343-4.489-7.23-.343.411-9.526,10.931-.137.137v.137l2.433,22.685v.1l6.751,5.654Zm0-4.009-.343-19.669-.137-7.847,4.626-1.234Zm.48-35.158,3.6,5.825-4.489,1.2Zm-.583.034-.891,7.162h-.034l-7.47,2.5Zm-.891,7.779.1,7.4-7.847-4.866Zm-5.688,25.049-2.125-19.909,8.018,24.843ZM486.188,451.1l7.984,4.969.343,20.868Z" transform="translate(-485.4 -438.9)"/></g><g transform="translate(13.501 23.233)"><path class="fs" d="M451.3,481.6l21.691,2.433-9.389,4.66Z" transform="translate(-450.649 -481.223)"/><path class="ft" d="M451.3,481.6l11.239,13.672,1.062-6.579Z" transform="translate(-450.649 -481.223)"/><path class="l" d="M487.2,493.36l13.4,2.022-4.009-6.682Z" transform="translate(-474.247 -485.89)"/><path class="m" d="M485.162,502.3l13.4,2.022L484.1,508.879Z" transform="translate(-472.209 -494.83)"/><path class="n" d="M496.846,489.8l-6.579,3.941,10.177,2.022L487.8,494.049" transform="translate(-474.642 -486.613)"/><path class="n" d="M454.8,484.6l9.869,6.476v5.517l.274.445.959-6.408" transform="translate(-452.95 -483.195)"/><path class="fu" d="M471.6,483l-21.417-2.4-.788-.1.514.617,11.034,13.433.24.308,14.495-4.557.445-.137-4.249-7.127Zm-10.486,10.9L451.25,481.9l10.794,6.237Zm-9.766-12.61,19.395,2.159-8.4,4.181Zm10.28,12.85.925-5.825,11.925,1.782Zm1.645-6.305,8.361-4.181,3.564,5.962Z" transform="translate(-449.4 -480.5)"/></g><g transform="translate(34.712 13.775)"><path class="fv" d="M512.6,454.1l4.832,15.728,2.639-9.56Z" transform="translate(-512.154 -453.689)"/><path class="l" d="M529.339,472.1l2.707,6.442L526.7,481.66Z" transform="translate(-521.423 -465.521)"/><path class="m" d="M534.4,468.025l6.956-2.125-4.249,8.567Z" transform="translate(-526.484 -461.445)"/><path class="fw" d="M512.6,454.1l14.426,4.043-6.956,2.125Z" transform="translate(-512.154 -453.689)"/><path class="n" d="M540.645,467.2l-5,2.4,1.268,5.037-.343.411-2.467-6.168,5.791-1.645" transform="translate(-526.287 -462.3)"/><path class="fx" d="M526.583,457.183l-.48-.137-14.186-3.975-.617-.171,4.934,16.071.137.48,5.723-3.324.137-.274Zm-.925.617-3.7,7.436-2.33-5.585Zm-.48-.445-5.791,1.782-.1.034-.206-.171-6.134-5.071Zm-12.919-3.221,6.648,5.448-2.364,8.464Zm4.763,14.323,2.262-8.087,2.262,5.483Z" transform="translate(-511.3 -452.9)"/></g><g transform="translate(32.999 20.457)"><path class="fy" d="M515,518.859,531.242,492.2l5.209,1.645Z" transform="translate(-512.019 -485.415)"/><path class="fz" d="M515,514.653l7.4-28.853,8.841,2.193Z" transform="translate(-512.019 -481.208)"/><path class="ga" d="M536.6,485.8l4.523,9.321,4.318-7.127Z" transform="translate(-526.217 -481.208)"/><path class="m" d="M536.6,477.715l14.118-4.215-5.277,6.408Z" transform="translate(-526.217 -473.123)"/><path class="l" d="M567.677,473.5l-5.277,6.408,5.208,1.645Z" transform="translate(-543.176 -473.123)"/><path class="gb" d="M509.873,514.653l-2.673-8.361L517.274,485.8" transform="translate(-506.892 -481.208)"/><path class="n" d="M542.143,495.393l2.4-5.791-6.442-2.5,8.361,1.782" transform="translate(-527.203 -482.063)"/><path class="n" d="M516.941,493.3l-6.579,22.445-2.262-4.489,2.3,8.156.274-.72" transform="translate(-507.483 -486.138)"/><path class="gc" d="M509.144,506.427l.343-.411,21.28-24.809.24-.274.1-8.532-.514.171-13.912,4.146-.206.069-.069.137L506.334,497.38l-.034.1,2.673,8.4Zm2.193-3.392,10.246-16.791,4.078-6.682L530.253,481Zm19.189-29.469-.069,6.853L526,479.048Zm-.514-.24-4.592,5.551h-.034l-7.641-1.885Zm-4.934,6.065-3.872,6.339-4.009-8.293Zm-18.161,18.127,8.841-17.956-6.511,25.289Zm9.869-19.7,4.112,8.464L510.035,504.1Z" transform="translate(-506.3 -472.4)"/></g><g transform="translate(38.653 10.657)"><path class="gd" d="M526.3,482.316,547.82,459.7l4.763,2.673Z" transform="translate(-525.101 -454.252)"/><path class="ge" d="M526.3,474.625,539.664,448l8.156,4.009Z" transform="translate(-525.101 -446.561)"/><path class="gf" d="M565.3,448l2.433,10.04,5.723-6.031Z" transform="translate(-550.737 -446.561)"/><path class="m" d="M565.3,445.765,580,444.6l-6.545,5.174Z" transform="translate(-550.737 -444.326)"/><path class="l" d="M595.645,444.6l-6.545,5.174,4.763,2.673Z" transform="translate(-566.381 -444.326)"/><path class="gg" d="M524.722,474.625l-.822-8.738L538.086,448" transform="translate(-523.523 -446.561)"/><path class="n" d="M568.659,458.444l3.6-5.14-5.757-3.8,7.779,3.529" transform="translate(-551.526 -447.547)"/><path class="n" d="M537.139,454.7l-11.171,20.56-1.268-4.9.548,8.5.411-.651" transform="translate(-524.049 -450.965)"/><path class="gh" d="M523.759,472.378l.411-.308L550.213,452.3l.274-.206,1.885-8.293-.548.034-14.461,1.131h-.206l-.1.1-14.186,17.853-.069.1.857,8.772Zm2.844-2.844,13.57-14.255,5.414-5.688,4.181,2.364Zm24.98-24.741-1.508,6.682-4.043-2.3Zm-.445-.343-5.654,4.455h-.034l-7.059-3.461Zm-6.065,4.866-5.106,5.38-2.159-8.978Zm-21.622,13.878,12.439-15.66L524.2,470.871Zm13.809-17.168,2.227,9.149L525.1,470.288Z" transform="translate(-522.8 -443.8)"/></g><g transform="translate(33.581 16.962)"><path class="gi" d="M509,464.2l17,13.672-10.417-1.062Z" transform="translate(-508.657 -463.515)"/><path class="gj" d="M509,464.2l2.159,17.579,4.42-4.969Z" transform="translate(-508.657 -463.515)"/><path class="l" d="M528.2,501l10.211,8.841.206-7.779Z" transform="translate(-521.278 -487.704)"/><path class="m" d="M519.72,501l10.211,8.841L515.3,505.969Z" transform="translate(-512.799 -487.704)"/><path class="n" d="M538.637,502.434l-7.676-.206,7.5,7.162L528.7,501.2" transform="translate(-521.607 -487.836)"/><path class="n" d="M510.3,468.6l4.866,10.76-2.947,4.66v.548l4.215-4.934" transform="translate(-509.512 -466.407)"/><path class="gk" d="M525.408,476.215l-16.791-13.5L508,462.2l.1.788,2.159,17.27.034.411,14.7,3.906.48.137.206-8.293Zm-14.7,3.6-1.919-15.42,5.757,11.034ZM509.2,463.948l15.214,12.2-9.321-.959Zm1.816,16.345,3.906-4.42,9.115,7.881Zm4.729-4.455,9.286.959-.171,6.956Z" transform="translate(-508 -462.2)"/></g><g transform="translate(30.155 8.361)"><path class="gl" d="M515.548,438.617,499.1,438l8.155,5.654Z" transform="translate(-498.723 -437.692)"/><path class="l" d="M507.255,443.654l-6.99.411L499.1,438Z" transform="translate(-498.723 -437.692)"/><path class="m" d="M509.49,454.5l-.274,7.265-6.716-6.853Z" transform="translate(-500.958 -448.538)"/><path class="gm" d="M530.667,439.8,522.1,452.1l.274-7.265Z" transform="translate(-513.842 -438.875)"/><path class="n" d="M509.665,460.916l-.583-5.483-5.209-.48-.274-.445,6.648-.308-.343,6" transform="translate(-501.681 -448.34)"/><path class="gn" d="M506.293,450.772l.274-.411,8.4-12.1.343-.514-16.791-.617L498,437.1l1.268,6.476.206.206Zm-.308-1.1-5.825-5.962,6.031-.377Zm.583-.274.24-6.065v-.1l.24-.137,6.785-4.146Zm7.3-11.137-7.333,4.489-7.2-5Zm-15.077-.206,6.922,4.8-5.894.343Z" transform="translate(-498 -437.1)"/></g><g transform="translate(11.308 0)"><path class="go" d="M444.5,413.7l19.84,24.089-3.255,4.386Z" transform="translate(-443.986 -413.357)"/><path class="gp" d="M444.5,413.7l24.809,16.482-4.969,7.607Z" transform="translate(-443.986 -413.357)"/><path class="gq" d="M497.246,461.8,487,463l5.277,6.408Z" transform="translate(-471.923 -444.975)"/><path class="m" d="M507.369,461.8l-.651,14.735-4.318-7.127Z" transform="translate(-482.046 -444.975)"/><path class="l" d="M500.473,491.128,496.155,484l-3.255,4.386Z" transform="translate(-475.801 -459.568)"/><path class="gr" d="M444.5,413.7l8.772.24,16.037,16.242" transform="translate(-443.986 -413.357)"/><path class="n" d="M488.5,463.862l4.695,4.181,4.489-5.243-4.455,7.3" transform="translate(-472.909 -445.632)"/><path class="n" d="M467.548,428.435,448.5,414.865l5-.651L445,413.7l.583.514" transform="translate(-444.315 -413.357)"/><path class="gs" d="M443,412.734l.274.445,16.482,28.236.171.308,8.018,2.878.034-.548.651-14.495v-.206l-.1-.1-16-16.242-.069-.069-8.807-.24Zm2.5,3.187,12.507,15.18,4.969,6.065-2.844,3.872Zm21.52,27.79-6.476-2.33,2.776-3.735Zm.411-.411-3.735-6.134.034-.034h0l4.318-6.613Zm-4.112-6.613-4.729-5.723,9.149-1.062Zm-11.137-23.13,14.049,14.255-21.759-14.426Zm15.352,15.763-9.355,1.1-13.261-16.105Z" transform="translate(-443 -412.7)"/></g><g transform="translate(17.887 2.981)"><path class="gt" d="M503.27,433,484.8,444.582l4.42-9.492Z" transform="translate(-477.056 -429.025)"/><path class="gu" d="M505.439,425.9,488.1,422.2l3.29,5.791Z" transform="translate(-479.225 -421.926)"/><path class="l" d="M475.154,439.1,463.4,445.851l7.333,2.741Z" transform="translate(-462.989 -433.035)"/><path class="m" d="M475.154,427.991,463.4,434.742l8.464-12.542Z" transform="translate(-462.989 -421.926)"/><path class="n" d="M471.811,448.578l2.707-7.2-9.218,4.763,10.965-6.545" transform="translate(-464.238 -433.363)"/><path class="n" d="M503.994,426.327l-11.753,1.062-3.427-4.318-.514-.171,3.255,5.585" transform="translate(-479.356 -422.386)"/><path class="gv" d="M470.218,437.128l18.264-11.445.685-.411-.788-.171-17-3.632-.377-.069-8.532,12.576-.274.411,7.779,2.913Zm1.439-15.043,15.18,3.255L474.5,427.157Zm15.454,3.769-16.551,10.383,3.975-8.5Zm-16.037-3.632,2.913,5.14-10.451,6.031Zm2.673,5.928-3.941,8.464-6.511-2.433Z" transform="translate(-462.2 -421.4)"/></g><g transform="translate(17.407 17.682)"><path class="gw" d="M481.87,474.886,468.3,465.6l3.838,9.115Z" transform="translate(-465.73 -465.155)"/><path class="l" d="M467.8,474.715l-6.1-3.392,2.262-5.723Z" transform="translate(-461.392 -465.155)"/><path class="m" d="M467.8,485.692l-4.112,6L461.7,482.3Z" transform="translate(-461.392 -476.132)"/><path class="gx" d="M481.344,492.371,467.5,498.2l4.112-6Z" transform="translate(-465.204 -482.64)"/><path class="n" d="M464.613,491.069l2.433-4.969-4.146-3.187V482.4l5.791,3.29-3.5,4.9" transform="translate(-462.18 -476.198)"/><path class="gy" d="M462.89,480.234l.445-.206,13.57-5.723.583-.24-13.878-9.492-.411-.274-2.4,6.168.069.274Zm.343-1.062-1.713-8.121,5.311,2.913Zm.651.069,3.427-5,.069-.1h.274l7.95.137Zm12.1-5.517-8.6-.137-3.427-8.087Zm-12.61-8.258,3.29,7.744-5.174-2.878Z" transform="translate(-460.8 -464.3)"/></g><g transform="translate(5.38 11.205)"><path class="gz" d="M462.528,471.457l-21.828-.1,8.841-5.654Z" transform="translate(-435.56 -458.744)"/><path class="ha" d="M479.487,458.7l-12.644-12.4-.343,6.648Z" transform="translate(-452.519 -445.992)"/><path class="l" d="M440.535,464.583,427,464l4.695,6.237Z" transform="translate(-426.555 -457.626)"/><path class="m" d="M440.535,452.948,427,452.365l13.878-6.065Z" transform="translate(-426.555 -445.992)"/><path class="n" d="M432.881,470.451l6.168-4.626L428.7,464.9l12.747.343" transform="translate(-427.672 -458.218)"/><path class="n" d="M478.185,458.274l-10.52-5.414-.583-5.448L466.74,447l-.24,6.442" transform="translate(-452.519 -446.452)"/><path class="hb" d="M431.011,458.284l21.554.1h.788l-.548-.548-12.439-12.165-.274-.274-13.947,6.1-.445.206,5,6.613Zm9.252-11.925,11.1,10.863-11.377-5.037Zm11.068,11.479-19.532-.1,7.916-5.071Zm-11.616-11.685-.308,5.894-12.028-.514Zm-.925,6.442-7.847,5.037-4.181-5.551Z" transform="translate(-425.7 -445.4)"/></g></g><path class="a" d="M426.7,492l-3.461,2.227,1.953.206-22.822,10.76-80.253-10.725,3.564-1.1-3.838-.959L310.3,496.146s3.5,18.4,4.112,27.1c0,0,1.439,13.707,1.611,16.482l.583.583,82.1,17.613,28.784-19.978s5.072-41.086,6.168-45.164Z" transform="translate(-0.986 -119.963)"/><path class="b" d="M572.686,509.035,603.252,494.3s-5.585,37.008-6.168,45.163L568.3,559.441C568.3,559.407,570.664,518.9,572.686,509.035Z" transform="translate(-170.578 -121.475)"/><path class="hc" d="M585.013,525.64,582.1,560.455v3.6l19.052-13.535,4.455-34.918Z" transform="translate(-179.649 -135.476)"/><path class="hd" d="M411.335,527.12,408.9,555.664l-.891,12.2-74.53-15.968s-1.713-20.731-2.707-24.672L329.3,516.6Z" transform="translate(-13.475 -136.134)"/><path class="f" d="M330.6,525.789l7.779.548s.548-1.165.583-1.234a8.251,8.251,0,0,1,2.57-2.536c4.352-2.81,9.7-2.159,14.529-1.542,6.408.822,12.884,2.022,19.224,3.324,6.408,1.336,12.679,3.427,19.224,4.043,2.193.206,4.489.034,6.648.583a9.486,9.486,0,0,1,6.545,6.956c.959.137,1.885.274,2.844.411.274-3.118.548-6.271.788-9.389.034-.24-36.871-4.729-40.229-5.174-11.925-1.542-23.85-3.05-35.774-4.592-2.022-.274-4.009-.514-6.031-.788" transform="translate(-13.475 -136.002)"/><path class="f" d="M476.8,608.334s-.48,7.436-4.969,8.875-7.744-2.6-14.186-2.844-16.482.343-22.342-.343c0,0,38.927,6.271,42.491,6.442l1.473-12.165" transform="translate(-83.153 -196.411)"/><path class="he" d="M333.4,544.483l1.3,9.56,77.511,12.473,1.062-12.062S361.087,545.1,333.914,543.9" transform="translate(-16.17 -154.079)"/><path class="he" d="M340.3,606.5l.377,4.489,74.564,15.968.548-7.642S355.994,610.441,340.3,606.5Z" transform="translate(-20.706 -195.228)"/><path class="he" d="M586.2,549.53l-1.1,9.766s13.4-6.99,19.5-9.423l1.987-12.028V537.4Z" transform="translate(-181.621 -149.806)"/><path class="he" d="M581.848,613.778,601.038,599.9l-.411,6.031L581.3,619.775l.274-6.065" transform="translate(-179.123 -190.889)"/><path class="f" d="M584.484,556.646a29.567,29.567,0,0,1-.445-10.554,40.668,40.668,0,0,1,1.713-6.374,12.043,12.043,0,0,0,.891-4.352,11.14,11.14,0,0,1-.206-3.529,12.1,12.1,0,0,1,5.243-7.813c4.8-2.776,12.987-4.283,12.987-4.283l.514-3.941-20.423,9.7-2.707,30.429-.651,3.324" transform="translate(-179.189 -135.608)"/><path class="g" d="M337.406,575.762l62.125,7.779L337.2,573.5" transform="translate(-18.668 -173.536)"/><path class="g" d="M416.651,557.084s-17.99-5.243-77.751-12.884l41.942,4.66,35.809,5.791" transform="translate(-19.786 -154.276)"/><path class="g" d="M587.9,553.507,606.952,541,587.9,551.623" transform="translate(-183.462 -152.173)"/><path class="hf" d="M444.907,557.475c2.81,2.159,6.031,3.769,8.635,6.2a15.019,15.019,0,0,1,4.112,6.614A5.568,5.568,0,0,0,463,573.923c4.112.171,10.211-1.268,12.61-4.9,2.5-3.769-.891-8.258-3.5-10.9-5.928-6.031-14.872-9.972-23.3-6.888-1.782.651-6.031,3.255-4.523,5.688C444.5,557.1,444.7,557.3,444.907,557.475Z" transform="translate(-88.853 -158.196)"/><path class="h" d="M315.067,508.253l-3.358-3.153-.308.411,2.022,12.987,4.112.891-1.611-10.006" transform="translate(-1.709 -128.574)"/><path class="h" d="M327,627.027l2.981-2.227,31.011,6.545v3.667" transform="translate(-11.963 -207.257)"/><path class="h" d="M453.4,652.732V649.1l13.844,3.016v3.6" transform="translate(-95.05 -223.23)"/><path class="h" d="M561.6,599.516l3.8.685.788-12.61-3.667-.891" transform="translate(-166.174 -182.213)"/><path class="b" d="M338.5,621.317l.48-.617,75.078,15.694v1.885" transform="translate(-19.523 -204.562)"/><path class="b" d="M581.3,633.083v-1.85L601.175,617.8l.582.48.445.514" transform="translate(-179.123 -202.656)"/><path class="b" d="M317.1,501.651l6.819-.651,83.337,9.835.24,2.125.137.514h-.788" transform="translate(-5.456 -125.879)"/><path class="i" d="M407.353,524.957l-84.5-10.589-.651-.068.137.651a261.278,261.278,0,0,1,4.523,36.837v.377l76.278,16.551.548.137.034-.583c1.3-22.376,2.81-36.425,3.6-42.8Zm-79.567,26.42a260.945,260.945,0,0,0-4.386-35.946l.754.1a323.184,323.184,0,0,1,4.078,34.849l.034.377,74.564,16c-.034.308-.034.583-.069.891Zm1.131-5.962c-.274-3.427-.617-6.922-.994-10.28,4.934.891,37.488,6.613,76.243,12.2q-.411,4.986-.822,10.9C370.516,554.221,332.96,546.305,328.916,545.414Zm74.359,13.809c-.137,2.09-.274,4.283-.411,6.545L329.19,549.937l-.206-3.5C334.262,547.573,371.03,555.283,403.275,559.224ZM327.82,534.14c-.411-3.358-.822-6.545-1.234-9.286,5.62.514,48.693,4.626,78.608,10.623-.308,3.118-.651,6.751-.994,10.931C364.656,540.651,331.555,534.791,327.82,534.14Zm77.477.308c-30.429-6.065-74.325-10.211-78.882-10.623-.583-3.941-1.062-6.922-1.268-8.19l81.109,10.177C405.982,527.938,405.674,530.817,405.3,534.449Z" transform="translate(-8.808 -134.622)"/><path class="i" d="M579,563.656,601.171,548.1l.034-.24c1.508-15.317,3.529-28.441,4.934-36.734l.171-.925-23.644,11.445-.034.274c-.617,4.763-2.193,18.3-3.564,40.743Zm3.427-31.525c1.611-.959,12.233-7.23,19.429-11.788-.583,3.8-1.1,7.607-1.542,11.137a148.692,148.692,0,0,0-18.675,9.149C581.913,537.442,582.187,534.6,582.427,532.131Zm-.891,9.7a154.236,154.236,0,0,1,18.675-9.218c-.343,2.913-.651,5.586-.891,7.813a172.319,172.319,0,0,1-18.744,13.638C580.919,549.538,581.227,545.46,581.536,541.828Zm-1.028,13.433a176.159,176.159,0,0,0,18.675-13.467c-.274,2.57-.411,4.352-.48,4.969l-18.5,13.021Q580.353,557.471,580.508,555.261Zm19.738-7.71L580.1,561.7c0-.206.034-.445.034-.651l19.326-13.6.171-.137.034-.24c0-.206,1.713-19.875,4.592-34.815l.754-.377C603.6,520.206,601.685,532.85,600.245,547.551ZM583.557,522.3l19.6-9.492c-.377,2.022-.754,4.146-1.1,6.271-6.545,4.181-16.585,10.143-19.5,11.856C582.975,526.956,583.318,524.078,583.557,522.3Z" transform="translate(-177.611 -131.927)"/><path class="i" d="M440.554,496.765l.445.034-20.834,10.109-78.642-9.869,3.05-.959-1.816-.48L337,497.45,420.165,507.9h.137l24.192-11.685-2.639-.308Z" transform="translate(-18.537 -122.33)"/><path class="i" d="M432.846,491.02l-6.476-.72-.034.171-1.1.685,5.928.651-29.161,14.118-90.361-11.342,9.835-3.153-1.816-.445-10.349,3.324-.514.171.171.788c5.346,26.351,5.414,43.553,5.414,43.724v.377l82.891,17.99.411.1.206.034.377-.274,28.715-20.183.034-.24c2.262-23.85,5.86-42.662,6.305-44.958a1.1,1.1,0,0,0,.034-.24l.1-.514Zm-34.609,51.366v.24c-.034.343-.034.72-.069,1.1v.137c0,.206-.034.411-.034.617l-.1,1.85c-.034.514-.069,1.062-.1,1.576l-.1,1.439c-.1,1.816-.206,3.667-.308,5.586-.034.445-.069.925-.069,1.4l-82.069-17.75c-.034-2.707-.514-19.121-5.38-43.176l66.2,8.293,25.323,3.187h0v.069a.373.373,0,0,1-.034.171v.1c0,.069-.034.171-.034.274v.308c0,.069-.034.171-.034.24v.137c0,.1-.034.171-.034.274v.069c-.034.206-.069.445-.1.685a.435.435,0,0,1-.034.206c0,.1-.034.24-.034.343,0,.069-.034.171-.034.24-.034.343-.1.72-.137,1.131v.034q-.051.411-.1.925v.069c-.1.857-.206,1.782-.308,2.844,0,.1-.034.206-.034.308-.069.617-.137,1.234-.206,1.919-.034.24-.034.48-.069.754-.034.514-.1,1.028-.171,1.542v.069c-.1,1.165-.24,2.433-.377,3.769-.069.583-.1,1.165-.171,1.782,0,.137-.034.274-.034.445-.034.274-.034.583-.069.891-.034.445-.069.891-.1,1.371q-.1,1.131-.206,2.364c-.034.583-.1,1.2-.137,1.816v.171c0,.171-.034.343-.034.514-.034.514-.069,1.028-.137,1.542v.069c-.034.343-.034.651-.069.994,0,.171-.034.343-.034.548-.034.48-.069.959-.1,1.473a5.107,5.107,0,0,1-.069.72c0,.171-.034.377-.034.548-.034.548-.069,1.131-.137,1.713-.034.274-.034.514-.069.788C398.3,541.494,398.27,541.94,398.236,542.385Zm27.859-5.894-27.722,19.5c0-.24.034-.48.034-.72.034-.48.069-.959.069-1.439.034-.445.069-.925.069-1.371v-.069c.034-.377.034-.754.069-1.131.034-.754.1-1.473.137-2.193.034-.445.069-.891.069-1.336.069-.891.1-1.748.171-2.57.034-.411.069-.857.069-1.268.034-.685.1-1.371.137-2.056,0-.206.034-.445.034-.651.069-1.1.137-2.159.24-3.187.034-.411.069-.822.1-1.2.034-.617.1-1.268.137-1.85.034-.377.069-.754.069-1.1l.1-1.131v-.206c.034-.308.034-.617.069-.925,0-.171.034-.377.034-.548.034-.514.069-1.028.137-1.508l.1-1.028a9.036,9.036,0,0,0,.069-.959v-.206c0-.171.034-.343.034-.514s.034-.343.034-.48c.034-.343.069-.651.069-.959.034-.206.034-.411.069-.651.069-.685.137-1.371.171-2.022v-.1c.034-.377.069-.72.1-1.1a.434.434,0,0,1,.034-.206,6.659,6.659,0,0,0,.069-.822v-.1c0-.137.034-.24.034-.377.137-1.336.24-2.536.377-3.667,0-.1.034-.24.034-.343.069-.72.137-1.371.206-1.987a.435.435,0,0,1,.034-.206c.1-.891.206-1.713.274-2.467,0-.137.034-.24.034-.377.034-.411.1-.754.137-1.1,0-.137.034-.274.034-.377,0-.137.034-.24.034-.377,0-.1.034-.206.034-.308s.034-.206.034-.343a.206.206,0,0,1,.034-.137v-.034c0-.1.034-.171.034-.24,0-.137.034-.274.034-.377a2696.786,2696.786,0,0,1,.069-.274c.034-.206.034-.377.069-.48l29.709-14.392C431.475,496.605,428.22,514.355,426.095,536.492Z" transform="translate(0 -118.846)"/><g transform="translate(381.788 424.979)"><path class="hg" d="M560.074,652.2,543.9,665.05l3.153-9.423Z" transform="translate(-536.327 -650.247)"/><path class="hh" d="M559.088,648.979,542.4,647.3l3.667,5.106Z" transform="translate(-535.341 -647.026)"/><path class="l" d="M533.314,662.2,523,669.807l7.162,1.816Z" transform="translate(-522.589 -656.82)"/><path class="m" d="M533.314,652.406,523,660.013l6.648-12.713Z" transform="translate(-522.589 -647.026)"/><path class="n" d="M531.174,671.609l1.782-7.059L524.8,670l9.595-7.3" transform="translate(-523.772 -657.149)"/><path class="n" d="M557.746,649.511,546.781,651.7l-3.667-3.667-.514-.137,3.632,4.934" transform="translate(-535.472 -647.42)"/><path class="hi" d="M529.647,661.406l15.968-12.679.583-.48-.754-.068-16.379-1.645-.377-.034-6.682,12.747-.206.411,7.607,1.919Zm-.206-14.289,14.632,1.473-11.411,3.016Zm14.94,1.919-14.495,11.479,2.844-8.43Zm-15.489-1.748,3.29,4.557-9.218,6.751Zm3.118,5.311-2.844,8.361-6.374-1.611Z" transform="translate(-521.8 -646.5)"/></g><g transform="translate(398.716 419.325)"><path class="hj" d="M572.2,657.433l14.7-5.14-9.115-2.193Z" transform="translate(-571.857 -643.212)"/><path class="l" d="M588.5,644.841l6-2.741,3.118,4.934Z" transform="translate(-582.572 -637.954)"/><path class="m" d="M584.162,637.611,581.9,631.1l8.258,3.769Z" transform="translate(-578.234 -630.723)"/><path class="hk" d="M572.2,644.944l3.324-13.844,2.262,6.511Z" transform="translate(-571.857 -630.723)"/><path class="n" d="M583.2,632.6l2.433,4.626,4.763-1.371.377.308-5.757,2.536-1.748-5.414" transform="translate(-579.088 -631.709)"/><path class="hl" d="M574.7,630l-.1.445-3.255,13.57-.137.582,15.043-5.243.445-.171-3.358-5.277-.24-.1Zm.617.891,7.162,3.255-5.209,2.4Zm-.411.445,1.885,5.414.034.1-.171.206-4.557,6Zm-2.6,12.336,4.934-6.476,8.087,1.919Zm13.4-5-7.744-1.85,5.106-2.33Z" transform="translate(-571.2 -630)"/></g><g transform="translate(356.671 428.782)"><path class="hm" d="M473.241,676.109,459.5,678.131l4.352-6.031Z" transform="translate(-455.731 -667.131)"/><path class="hn" d="M481.589,667.17,473.6,658.5l-1.4,4.66Z" transform="translate(-464.079 -658.192)"/><path class="ho" d="M457.279,672.1l-7.779,2.193,3.427,3.838Z" transform="translate(-449.157 -667.131)"/><path class="m" d="M463.129,663.16l-4.729-2.981,6.134-1.679Z" transform="translate(-455.008 -658.192)"/><path class="hp" d="M449.5,668.574l7.779-2.193L452.55,663.4Z" transform="translate(-449.157 -661.413)"/><path class="n" d="M460.3,661l3.427,1.439,1.645-2.844-1.131,4.318" transform="translate(-456.257 -658.915)"/><path class="hq" d="M466.559,666.749l-.411-.445-8.053-8.7-.377.1L452,659.279l-.308.069-2.981,5.14-.206.308,3.632,4.078.343-.034Zm-1.576-.925-7.95-3.392-.1-.034.069-.24,1.1-3.735Zm-7.367-7.539-1.131,3.872-3.941-2.467Zm-5.654,1.679,4.009,2.536-6.579,1.85Zm-2.639,4.934,6.648-1.885-3.735,5.14Zm7.4-2.022,8.327,3.564-12.2,1.816Z" transform="translate(-448.5 -657.6)"/></g><g transform="translate(401.8 417.68)"><path class="hr" d="M581.9,642.751,594.236,626.2l-.651,9.9Z" transform="translate(-581.318 -625.857)"/><path class="hs" d="M581.9,661.748l16.551-2.673-4.866-3.975Z" transform="translate(-581.318 -644.854)"/><path class="l" d="M616,635.906l8.053-10.006-7.4.1Z" transform="translate(-603.733 -625.66)"/><path class="m" d="M616,635.906l8.053-10.006-3.187,13.981Z" transform="translate(-603.733 -625.66)"/><path class="n" d="M617.022,626.769l.1,7.3L623.6,626.7l-7.4,9.526" transform="translate(-603.864 -626.186)"/><path class="n" d="M586,661.2l10.04-4.969,4.489,2.6h.514l-4.8-3.838" transform="translate(-584.013 -644.789)"/><path class="ht" d="M592.81,625.508l-12.165,16.38-.445.617.754-.1,16.277-2.639.377-.068,3.187-14.049.1-.445-7.847.1Zm3.906,13.741-14.529,2.364,10.246-5.86Zm-14.94,1.987L592.81,626.4l-.583,8.875Zm15.386-2.3-4.318-3.529,7.162-8.909Zm-4.386-4.318.583-8.807,6.579-.069Z" transform="translate(-580.2 -625.2)"/></g><g transform="translate(389.841 426.795)"><path class="hu" d="M546.7,679.829l29.161-4.729,2.056,4.763Z" transform="translate(-546.22 -667.116)"/><path class="hv" d="M546.7,665.039,571.989,652.6l3.872,7.71Z" transform="translate(-546.22 -652.326)"/><path class="hw" d="M613.006,652.6l-3.906,8.978,7.779-1.268Z" transform="translate(-587.238 -652.326)"/><path class="m" d="M620.5,652.6l11.753,7.573-7.881.137Z" transform="translate(-594.732 -652.326)"/><path class="l" d="M639.681,674.7l-7.881.137,2.056,4.763Z" transform="translate(-602.159 -666.853)"/><path class="hx" d="M546.7,665.039l4.352-7.059,20.937-5.38" transform="translate(-546.22 -652.326)"/><path class="n" d="M610.4,662.484l5.654-1.816L613.9,654.5l3.838,7.093" transform="translate(-588.092 -653.575)"/><path class="n" d="M569.722,655.3,549.5,664.381l1.85-4.386-4.455,6.682.72-.24" transform="translate(-546.352 -654.101)"/><path class="hy" d="M545.3,664.787h31.765l6.168-5.174-.411-.274L571.274,651.9l-.171-.1-.137.034-20.9,5.346-.1.034-4.386,7.093Zm3.769-.514,18.4-2.981,7.333-1.2,1.782,4.181Zm33-4.352L577.1,664.1l-1.748-4.043Zm-.137-.514-6.819.137v-.034h0l-3.358-6.682Zm-7.367.171-6.956,1.131,3.5-8.018ZM550.3,657.694,568.67,653,546.5,663.9Zm20.252-5.037-3.564,8.156-19.5,3.153Z" transform="translate(-545.3 -651.8)"/></g><g transform="translate(400.224 420.113)"><path class="hz" d="M590.984,633.6,576.9,640.248l9.286,1.2Z" transform="translate(-576.455 -633.154)"/><path class="l" d="M586.186,654.2l-5.654,3.392L576.9,653Z" transform="translate(-576.455 -645.907)"/><path class="m" d="M593.154,656.5l2.947,6.237-8.6-2.844Z" transform="translate(-583.422 -648.208)"/><path class="ia" d="M608.8,633.6l-1.85,14.084L604,641.447Z" transform="translate(-594.268 -633.154)"/><path class="n" d="M596.016,662.094l-2.913-4.352-4.592,1.885-.411-.274,5.448-3.153,2.33,5.209" transform="translate(-583.817 -648.01)"/><path class="ib" d="M588.519,647.172l.069-.445,1.782-13.844.069-.583-14.392,6.819-.445.206,3.906,4.9.274.1Zm-.72-.788-7.47-2.467,4.934-2.947Zm.343-.48-2.467-5.209-.034-.1.137-.24,3.906-6.442Zm1.3-12.542-4.215,6.956L577,639.256Zm-12.781,6.374,7.881,1.028-4.8,2.878Z" transform="translate(-575.6 -632.3)"/></g></g></svg>