<svg xmlns="http://www.w3.org/2000/svg" xmlns:xlink="http://www.w3.org/1999/xlink" width="164.769" height="131.017" viewBox="0 0 164.769 131.017"><defs><style>.a{fill:url(#a);}.b{fill:url(#b);}.c{fill:#30c2eb;}.d{fill:#49ebed;}.e{fill:#fff;}.f{fill:url(#c);}.g{fill:url(#d);}.h{fill:url(#e);}.i{fill:url(#f);}.j{fill:url(#g);}.k{fill:url(#h);}.l{fill:url(#i);}.m{fill:url(#j);}.n{fill:url(#k);}.o{fill:url(#l);}.p{fill:url(#m);}.q{fill:url(#n);}.r{fill:url(#o);}.s{fill:url(#p);}.t{fill:url(#q);}.u{fill:url(#r);}.v{fill:url(#s);}.w{fill:url(#t);}.x{fill:url(#u);}.y{fill:url(#v);}.z{fill:url(#w);}.aa{fill:url(#x);}.ab{fill:url(#y);}.ac{fill:url(#z);}.ad{fill:url(#aa);}.ae{fill:url(#ab);}.af{fill:url(#ac);}.ag{fill:url(#ad);}.ah{fill:url(#ae);}.ai{fill:url(#af);}.aj{fill:url(#ag);}.ak{fill:url(#ah);}.al{fill:url(#ai);}.am{fill:url(#aj);}.an{fill:url(#ak);}.ao{fill:url(#al);}.ap{fill:url(#am);}.aq{fill:url(#an);}.ar{fill:url(#ao);}.as{fill:url(#ap);}.at{fill:url(#aq);}.au{fill:url(#ar);}.av{fill:url(#as);}.aw{fill:url(#at);}.ax{fill:url(#au);}.ay{fill:url(#av);}.az{fill:url(#aw);}.ba{fill:url(#ax);}.bb{fill:url(#ay);}.bc{fill:url(#az);}.bd{fill:url(#ba);}</style><linearGradient id="a" x1="-16.187" y1="-25.562" x2="-15.144" y2="-25.562" gradientUnits="objectBoundingBox"><stop offset="0" stop-color="#4aefeb"/><stop offset="1" stop-color="#0782e2"/></linearGradient><linearGradient id="b" x1="-21.909" y1="-23.652" x2="-21.075" y2="-23.652" gradientUnits="objectBoundingBox"><stop offset="0" stop-color="#002bb5"/><stop offset="1" stop-color="#0782e2"/></linearGradient><linearGradient id="c" x1="-11.689" y1="-12.852" x2="-10.712" y2="-12.852" gradientUnits="objectBoundingBox"><stop offset="0" stop-color="#002bb5"/><stop offset="0.299" stop-color="#0782e2"/><stop offset="0.447" stop-color="#002bb5"/><stop offset="0.734" stop-color="#49ebed"/><stop offset="1" stop-color="#002bb5"/></linearGradient><linearGradient id="d" x1="-29.581" y1="-20.302" x2="-27.959" y2="-20.302" xlink:href="#a"/><linearGradient id="e" x1="-75.322" y1="-19.594" x2="-72.906" y2="-19.594" xlink:href="#b"/><linearGradient id="f" x1="-25.043" y1="-13.042" x2="-23.298" y2="-13.042" xlink:href="#c"/><linearGradient id="g" x1="-66.207" y1="25.044" x2="-64.366" y2="25.044" xlink:href="#b"/><linearGradient id="h" x1="-64.795" y1="39.635" x2="-63.4" y2="39.635" xlink:href="#a"/><linearGradient id="i" x1="-30.202" y1="17.014" x2="-28.759" y2="17.014" xlink:href="#c"/><linearGradient id="j" x1="73.439" y1="-15.206" x2="74.97" y2="-15.206" xlink:href="#b"/><linearGradient id="k" x1="77.983" y1="-25.275" x2="79.196" y2="-25.275" xlink:href="#a"/><linearGradient id="l" x1="43.098" y1="-9.02" x2="44.632" y2="-9.02" xlink:href="#c"/><linearGradient id="m" x1="-20.561" y1="52.851" x2="-19.724" y2="52.851" gradientUnits="objectBoundingBox"><stop offset="0" stop-color="#28bfea"/><stop offset="1" stop-color="#0782e2"/></linearGradient><linearGradient id="n" x1="-43.954" y1="23.823" x2="-42.166" y2="23.823" xlink:href="#b"/><linearGradient id="o" x1="-19.535" y1="22.916" x2="-18.565" y2="22.916" xlink:href="#c"/><linearGradient id="p" x1="-27.886" y1="32.86" x2="-27.299" y2="32.86" xlink:href="#a"/><linearGradient id="q" x1="-71.783" y1="26.949" x2="-69.984" y2="26.949" xlink:href="#b"/><linearGradient id="r" x1="-41.602" y1="60.579" x2="-40.726" y2="60.579" xlink:href="#b"/><linearGradient id="s" x1="-43.427" y1="56.648" x2="-42.643" y2="56.648" xlink:href="#a"/><linearGradient id="t" x1="-25.1" y1="20.027" x2="-24.132" y2="20.027" xlink:href="#c"/><linearGradient id="u" x1="-14.477" y1="13.25" x2="-14.581" y2="12.091" xlink:href="#b"/><linearGradient id="v" x1="-12.345" y1="14.9" x2="-12.057" y2="15.683" xlink:href="#m"/><linearGradient id="w" x1="-33.188" y1="39.381" x2="-32.255" y2="39.381" xlink:href="#a"/><linearGradient id="x" x1="-12.289" y1="23.283" x2="-12.5" y2="22.078" xlink:href="#m"/><linearGradient id="y" x1="-11.735" y1="11.29" x2="-11.247" y2="11.29" xlink:href="#c"/><linearGradient id="z" x1="-19.906" y1="23.711" x2="-18.627" y2="23.711" xlink:href="#a"/><linearGradient id="aa" x1="-19.261" y1="58.817" x2="-18.518" y2="58.817" xlink:href="#b"/><linearGradient id="ab" x1="-13.182" y1="20.476" x2="-12.104" y2="20.476" xlink:href="#c"/><linearGradient id="ac" x1="-7.06" y1="52.287" x2="-6.116" y2="52.287" xlink:href="#m"/><linearGradient id="ad" x1="-7.847" y1="61.148" x2="-6.798" y2="61.148" xlink:href="#b"/><linearGradient id="ae" x1="-6.041" y1="28.647" x2="-5.055" y2="28.647" xlink:href="#c"/><linearGradient id="af" x1="-15.598" y1="29.974" x2="-15.692" y2="28.697" xlink:href="#b"/><linearGradient id="ag" x1="-13.973" y1="36.435" x2="-13.698" y2="37.33" xlink:href="#m"/><linearGradient id="ah" x1="-40.725" y1="80.438" x2="-39.76" y2="80.438" xlink:href="#a"/><linearGradient id="ai" x1="-13.919" y1="57.507" x2="-14.12" y2="56.091" xlink:href="#m"/><linearGradient id="aj" x1="-12.494" y1="25.726" x2="-12.055" y2="25.726" xlink:href="#c"/><linearGradient id="ak" x1="0.867" y1="15.016" x2="0.422" y2="14.078" xlink:href="#b"/><linearGradient id="al" x1="0.7" y1="14.969" x2="1.515" y2="15.513" xlink:href="#m"/><linearGradient id="am" x1="0.017" y1="55.86" x2="1.079" y2="55.86" xlink:href="#a"/><linearGradient id="an" x1="0.86" y1="17.071" x2="0.263" y2="16.46" xlink:href="#m"/><linearGradient id="ao" x1="0.01" y1="11.863" x2="0.968" y2="11.863" xlink:href="#c"/><linearGradient id="ap" x1="-4.754" y1="68.106" x2="-3.748" y2="68.106" xlink:href="#a"/><linearGradient id="aq" x1="-7.372" y1="41.574" x2="-6.436" y2="41.574" xlink:href="#b"/><linearGradient id="ar" x1="-3.649" y1="32.757" x2="-2.666" y2="32.757" xlink:href="#c"/><linearGradient id="as" x1="40.541" y1="-4.961" x2="41.682" y2="-4.961" xlink:href="#m"/><linearGradient id="at" x1="96.61" y1="-4.272" x2="99.385" y2="-4.272" xlink:href="#b"/><linearGradient id="au" x1="31.505" y1="-3.713" x2="32.586" y2="-3.713" xlink:href="#c"/><linearGradient id="av" x1="23.866" y1="-48.185" x2="24.714" y2="-48.185" xlink:href="#m"/><linearGradient id="aw" x1="53.847" y1="-23.904" x2="55.808" y2="-23.904" xlink:href="#b"/><linearGradient id="ax" x1="22.696" y1="-22.331" x2="23.681" y2="-22.331" xlink:href="#c"/><linearGradient id="ay" x1="25.192" y1="-20.994" x2="26.601" y2="-20.994" xlink:href="#a"/><linearGradient id="az" x1="22.157" y1="-62.479" x2="22.896" y2="-62.479" xlink:href="#b"/><linearGradient id="ba" x1="16.355" y1="-19.985" x2="17.497" y2="-19.985" xlink:href="#c"/></defs><g transform="translate(-347.2 -378.4)"><g transform="translate(421.066 465.529)"><path class="a" d="M572.664,577.883l-55.264,16.5L535.408,573.3Z" transform="translate(-499.5 -555.346)"/><path class="b" d="M584.462,563.274,543,541.6l4.206,17.092Z" transform="translate(-511.297 -540.737)"/><path class="c" d="M521.168,573.3,486.5,582.2l16.66,12.185Z" transform="translate(-485.26 -555.346)"/><path class="d" d="M521.168,558.692l-34.668,8.9L516.963,541.6Z" transform="translate(-485.26 -540.737)"/><path class="e" d="M504.481,593.587l11.969-16.445L489.6,582.75l32.512-8.95" transform="translate(-486.689 -555.576)"/><path class="e" d="M580.48,562.587l-30.732-5.607-5.715-13.371L542.9,542.8l4.313,16.552" transform="translate(-511.251 -541.29)"/><path class="f" d="M502.693,579.629l54.617-16.283,2.049-.593-1.833-.971-40.761-21.3-.917-.485-30.678,26.1-.971.809,17.739,12.94Zm14.288-37.31,36.394,19.033-32.727-4.044Zm36.771,20.542-49.5,14.719,16.121-18.871Zm-38.281-20.65,3.774,15.2-30.894,7.926Zm2.534,17.038-16.013,18.763-14.881-10.837Z" transform="translate(-484.2 -540)"/></g><g transform="translate(439.397 419.107)"><path class="g" d="M553.891,535.38,519.6,491.6l25.287,8.735Z" transform="translate(-518.845 -471.273)"/><path class="h" d="M575.5,534.458l4.8-44.858-13.8,9.813Z" transform="translate(-540.458 -470.352)"/><path class="c" d="M544.887,483.883,524.614,455.9,519.6,475.148Z" transform="translate(-518.845 -454.822)"/><path class="d" d="M549.173,483.883,528.9,455.9l34.075,18.17Z" transform="translate(-523.131 -454.822)"/><path class="e" d="M521.2,476.145l18.979,4.96L525.675,459l19.518,25.988" transform="translate(-519.582 -456.25)"/><path class="e" d="M575.142,530.607l-5.823-29.546,10.028-9.813.323-1.348L566.3,499.6" transform="translate(-540.366 -470.49)"/><path class="i" d="M518.631,474.981l33.859,43.241,1.24,1.617.216-1.995,4.691-44.1.108-1.024-34.129-18.224-1.078-.593L518.2,474.388Zm38.55-.324-4.206,39.359-7.926-30.786Zm-5.446,40.222-30.678-39.2,22.645,7.764ZM556.7,473.2,544.4,481.937,526.4,457.027Zm-14.342,8.357L519.871,473.8l4.475-17.145Z" transform="translate(-518.2 -453.9)"/></g><g transform="translate(461.233 450.702)"><path class="j" d="M562.85,574.483,560.1,540.3l13.317,7.818Z" transform="translate(-559.345 -525.311)"/><path class="d" d="M565.2,575.635,590.055,542.8l-14.288,6.47Z" transform="translate(-561.695 -526.463)"/><path class="k" d="M573.417,536.228,572.77,514.5,560.1,528.41Z" transform="translate(-559.345 -513.422)"/><path class="c" d="M584.247,536.228,583.6,514.5l14.935,15.258Z" transform="translate(-570.175 -513.422)"/><path class="e" d="M561.6,542.8l8.249,7.171-5.823,22.591,9.921-23.508" transform="translate(-560.036 -526.463)"/><path class="l" d="M572.988,513.417l-.863-.917L558.7,527.219l.054.917,2.858,35.477,1.24-1.671,24.478-32.458.593-.755Zm-1.51,1.941.539,18.709-11.43-6.74Zm-11.215,13.479,11.592,6.793L562.69,558.6Zm4.583,28.2,8.465-21.189,11.43-5.23Zm8.626-22.807-.539-18.871,12.886,13.21Z" transform="translate(-558.7 -512.5)"/></g><g transform="translate(399.607 395.222)"><path class="m" d="M464.3,413.3l16.013,30.355L465,441.714Z" transform="translate(-453.571 -411.305)"/><path class="d" d="M455.867,413.3,446,453.306l10.568-11.592Z" transform="translate(-445.137 -411.305)"/><path class="n" d="M465.6,466l9.166,19.733,6.146-17.792Z" transform="translate(-454.17 -435.591)"/><path class="c" d="M456.568,466l9.166,19.733L446,477.592Z" transform="translate(-445.137 -435.591)"/><path class="e" d="M479.71,445.373l-10.352-3.4L465.8,418.9l.162,25.556" transform="translate(-454.262 -413.886)"/><path class="o" d="M464.241,460.228l1.132.485L471.9,441.9l-.431-.809L454.86,409.6l-.485,1.995-9.759,39.467-.216.917Zm.647-2.372-7.872-16.984,13.156,1.671Zm4.96-16.768-13.317-1.671-.593-24.748Zm-15.312-24.155.539,22.807-8.465,9.274Zm1.078,24.316,7.926,17.091L446.5,451.331Z" transform="translate(-444.4 -409.6)"/></g><g transform="translate(364.831 459.544)"><path class="p" d="M382.2,580.4l41.839-3.235L401.772,565.2Z" transform="translate(-380.96 -545.628)"/><path class="c" d="M418.5,562.573l17.523-3.073,4.745,15.043Z" transform="translate(-397.688 -543.002)"/><path class="d" d="M417.3,549.393,415.9,530.9l18.925,15.42Z" transform="translate(-396.49 -529.822)"/><path class="q" d="M382.2,564.6l18.17-33.7,1.4,18.493Z" transform="translate(-380.96 -529.822)"/><path class="e" d="M417.077,533.9l3.127,13.695,13.317-.323.809,1.078-16.768,2.7-.863-15.312" transform="translate(-396.859 -531.204)"/><path class="r" d="M399.04,528.9l-.593,1.078-17.792,33.1-.755,1.4,42.756-3.343,1.294-.108-5.068-16.067-.593-.485Zm1.078,2.7,16.445,13.371-15.2,2.642Zm-1.348.863,1.186,15.42v.269l-.539.431L383.4,561.034Zm-15.312,30.3,17.307-13.479L420.5,559.848Zm38.281-3.774-18.871-10.136,14.881-2.588Z" transform="translate(-379.9 -528.9)"/></g><g transform="translate(414.488 402.393)"><path class="s" d="M502.9,477.464,473.3,454.55l19.841-2.75Z" transform="translate(-472.599 -436.218)"/><path class="t" d="M519.859,472.3l1.887-31.7L510.1,446.639Z" transform="translate(-489.558 -431.057)"/><path class="u" d="M493.141,442.353,474.324,431.3,473.3,445.1Z" transform="translate(-472.599 -426.771)"/><path class="d" d="M507.473,439.127,504.4,424.3l14.719,8.788Z" transform="translate(-486.931 -423.545)"/><path class="v" d="M475.2,428.074l18.817,11.053L490.944,424.3Z" transform="translate(-473.475 -423.545)"/><path class="e" d="M506.4,427l3.612,9.381,8.573-2.1-10.514,5.877" transform="translate(-487.853 -424.789)"/><path class="w" d="M502.894,465.548,503,463.93l1.887-31.865-.917-.539-13.641-8.2-.7-.431L474.1,426.674l-.97.216L472,441.555l.7.539Zm-1.132-4.8-8.2-21.728-.108-.216.593-.324,9.328-4.852Zm.971-28.36-9.651,5.014-2.534-12.293Zm-13.8-7.872,2.588,12.509-15.905-9.274Zm-14.558,4.152,16.067,9.381-16.93,2.372Zm17.739,10.568,8.627,22.807L474.48,441.717Z" transform="translate(-472 -422.9)"/></g><g transform="translate(386.667 433.826)"><path class="x" d="M503.259,559,446,503.623l6.955-12.023Z" transform="translate(-432.197 -485.993)"/><path class="y" d="M494.365,569.272,426.7,534.658,437.106,513.9Z" transform="translate(-423.303 -496.269)"/><path class="z" d="M426.7,534.658l25.664-5.985L437.106,513.9Z" transform="translate(-423.303 -496.269)"/><path class="d" d="M424.488,520.372,421.9,482.9l12.994,16.714Z" transform="translate(-421.091 -481.983)"/><path class="c" d="M421.9,482.9l12.994,16.714,6.955-12.023Z" transform="translate(-421.091 -481.983)"/><path class="aa" d="M494.365,587.014l-22.321,1.941L426.7,552.4" transform="translate(-423.303 -514.011)"/><path class="e" d="M452.115,528.2l-13.048-9.22L429.2,533.587l9.166-19.787" transform="translate(-424.455 -496.223)"/><path class="e" d="M437.6,559.4l52.137,28.953-12.455,3.073,21.62-1.186-1.671-1.078" transform="translate(-428.326 -517.237)"/><path class="ab" d="M492.756,554.8l-.809-1.078-49.873-66.8-.539-.755L420.4,481.2l.108,1.348,2.588,36.879.054.485.323.216,45.236,36.5.216.162L491.3,554.8Zm-7.225-7.279-36.07-34.884-14.342-13.91,6.093-10.622Zm-62.489-64.268,17.038,4.044-5.931,10.3Zm-.97,1.132,11.269,14.5-.054.054h0l-9,17.954Zm12.347,15.636,13.587,13.156-22.914,5.338Zm34.938,55.372-39.683-32.026,59.254,30.3ZM425.9,519.858l23.346-5.5,38.227,36.987Z" transform="translate(-420.4 -481.2)"/></g><g transform="translate(372.217 463.912)"><path class="ac" d="M397,573.068,440.457,538.4l-8.519,25.341Z" transform="translate(-395.167 -537.645)"/><path class="ad" d="M397,594.727l44.912,4.367L431.938,585.4Z" transform="translate(-395.167 -559.304)"/><path class="c" d="M461.8,563.741,489.621,543.2l-19.3-4.8Z" transform="translate(-425.029 -537.645)"/><path class="d" d="M461.8,567.842,489.621,547.3l-17.846,34.237Z" transform="translate(-425.029 -541.747)"/><path class="e" d="M471.027,540l-4.745,18.979,21.944-14.665L462.4,564.047" transform="translate(-425.305 -538.383)"/><path class="e" d="M404.4,594.312l29.492-6.039,9.921,9.867,1.348.323L435.294,585.2" transform="translate(-398.577 -559.212)"/><path class="ae" d="M438.135,537.431l-42.917,34.237-1.618,1.294,1.995.216,44.158,4.313,1.024.108,17.9-34.4.539-1.078L438.674,537Zm.7,38.5L399.423,572.1l30.678-8.2Zm-40.329-5.068L437.38,539.8l-7.6,22.7Zm41.731,4.583L431.4,563.257l24.748-18.278Zm-8.465-14.288,7.548-22.591,17.2,4.313Z" transform="translate(-393.6 -537)"/></g><g transform="translate(393.353 424.714)"><path class="af" d="M435.6,498.972,472.694,518.6l-12.4-22Z" transform="translate(-434.09 -479.185)"/><path class="c" d="M481.4,496.6l16.444,6.793L493.8,518.6Z" transform="translate(-455.197 -479.185)"/><path class="d" d="M481.4,482.591l8.681-16.391,7.764,23.184Z" transform="translate(-455.197 -465.176)"/><path class="ag" d="M435.6,484.963,468.974,466.2l-8.681,16.391Z" transform="translate(-434.09 -465.176)"/><path class="e" d="M489.688,469.6,485,482.81l11.43,6.9.108,1.348-15.636-6.74,7.494-13.371" transform="translate(-454.966 -466.742)"/><path class="ah" d="M468.061,464.3l-1.078.593L434.2,483.333l-1.4.809L470.7,504.2l1.132.593,4.313-16.283-.216-.7Zm-.539,2.858,6.74,20.111-14.288-5.877Zm-1.617,0L458.626,480.8l-.108.216-.7.054-20.165,1.941ZM436.79,484.573l21.836-2.1,11,19.464Zm34.345,17.253-10.514-18.655,13.964,5.769Z" transform="translate(-432.8 -464.3)"/></g><g transform="translate(431.687 437.492)"><path class="ai" d="M596.236,555.041,533.1,506.624l5.5-12.724Z" transform="translate(-517.356 -490.719)"/><path class="aj" d="M589.416,565.917,518.3,539.336l7.98-21.836Z" transform="translate(-510.536 -501.595)"/><path class="ak" d="M518.3,539.336l24.8-8.95L526.28,517.5Z" transform="translate(-510.536 -501.595)"/><path class="d" d="M512.4,526.433,505.5,489.5l14.881,15.1Z" transform="translate(-504.637 -488.691)"/><path class="c" d="M505.5,489.5l14.881,15.1,5.5-12.724Z" transform="translate(-504.637 -488.691)"/><path class="al" d="M589.416,584.581l-21.89,4.529L518.3,558" transform="translate(-510.536 -520.258)"/><path class="e" d="M542.66,530.124l-14.018-7.656L520.5,538.1l6.847-20.7" transform="translate(-511.55 -501.549)"/><path class="e" d="M529.9,563.7l55.156,22.753-12.077,4.529,21.4-3.666-1.833-.917" transform="translate(-515.882 -522.885)"/><path class="am" d="M584.182,552.754l-.917-.97-57.151-60.6-.647-.647L503.9,488l.27,1.348,6.793,36.34.108.485.323.216,49.118,31.056.27.162,22-4.529Zm-7.98-6.362-39.844-30.517L520.506,503.69l4.852-11.215Zm-69.5-56.666,17.361,2.049-4.691,10.891Zm-.809,1.24,12.886,13.1-.054.054h0l-6.9,18.871Zm14.072,14.126L535.01,516.63,512.9,524.555ZM561,556.1l-43.133-27.282,62.327,23.292Zm-47.231-30.355,22.591-8.141,42.217,32.35Z" transform="translate(-503.9 -488)"/></g><g transform="translate(422.899 378.4)"><path class="an" d="M531.741,496.1,529.8,416.52l13.371-3.72Z" transform="translate(-507.047 -394.253)"/><path class="ao" d="M512.939,499.281,489,427.194l22-7.494Z" transform="translate(-488.245 -397.432)"/><path class="ap" d="M489,427.194l22.537,13.695L511,419.7Z" transform="translate(-488.245 -397.432)"/><path class="d" d="M489,409.222,513.478,380.7,511,401.727Z" transform="translate(-488.245 -379.46)"/><path class="c" d="M532.28,380.7l-2.48,21.027,13.371-3.72Z" transform="translate(-507.047 -379.46)"/><path class="aq" d="M512.939,505.686l-17.253-14.234L489,433.6" transform="translate(-488.245 -403.838)"/><path class="e" d="M512.211,439.649l-2.858-15.744-17.253,3.5,20.38-7.71" transform="translate(-489.674 -397.432)"/><path class="e" d="M491.8,446.2l16.93,57.205-11.053-6.524,16.229,14.342-.377-1.995" transform="translate(-489.535 -409.645)"/><path class="ar" d="M512.833,481.6l.162-1.294,11.322-82.6.108-.917L512.833,378.4l-.863,1.024-24.047,28.09-.324.377.054.377,6.686,57.8.054.27L511.7,480.626Zm0-10.244-1.24-50.142-.485-20,11.808-3.289Zm.431-89.609,9.328,14.827-11.43,3.181Zm-1.456.108-2.157,18.224H509.6v.054l-19.033,6.47Zm-2.157,19.787.485,18.925-20.111-12.185Zm-13.91,64-5.823-50.682,20.974,63.136Zm-6.093-55.857,20.488,12.509,1.294,53.216Z" transform="translate(-487.6 -378.4)"/></g><g transform="translate(397.073 446.281)"><path class="as" d="M443.1,511.639l55.264-6.039-20.7,16.876Z" transform="translate(-441.267 -504.899)"/><path class="at" d="M443.1,516.8l35.639,27.713-1.078-16.876Z" transform="translate(-441.267 -510.06)"/><path class="c" d="M507.2,522.476,541.653,520,527.9,505.6Z" transform="translate(-470.806 -504.899)"/><path class="d" d="M507.2,534.78l34.453-2.48-33.374,19.356Z" transform="translate(-470.806 -517.203)"/><path class="e" d="M528.265,507.4l-14.234,13.479,26.473-.647-32.4,2.858" transform="translate(-471.221 -505.729)"/><path class="e" d="M449.7,520.2l28.144,10.676,3.127,13.695.917.971-1.186-16.5" transform="translate(-444.308 -511.627)"/><path class="au" d="M496.366,504.3l-54.617,5.985-2.049.216,1.564,1.24,34.992,27.282.809.647L510.6,520.205l1.078-.593L497.067,504.3Zm-20,32.943-31.218-24.316,30.3,9.489Zm-31.325-25.88,49.441-5.392-18.547,15.1Zm32.727,26.2-.917-15.043,30.625-2.211Zm.539-16.606,18.44-15.043,12.239,12.832Z" transform="translate(-439.7 -504.3)"/></g><g transform="translate(365.1 436.198)"><path class="av" d="M413.178,488.3,382.5,516.822l24.856-4.475Z" transform="translate(-381.368 -486.844)"/><path class="c" d="M407.356,532.9l-11.808,13.317L382.5,537.375Z" transform="translate(-381.368 -507.397)"/><path class="d" d="M418.508,532.9l12.616,13.587-24.424-.27Z" transform="translate(-392.52 -507.397)"/><path class="aw" d="M434.423,488.3l6.793,37.634L428.6,512.347Z" transform="translate(-402.612 -486.844)"/><path class="e" d="M429.637,545.5l-11-8.734-10.19,8.519-1.348-.323L418.584,532.4l10.19,11.43" transform="translate(-392.704 -507.167)"/><path class="ax" d="M419.867,525.39l-.216-1.24-6.686-36.987-.27-1.564-31.379,29.223-.917.863,13.964,9.435h.755Zm-2.534-1.456-21.189-.27,10.244-11.538Zm.539-1.51L407.358,511.1l-.162-.216.162-.7,4.8-19.733Zm-6.9-33.266-5.176,21.3-22,3.99Zm-27.605,26.85,21.081-3.828-10.029,11.269Z" transform="translate(-380.4 -485.6)"/></g><g transform="translate(373.619 470.382)"><path class="ay" d="M439.246,550.6,398,558.31l23.4,9.489Z" transform="translate(-397.029 -549.737)"/><path class="c" d="M421.4,574.389l-17.092,4.96L398,564.9Z" transform="translate(-397.029 -556.327)"/><path class="d" d="M426.792,582.5l3.4,18.278L409.7,587.46Z" transform="translate(-402.421 -564.438)"/><path class="az" d="M459.246,550.6,444.8,586.077,441.4,567.8Z" transform="translate(-417.03 -549.737)"/><path class="e" d="M429.809,599.038,425.28,585.72l-13.209,1.725-.971-.97L427.491,582l2.534,15.151" transform="translate(-403.066 -564.208)"/><path class="ba" d="M424.29,586.418l.485-1.132,14.18-34.83.593-1.456-42.109,7.872-1.24.216,6.74,15.42.647.431Zm-1.348-2.588L405.15,572.292l14.827-4.259Zm1.294-1.024-2.8-15.2-.054-.27.539-.485,14.611-14.072Zm11.969-31.811-15.8,15.258-20.7-8.411Zm-37.688,7.926,19.9,8.034-14.5,4.205Z" transform="translate(-396.2 -549)"/></g><g transform="translate(347.2 466.392)"><path class="bb" d="M425.067,543,385.6,582.089l5.715-26.1Z" transform="translate(-364.896 -542.245)"/><path class="bc" d="M420.228,543l-45.128.431,11.376,12.563Z" transform="translate(-360.057 -542.245)"/><path class="c" d="M374.449,567.1,349,590.5l19.733,2.7Z" transform="translate(-348.029 -553.351)"/><path class="d" d="M374.449,556.362,349,579.762,363.072,543.8Z" transform="translate(-348.029 -542.614)"/><path class="e" d="M369.523,592.855l2.75-19.464L352,590.375,375.561,568" transform="translate(-349.412 -553.766)"/><path class="e" d="M416.477,544.4l-28.684,9.166-10.945-8.788-1.348-.162,11.215,12.131" transform="translate(-360.242 -542.89)"/><path class="bd" d="M368.659,581.714l39.036-38.658,1.456-1.456h-1.995l-44.373.431h-1.024l-14.126,36.124-.431,1.132,20.974,2.911Zm-4.852-38.227,39.575-.378-29.654,11.43Zm40.653.755L369.09,579.288l5.122-23.346Zm-42-.108,10.082,11.215L349.9,576.16Zm9.975,13.263-5.068,23.238-17.577-2.426Z" transform="translate(-347.2 -541.6)"/></g></g></svg>