<svg xmlns="http://www.w3.org/2000/svg" width="84.504" height="26.408" viewBox="0 0 84.504 26.408"><defs><style>.a{opacity:0.5;}</style></defs><path class="a" d="M9.118,46.473H6.5L8.68,38.011H5.656L6.128,36.2h8.68l-.473,1.814H11.3L9.118,46.473Zm8.973-3.943-1.024,3.943H14.447L17.1,36.2h3.085a5.34,5.34,0,0,1,3.059.717,2.407,2.407,0,0,1,1.023,2.1,2.771,2.771,0,0,1-.713,1.909A4.262,4.262,0,0,1,21.5,42.107l2.243,4.365H20.891l-1.778-3.943H18.092Zm.454-1.771h.671a3.251,3.251,0,0,0,1.754-.4,1.351,1.351,0,0,0,.627-1.223.987.987,0,0,0-.409-.864,2.255,2.255,0,0,0-1.284-.288h-.636l-.722,2.776Zm13.835,3.268H28.317L26.84,46.472H24.09l6.581-10.318h3.206l1.262,10.318H32.588ZM32.252,42.2l-.222-2.46q-.085-.886-.087-1.778v-.253a17.844,17.844,0,0,1-.936,1.784L29.393,42.2h2.859Zm15.1,4.273H44.413L41.354,38.7H41.3l-.035.225q-.276,1.518-.566,2.713l-1.246,4.836H37.091L39.746,36.2h3.068l2.922,7.569h.035c.069-.355.181-.864.336-1.524s.671-2.676,1.546-6.044h2.354L47.351,46.473ZM58.49,43.437a2.661,2.661,0,0,1-1.272,2.323,6.107,6.107,0,0,1-3.446.854,6.379,6.379,0,0,1-3.059-.633V44.055a7.44,7.44,0,0,0,3.075.759,3.137,3.137,0,0,0,1.5-.3.907.907,0,0,0,.542-.818,1.152,1.152,0,0,0-.117-.531,1.517,1.517,0,0,0-.33-.425,9.243,9.243,0,0,0-1.066-.718,5.284,5.284,0,0,1-1.668-1.377,2.491,2.491,0,0,1-.482-1.468,2.637,2.637,0,0,1,.533-1.62,3.445,3.445,0,0,1,1.516-1.11,6.031,6.031,0,0,1,2.265-.4,8.222,8.222,0,0,1,3.411.7l-.936,1.638a6.9,6.9,0,0,0-2.475-.521,2,2,0,0,0-1.168.317.971.971,0,0,0-.456.836,1.089,1.089,0,0,0,.284.749,5.057,5.057,0,0,0,1.272.847,4.767,4.767,0,0,1,1.555,1.241,2.519,2.519,0,0,1,.518,1.583ZM63.2,46.473H60.58L63.235,36.2H70.23l-.464,1.785H65.4l-.679,2.65h4.065L68.3,42.41H64.24L63.2,46.473Zm14.18,0H70.36L73.015,36.2h7.029l-.464,1.785h-4.4L74.6,40.238h4.1l-.472,1.784h-4.1l-.688,2.65h4.4l-.463,1.8Zm6.6-3.943-1.024,3.943H80.338L82.993,36.2h3.085a5.34,5.34,0,0,1,3.059.717,2.4,2.4,0,0,1,1.023,2.1,2.771,2.771,0,0,1-.713,1.909,4.262,4.262,0,0,1-2.055,1.183l2.243,4.365H86.782L85,42.529H83.983Zm.454-1.771h.671a3.251,3.251,0,0,0,1.754-.4,1.351,1.351,0,0,0,.627-1.223.987.987,0,0,0-.409-.864,2.255,2.255,0,0,0-1.284-.288h-.636l-.722,2.776ZM44.725,20.249a6.034,6.034,0,0,1,2.978.586,1.9,1.9,0,0,1,1.007,1.751A2.394,2.394,0,0,1,48,24.369a3.741,3.741,0,0,1-2.031.932v.043a2.706,2.706,0,0,1,1.372.7,1.745,1.745,0,0,1,.511,1.3,2.887,2.887,0,0,1-1.316,2.54,6.427,6.427,0,0,1-3.641.893H38.4l2.659-10.52h3.665ZM41.49,28.927h1.549a2.638,2.638,0,0,0,1.579-.417,1.351,1.351,0,0,0,.573-1.158q0-1.166-1.575-1.166H42.2l-.706,2.741Zm1.145-4.512h1.281a2.827,2.827,0,0,0,1.561-.35,1.135,1.135,0,0,0,.521-1q0-.986-1.463-.987H43.228l-.594,2.34Zm13.924,3.849h-4.07l-1.48,2.5H48.255l6.59-10.563h3.21L59.32,30.769H56.765l-.206-2.5Zm-.129-1.871-.223-2.518q-.087-.943-.088-1.82V21.8a18.153,18.153,0,0,1-.937,1.826l-1.618,2.771H56.43Zm15.121,4.375H68.609l-3.063-7.958h-.053l-.035.23q-.276,1.554-.567,2.777l-1.247,4.951H61.277l2.659-10.52h3.072L69.934,28h.035c.069-.363.182-.884.336-1.561s.671-2.739,1.549-6.188h2.358l-2.66,10.52Zm12.833,0h-2.91l-1.815-4.26-1.076.5-.937,3.756H75.022l2.659-10.52h2.634L79.006,25.3l1.36-1.476,3.519-3.576h3.106L81.88,25.286l2.5,5.483ZM33.119,21.262a1.057,1.057,0,0,0-1.056-1.056H8.825a1.056,1.056,0,1,0,0,2.113H32.063A1.057,1.057,0,0,0,33.119,21.262Zm-6.338,4.225a1.057,1.057,0,0,0-1.056-1.056H8.825a1.056,1.056,0,1,0,0,2.113h16.9A1.057,1.057,0,0,0,26.782,25.487Zm-6.338,4.225a1.057,1.057,0,0,0-1.056-1.056H8.825a1.056,1.056,0,1,0,0,2.113H19.388A1.057,1.057,0,0,0,20.444,29.713Z" transform="translate(-5.656 -20.206)"/></svg>