<svg xmlns="http://www.w3.org/2000/svg" xmlns:xlink="http://www.w3.org/1999/xlink" width="146.622" height="127.45" viewBox="0 0 146.622 127.45"><defs><style>.a{fill:#3d1506;}.b{fill:#6e3517;}.c{fill:url(#a);}.d{fill:url(#b);}.e{fill:#30c2eb;}.f{fill:#49ebed;}.g{fill:#fff;}.h{fill:url(#c);}.i{fill:url(#d);}.j{fill:url(#e);}.k{fill:url(#f);}.l{fill:url(#g);}.m{fill:url(#h);}.n{fill:url(#i);}.o{fill:url(#j);}.p{fill:url(#k);}.q{fill:url(#l);}.r{fill:url(#m);}.s{fill:url(#n);}.t{fill:url(#o);}.u{fill:url(#p);}.v{fill:url(#q);}.w{fill:url(#r);}.x{fill:url(#s);}.y{fill:url(#t);}.z{fill:url(#u);}.aa{fill:url(#v);}.ab{fill:url(#w);}.ac{fill:url(#x);}.ad{fill:url(#y);}.ae{fill:url(#z);}.af{fill:url(#aa);}.ag{fill:url(#ab);}.ah{fill:url(#ac);}.ai{fill:url(#ad);}.aj{fill:url(#ae);}.ak{fill:url(#af);}.al{fill:url(#ag);}.am{fill:url(#ah);}.an{fill:url(#ai);}.ao{fill:url(#aj);}.ap{fill:url(#ak);}.aq{fill:url(#al);}.ar{fill:url(#am);}.as{fill:url(#an);}.at{fill:url(#ao);}.au{fill:url(#ap);}.av{fill:url(#aq);}.aw{fill:url(#ar);}.ax{fill:url(#as);}.ay{fill:url(#at);}.az{fill:url(#au);}.ba{fill:url(#av);}.bb{fill:url(#aw);}.bc{fill:url(#ax);}.bd{fill:url(#ay);}.be{fill:url(#az);}.bf{fill:url(#ba);}.bg{fill:url(#bb);}.bh{fill:url(#bc);}.bi{fill:url(#bd);}.bj{fill:url(#be);}.bk{fill:url(#bf);}.bl{fill:url(#bg);}.bm{fill:url(#bh);}.bn{fill:url(#bi);}.bo{fill:url(#bj);}.bp{fill:url(#bk);}.bq{fill:url(#bl);}.br{fill:url(#bm);}.bs{fill:url(#bn);}.bt{fill:url(#bo);}.bu{fill:url(#bp);}.bv{fill:url(#bq);}.bw{fill:url(#br);}.bx{fill:url(#bs);}.by{fill:url(#bt);}.bz{fill:url(#bu);}.ca{fill:#4d200b;}.cb{fill:#c3976c;}.cc{fill:#260f02;}.cd{fill:url(#bv);}.ce{fill:url(#bw);}.cf{fill:url(#bx);}.cg{fill:url(#by);}.ch{fill:url(#bz);}.ci{fill:url(#ca);}.cj{fill:url(#cb);}.ck{fill:url(#cc);}</style><linearGradient id="a" x1="0.926" y1="1.604" x2="1.958" y2="1.604" gradientUnits="objectBoundingBox"><stop offset="0" stop-color="#4aefeb"/><stop offset="1" stop-color="#0782e2"/></linearGradient><linearGradient id="b" x1="0.862" y1="1.578" x2="2.027" y2="1.578" gradientUnits="objectBoundingBox"><stop offset="0" stop-color="#002bb5"/><stop offset="1" stop-color="#0782e2"/></linearGradient><linearGradient id="c" x1="0.887" y1="1.517" x2="1.988" y2="1.517" gradientUnits="objectBoundingBox"><stop offset="0" stop-color="#002bb5"/><stop offset="0.299" stop-color="#0782e2"/><stop offset="0.447" stop-color="#002bb5"/><stop offset="0.734" stop-color="#49ebed"/><stop offset="1" stop-color="#002bb5"/></linearGradient><linearGradient id="d" x1="-12.926" y1="0.269" x2="-9.115" y2="0.269" xlink:href="#a"/><linearGradient id="e" x1="-6.019" y1="0.043" x2="-4.955" y2="0.043" xlink:href="#b"/><linearGradient id="f" x1="-5.729" y1="0.52" x2="-3.591" y2="0.52" xlink:href="#c"/><linearGradient id="g" x1="-0.001" y1="0.5" x2="0.999" y2="0.5" xlink:href="#b"/><linearGradient id="h" x1="0" y1="0.5" x2="1.001" y2="0.5" xlink:href="#a"/><linearGradient id="i" x1="0" y1="0.501" x2="1.001" y2="0.501" xlink:href="#c"/><linearGradient id="j" x1="-1.706" y1="0.672" x2="-0.253" y2="0.672" xlink:href="#b"/><linearGradient id="k" x1="-0.324" y1="-0.42" x2="0.852" y2="-0.42" xlink:href="#a"/><linearGradient id="l" x1="-0.409" y1="0.491" x2="0.818" y2="0.491" xlink:href="#c"/><linearGradient id="m" y1="0.5" x2="0.999" y2="0.5" gradientUnits="objectBoundingBox"><stop offset="0" stop-color="#28bfea"/><stop offset="1" stop-color="#0782e2"/></linearGradient><linearGradient id="n" x1="0" y1="0.5" x2="0.999" y2="0.5" xlink:href="#b"/><linearGradient id="o" x1="0" y1="0.5" x2="1" y2="0.5" xlink:href="#c"/><linearGradient id="p" x1="-0.001" y1="0.501" x2="1.001" y2="0.501" xlink:href="#a"/><linearGradient id="q" x1="0.001" y1="0.5" x2="1" y2="0.5" xlink:href="#b"/><linearGradient id="r" x1="-0.001" y1="0.5" x2="1.001" y2="0.5" xlink:href="#b"/><linearGradient id="s" x1="0.001" y1="0.5" x2="1.001" y2="0.5" xlink:href="#a"/><linearGradient id="t" x1="0" y1="0.5" x2="1.001" y2="0.5" xlink:href="#c"/><linearGradient id="u" x1="-0.001" y1="0.5" x2="1.001" y2="0.5" xlink:href="#a"/><linearGradient id="v" x1="-0.001" y1="0.5" x2="1.001" y2="0.5" xlink:href="#b"/><linearGradient id="w" x1="-0.001" y1="0.5" x2="1.001" y2="0.5" xlink:href="#b"/><linearGradient id="x" x1="-0.002" y1="0.5" x2="1.002" y2="0.5" xlink:href="#a"/><linearGradient id="y" x1="0.002" y1="0.499" x2="1.001" y2="0.499" xlink:href="#c"/><linearGradient id="z" x1="0.954" y1="0.942" x2="0.491" y2="0.013" xlink:href="#b"/><linearGradient id="aa" x1="0.51" y1="0.229" x2="1.117" y2="0.779" xlink:href="#m"/><linearGradient id="ab" x1="0.001" y1="0.5" x2="1" y2="0.5" xlink:href="#a"/><linearGradient id="ac" x1="0.629" y1="0.798" x2="0.185" y2="0.158" xlink:href="#m"/><linearGradient id="ad" x1="0" y1="0.5" x2="1.001" y2="0.5" xlink:href="#c"/><linearGradient id="ae" x1="0" y1="0.499" x2="1.001" y2="0.499" xlink:href="#b"/><linearGradient id="af" x1="-0.001" y1="0.499" x2="0.998" y2="0.499" xlink:href="#c"/><linearGradient id="ag" x1="0" y1="0.5" x2="1" y2="0.5" xlink:href="#a"/><linearGradient id="ah" x1="0" y1="0.5" x2="1.001" y2="0.5" xlink:href="#b"/><linearGradient id="ai" x1="0" y1="0.502" x2="1" y2="0.502" xlink:href="#c"/><linearGradient id="aj" x1="0.052" y1="0.383" x2="0.779" y2="0.383" xlink:href="#m"/><linearGradient id="ak" x1="1.01" y1="0.71" x2="0.708" y2="0.123" xlink:href="#b"/><linearGradient id="al" x1="0.385" y1="0.364" x2="1.051" y2="0.364" xlink:href="#a"/><linearGradient id="am" x1="0.341" y1="0.008" x2="0.798" y2="0.763" xlink:href="#c"/><linearGradient id="an" x1="-1.272" y1="0.101" x2="0.402" y2="0.101" xlink:href="#m"/><linearGradient id="ao" x1="-0.703" y1="-1.162" x2="0.222" y2="-1.162" xlink:href="#b"/><linearGradient id="ap" x1="-0.671" y1="-0.074" x2="0.395" y2="-0.074" xlink:href="#c"/><linearGradient id="aq" x1="0.557" y1="0.505" x2="0.429" y2="-0.571" xlink:href="#b"/><linearGradient id="ar" x1="0.275" y1="-0.219" x2="0.871" y2="0.356" xlink:href="#m"/><linearGradient id="as" x1="-0.742" y1="-1.089" x2="0.298" y2="-1.089" xlink:href="#a"/><linearGradient id="at" x1="1.164" y1="0.403" x2="0.415" y2="-0.182" xlink:href="#m"/><linearGradient id="au" x1="0.034" y1="0.112" x2="0.651" y2="0.112" xlink:href="#c"/><linearGradient id="av" x1="0.304" y1="0.476" x2="0.205" y2="-0.744" xlink:href="#b"/><linearGradient id="aw" x1="0.03" y1="-0.25" x2="0.442" y2="0.355" xlink:href="#m"/><linearGradient id="ax" x1="-1.832" y1="-1.037" x2="-0.744" y2="-1.037" xlink:href="#a"/><linearGradient id="ay" x1="0.335" y1="0.404" x2="-0.138" y2="-0.211" xlink:href="#m"/><linearGradient id="az" x1="-0.146" y1="0.016" x2="0.368" y2="0.016" xlink:href="#c"/><linearGradient id="ba" x1="-0.452" y1="-0.045" x2="0.723" y2="-0.045" xlink:href="#a"/><linearGradient id="bb" x1="-1.037" y1="0.171" x2="0.58" y2="0.171" xlink:href="#b"/><linearGradient id="bc" x1="-0.431" y1="0.169" x2="0.95" y2="0.169" xlink:href="#c"/><linearGradient id="bd" x1="-1.809" y1="3.157" x2="-0.971" y2="3.157" xlink:href="#m"/><linearGradient id="be" x1="-5.06" y1="0.865" x2="-3.252" y2="0.865" xlink:href="#b"/><linearGradient id="bf" x1="-1.732" y1="1.165" x2="-0.76" y2="1.165" xlink:href="#c"/><linearGradient id="bg" x1="0.695" y1="1.644" x2="0.592" y2="0.475" xlink:href="#b"/><linearGradient id="bh" x1="0.343" y1="0.985" x2="0.631" y2="1.777" xlink:href="#m"/><linearGradient id="bi" x1="-1.387" y1="0.597" x2="-0.45" y2="0.597" xlink:href="#a"/><linearGradient id="bj" x1="0.399" y1="2.858" x2="0.189" y2="1.635" xlink:href="#m"/><linearGradient id="bk" x1="0.103" y1="0.899" x2="0.586" y2="0.899" xlink:href="#c"/><linearGradient id="bl" x1="-1.464" y1="1.636" x2="-0.173" y2="1.636" xlink:href="#a"/><linearGradient id="bm" x1="-1.36" y1="5.16" x2="-0.618" y2="5.16" xlink:href="#b"/><linearGradient id="bn" x1="-0.68" y1="1.741" x2="0.403" y2="1.741" xlink:href="#c"/><linearGradient id="bo" x1="-0.535" y1="0.344" x2="0.404" y2="0.344" xlink:href="#m"/><linearGradient id="bp" x1="-0.726" y1="-1.612" x2="0.33" y2="-1.612" xlink:href="#b"/><linearGradient id="bq" x1="-0.388" y1="0.022" x2="0.597" y2="0.022" xlink:href="#c"/><linearGradient id="br" x1="0.096" y1="0.657" x2="1.103" y2="0.657" xlink:href="#a"/><linearGradient id="bs" x1="-0.39" y1="1.348" x2="0.539" y2="1.348" xlink:href="#b"/><linearGradient id="bt" x1="0.257" y1="1.052" x2="1.24" y2="1.052" xlink:href="#c"/><linearGradient id="bu" x1="0.498" y1="0.292" x2="0.501" y2="0.884" gradientUnits="objectBoundingBox"><stop offset="0" stop-color="#925c32"/><stop offset="1" stop-color="#6e3517"/></linearGradient><linearGradient id="bv" x1="-2.975" y1="-56.592" x2="-3.046" y2="-62.503" xlink:href="#b"/><linearGradient id="bw" x1="-3.344" y1="-29.273" x2="-3.098" y2="-27.651" xlink:href="#m"/><linearGradient id="bx" x1="-16.053" y1="-34.361" x2="-14.924" y2="-34.361" xlink:href="#a"/><linearGradient id="by" x1="-3.685" y1="-27.52" x2="-3.886" y2="-29.169" xlink:href="#m"/><linearGradient id="bz" x1="-2.729" y1="-21.188" x2="-2.387" y2="-21.188" xlink:href="#c"/><linearGradient id="ca" x1="38.324" y1="-10.447" x2="39.153" y2="-10.447" xlink:href="#b"/><linearGradient id="cb" x1="62.641" y1="-14.94" x2="63.664" y2="-14.94" xlink:href="#a"/><linearGradient id="cc" x1="31.67" y1="-5.971" x2="32.849" y2="-5.971" xlink:href="#c"/></defs><g transform="translate(-316.008 -340.2)"><path class="a" d="M380.024,447.7s-5.143,2.83-3.867,4.864-.757,1-.757,1,2.432,2.671,3.349,2.272,2.95-1.2,2.95-1.2l1.874-1.953-.359-3.109" transform="translate(-35.715 -64.645)"/><path class="a" d="M357.726,399.958l2.432,2.193s6.737,1.914,7.016,2.153,5.023,2.511,4.664,4.266-1.435,4.9-1.435,4.9l4.864,1.036,2.432-6.857-.917-7.614L370.8,393.5l-8.77.678s-4.784,1.555-4.545,4.584" transform="translate(-24.938 -32.052)"/><path class="a" d="M631.755,410.863l8.332-5.222.957-2.591-.718-3.149L630.2,405.641" transform="translate(-188.938 -35.9)"/><path class="a" d="M626.647,448.162l10.086-1.515,1.116-2.392-.757-2.83-4.345-1.834L625.97,436.8l-3.07,1.4.877,4.266" transform="translate(-184.549 -58.09)"/><path class="b" d="M638.945,415.8l-.8,12.4-8.093-3.787-1.355-1.993.6-1.475,8.172-4.305" transform="translate(-188.036 -45.462)"/><path class="b" d="M368.1,416.758l4.026,7.176,1.874,5.9s5.5-3.389,3.987-7.654c-1.475-4.266-8.85-5.98-8.85-5.98" transform="translate(-31.325 -45.702)"/><g transform="translate(335.26 351.322)"><path class="c" d="M416.994,413.228,379.6,403.74l17.541-5.94Z" transform="translate(-373.501 -385.96)"/><path class="d" d="M443.453,396.21,427.028,369.5,423.6,380.782Z" transform="translate(-399.96 -368.942)"/><path class="e" d="M388.962,387.577,366,380.8l5.422,12.717Z" transform="translate(-365.322 -375.737)"/><path class="f" d="M388.962,380.782,366,374l26.391-4.5Z" transform="translate(-365.322 -368.942)"/><path class="g" d="M372.964,394.082l12.518-5.3L368.1,382.8l21.766,5.98" transform="translate(-366.585 -376.94)"/><path class="g" d="M441.579,394.638l-15.707-13.754,1.316-9.647-.4-.837-3.189,11" transform="translate(-399.96 -369.483)"/><path class="h" d="M370.519,386.4l36.955,9.368,1.4.359-.718-1.2L392.006,368.7l-.359-.6-26.51,4.5-.837.159,5.78,13.514Zm21.009-16.544,14.391,23.4L388.5,379.741ZM405.6,394.292,372.114,385.8l15.707-5.342Zm-14.949-25-3.03,10.006-20.451-6.02Zm-4.345,10.644-15.667,5.3-4.824-11.322Z" transform="translate(-364.3 -368.1)"/></g><g transform="translate(425.036 368.783)"><path class="i" d="M591.02,473.49l-.12-38.59,10.126,15.508Z" transform="translate(-590.342 -425.731)"/><path class="j" d="M591.2,496.882l21.766-22.564-11.76-.518Z" transform="translate(-590.522 -449.123)"/><path class="e" d="M601.026,437.719l.8-23.919L590.9,422.212Z" transform="translate(-590.342 -413.043)"/><path class="f" d="M616.3,437.719l.8-23.919,10.963,24.437Z" transform="translate(-605.616 -413.043)"/><path class="g" d="M592.5,423.895l8.292,10.8,1.475-18.3-.4,22.564" transform="translate(-591.304 -414.606)"/><path class="g" d="M595.1,494.57l9.408-18.657,9.647-1.156.757-.6-11.441-.359" transform="translate(-592.867 -449.123)"/><path class="k" d="M589.54,421.348l.12,38.111v1.435l.957-1,21.368-22.165.478-.518L601.5,412.657l-.359-.757L589.5,420.87Zm21.248,16.185-19.1,19.773,8.77-20.212Zm-20.132,19.733-.12-34.523,9.089,13.913Zm20.491-20.69-10.445-.438.718-21.328Zm-11.4-1.555-9.01-13.833,9.767-7.495Z" transform="translate(-589.5 -411.9)"/></g><g transform="translate(412.16 398.802)"><path class="l" d="M560.1,514.193,573.136,494.3l3.987,9.926Z" transform="translate(-558.944 -491.47)"/><path class="f" d="M560.1,529.166l27.587-7.415L577.122,519.2Z" transform="translate(-558.944 -506.443)"/><path class="m" d="M596.787,500.859l8.89-12.159L592.8,490.932Z" transform="translate(-578.608 -488.102)"/><path class="e" d="M602.8,500.859l8.89-12.159,1.674,14.71Z" transform="translate(-584.621 -488.102)"/><path class="g" d="M575.362,497l1.435,7.415L564,514.341l15.468-8.691" transform="translate(-561.289 -493.093)"/><path class="n" d="M584.827,488.077l-.08-.877-13.634,2.352-.359.518L557.2,510.721l1.4-.359,27.228-7.335.638-.159Zm-1.674.4L575.5,498.96l-3.389-8.571Zm-11.88,2.631,3.468,8.691-14.83,8.651Zm-9.488,17.381,13.674-7.973,8.491,2.033Zm14.431-8.81,7.734-10.564,1.435,12.757Z" transform="translate(-557.2 -487.2)"/></g><g transform="translate(404.147 340.918)"><path class="o" d="M577.32,345l-4.146,23.441-7.574-7.614Z" transform="translate(-554.238 -343.804)"/><path class="f" d="M561.144,345,538.7,362.7l10.724-1.874Z" transform="translate(-538.062 -343.804)"/><path class="p" d="M560.489,384.7,557.1,399.41l10.963-7.1Z" transform="translate(-549.127 -367.678)"/><path class="e" d="M549.424,384.7l-3.389,14.71L538.7,386.574Z" transform="translate(-538.062 -367.678)"/><path class="g" d="M572.976,370.411l-4.266-6.259L576.6,350l-10.8,14.033" transform="translate(-554.359 -346.811)"/><path class="q" d="M544.475,373.693l.438.757,11.6-7.535.12-.6L560.939,342l-1.116.877-22.2,17.461-.518.4Zm1.355-1.036,2.91-12.637,6.5,6.538Zm9.887-7.056-6.578-6.618,10.205-13.793Zm1.874-19.733-9.408,12.717-8.611,1.475Zm-9.767,13.793-2.95,12.757-6.339-11.162Z" transform="translate(-537.1 -342)"/></g><g transform="translate(360.574 364.996)"><path class="r" d="M430.4,431.1l24.318,16.026L447.582,431.1Z" transform="translate(-429.364 -419.659)"/><path class="e" d="M473.5,431.1l10.923,5.781-3.787,10.245Z" transform="translate(-455.282 -419.659)"/><path class="f" d="M473.5,414.924l7.136-10.724,3.787,16.5Z" transform="translate(-455.282 -403.482)"/><path class="s" d="M430.4,414.924,454.718,404.2l-7.136,10.724Z" transform="translate(-429.364 -403.482)"/><path class="g" d="M480.156,407.3l-4.146,8.85,7.455,5.462v.957L473.1,416.908l6.06-8.77" transform="translate(-455.041 -405.347)"/><path class="t" d="M453.473,402.4l-.8.359L428.8,413.323l-1,.439,24.836,16.385.757.478,4.066-10.963-.12-.518Zm-.558,1.953,3.309,14.352-9.448-5.023Zm-1.116-.12-5.94,8.97-.12.159H431.189ZM430.511,414.36h15.229l6.3,14.192Zm22.6,14.192-6.02-13.594,9.249,4.9Z" transform="translate(-427.8 -402.4)"/></g><g transform="translate(419.336 349.329)"><path class="u" d="M583.018,407.555,576.6,382.4l12.039,6.976Z" transform="translate(-576.042 -374.706)"/><path class="v" d="M592.7,418.079l14.551-16.544-8.93-1.634Z" transform="translate(-585.724 -385.23)"/><path class="w" d="M588.639,378.672,583.018,364.6l-6.418,7.1Z" transform="translate(-576.042 -364.002)"/><path class="f" d="M606.8,385.648l4.624-9.448,4.305,11.083Z" transform="translate(-594.203 -370.978)"/><path class="x" d="M592.7,364.6l5.621,14.073,4.624-9.448Z" transform="translate(-585.724 -364.002)"/><path class="g" d="M611.264,379.3l-2.033,6.7,5.581,2.512-8.212-1.276" transform="translate(-594.082 -372.842)"/><path class="y" d="M581.937,396.986l.757-.837,14.591-16.624-.279-.678-4.026-10.325-.2-.518-10.086-4.624-.638-.279-6.857,7.574.159.6Zm1.4-3.07,4.744-15.388.04-.159.438.08,7.176,1.316Zm12.6-15.149-7.415-1.355,3.827-7.814Zm-4.186-10.206-3.907,7.973-4.744-11.88Zm-9.727-3.947,4.784,12-10.285-5.9ZM587.2,377.97l-4.983,16.185-5.741-22.325Z" transform="translate(-575.2 -363.1)"/></g><g transform="translate(343.831 376.039)"><path class="z" d="M393.758,474.455,387.3,449.3l12.039,6.937Z" transform="translate(-386.702 -441.646)"/><path class="aa" d="M403.5,484.918l14.511-16.544-8.93-1.674Z" transform="translate(-396.444 -452.109)"/><path class="ab" d="M399.339,445.533,393.758,431.5l-6.458,7.1Z" transform="translate(-386.702 -430.942)"/><path class="f" d="M417.5,452.508l4.624-9.408,4.305,11.083Z" transform="translate(-404.863 -437.917)"/><path class="ac" d="M403.5,431.5l5.581,14.033,4.624-9.408Z" transform="translate(-396.444 -430.942)"/><path class="g" d="M421.964,446.2l-1.993,6.7,5.581,2.472-8.252-1.236" transform="translate(-404.742 -439.782)"/><path class="ad" d="M392.577,463.946l.757-.837,14.591-16.624-.279-.678-4.026-10.325-.2-.518-10.126-4.585-.638-.279-6.857,7.574.159.6Zm1.435-3.109,4.744-15.388.04-.159.439.08,7.176,1.316Zm12.6-15.149-7.415-1.355,3.827-7.814Zm-4.186-10.166-3.907,7.973-4.744-11.88Zm-9.767-3.947,4.784,12-10.285-5.94Zm5.222,13.355L392.9,461.075l-5.741-22.325Z" transform="translate(-385.8 -430.1)"/></g><g transform="translate(383.656 352.08)"><path class="ae" d="M531.274,458.223l-7.774-54.7,8.93-3.628Z" transform="translate(-508.431 -387.98)"/><path class="af" d="M509.325,463.7,487,415.937,501.551,409Z" transform="translate(-486.482 -393.453)"/><path class="ag" d="M487,415.937l16.624,7.614L501.551,409Z" transform="translate(-486.482 -393.453)"/><path class="f" d="M487,393.747,501.551,372.1v14.71Z" transform="translate(-486.482 -371.263)"/><path class="e" d="M523.5,372.1v14.71l8.93-3.628Z" transform="translate(-508.431 -371.263)"/><path class="ah" d="M509.325,474.159l-13.076-8.451L487,426.4" transform="translate(-486.482 -403.916)"/><path class="g" d="M504.79,422.754,501.6,412.109,490,415.937,503.395,409" transform="translate(-488.286 -393.453)"/><path class="g" d="M491,437.8l16.265,38.071-8.172-3.588,12.358,8.571-.439-1.355" transform="translate(-488.887 -410.771)"/><path class="ai" d="M509.021,441.12V440.2l1.156-57.845v-.638L500.729,370l-.518.8L485.9,392.085l-.2.279.08.279,9.249,39.267.04.2,13.076,8.451Zm-.837-7.056-4.9-34.484-1.953-13.754,7.853-3.189Zm-6.937-61.831,7.614,9.448-7.614,3.109Zm-.957.239v12.757h-.04v.04l-12.6,6.02Zm.08,13.793,1.834,13-14.79-6.777Zm-4.465,45.247-8.093-34.484,19.534,41.859Zm-8.651-38.032,15.149,6.976,5.182,36.557Z" transform="translate(-485.7 -370)"/></g><g transform="translate(373.291 409.964)"><path class="aj" d="M460.9,525.6l14.87,8.452L467.2,520.5Z" transform="translate(-460.422 -518.387)"/><path class="f" d="M460.9,533.3l2.153,9.926,12.717-1.475Z" transform="translate(-460.422 -526.084)"/><path class="e" d="M460.9,523.318V516.7l6.3,1.515Z" transform="translate(-460.422 -516.102)"/><path class="g" d="M468.3,522.6l-2.671,3.947,9.807,7.335L462.8,526.866" transform="translate(-461.564 -519.65)"/><path class="ak" d="M459.7,515.2v7.255l2.272,10.445,13.953-1.635L466.8,516.874Zm1,1.236,4.864,1.156-4.864,4.146Zm2.033,15.348-1.914-8.77,12.677,7.495Zm-1.2-9.488,4.9-4.146,7.136,11.282Z" transform="translate(-459.7 -515.2)"/></g><g transform="translate(362.607 381.54)"><path class="al" d="M436,445.778l38.59-.478-15.468,10.245Z" transform="translate(-434.764 -444.742)"/><path class="am" d="M436,446.5l22.723,21.527.4-11.76Z" transform="translate(-434.764 -445.464)"/><path class="e" d="M494,455.545l23.959.6L509.468,445.3Z" transform="translate(-469.642 -444.742)"/><path class="f" d="M493.4,471l23.959.6L493,482.76Z" transform="translate(-469.041 -460.197)"/><path class="g" d="M509.889,446.9l-10.724,8.412,18.3,1.276-22.564-.159" transform="translate(-470.183 -445.704)"/><path class="g" d="M441.8,450.3l18.737,9.249,1.236,9.647.6.757.239-11.481" transform="translate(-438.252 -447.749)"/><path class="an" d="M472.446,443.94l-38.111.478H432.9l1,.957,22.364,21.168.518.478,24.477-11.2.758-.359L472.965,443.9Zm-16.026,21.408-19.973-18.9,20.291,8.571Zm-19.933-19.933,34.523-.439-13.833,9.209Zm20.889,20.291.359-10.445,21.328.518Zm1.475-11.441,13.754-9.169,7.574,9.687Z" transform="translate(-432.9 -443.9)"/></g><g transform="translate(349.093 372.052)"><path class="ao" d="M418.957,422.4,400.3,441.854l9.847,8.491Z" transform="translate(-399.782 -421.483)"/><path class="ap" d="M400.3,471.2l3.269,35.48,6.578-26.989Z" transform="translate(-399.782 -450.829)"/><path class="aq" d="M415.078,486.126l17.5-4.226L408.5,513.115Z" transform="translate(-404.713 -457.263)"/><path class="f" d="M425,470.01l13.474-14.91,4.026,10.684Z" transform="translate(-414.635 -441.147)"/><path class="e" d="M438.474,435.436,433.81,422.4,425,450.346Z" transform="translate(-414.635 -421.483)"/><path class="g" d="M425.5,471.254l16.664-4.385-11.88,1.595,8.332-10.963" transform="translate(-414.936 -442.59)"/><path class="g" d="M401.8,474.2l7.176,8.212-4.266,23.082,5.94-22.843.159-1.276" transform="translate(-400.684 -452.633)"/><path class="ar" d="M402.309,475.832l.12,1.435.877-1.156,23.76-30.816.359-.478-3.987-10.524h0l-.159-.4L418.335,420.1l-.718.718L399,440.272l.04.558Zm.718-2.87-2.91-31.294,8.691,7.495Zm.8.837,5.94-24.4,15.866-3.827Zm22.4-29.421L410.8,448.125l11.88-13.116Zm-8.013-21.806,4.066,11.362-11.76,13Zm-1.156.319-7.973,25.195-8.85-7.694Z" transform="translate(-399 -420.1)"/></g><g transform="translate(397.768 360.81)"><path class="as" d="M523.2,393.4l11.96,26.55,2.551-17.341Z" transform="translate(-522.363 -392.802)"/><path class="e" d="M555.751,416.5l6.139,10.724-8.691,6.618Z" transform="translate(-540.403 -406.693)"/><path class="f" d="M559.6,408.562l11.76-5.262-5.621,15.986Z" transform="translate(-544.252 -398.755)"/><path class="at" d="M523.2,393.4l26.271,3.947-11.76,5.262Z" transform="translate(-522.363 -392.802)"/><path class="g" d="M570.222,405.6l-8.212,5.262,3.309,8.611-.478.8L559.1,409.945l9.807-4.146" transform="translate(-543.951 -400.138)"/><path class="au" d="M548.886,396.046l-.877-.12-25.793-3.867L521.1,391.9l12.2,27.108.359.8,9.289-7.1.159-.478Zm-1.515,1.316-4.9,13.873-5.3-9.289Zm-.917-.678-9.807,4.385-.16.08-.438-.279-11.88-7.535Zm-23.361-2.87,12.837,8.133-2.272,15.348Zm11.481,24.119,2.193-14.71,5.182,9.089Z" transform="translate(-521.1 -391.9)"/></g><g transform="translate(401.755 367.508)"><path class="av" d="M548.7,491.99l22.723-50.39,9.488,1.714Z" transform="translate(-541.684 -428.484)"/><path class="aw" d="M548.7,489.1l6.737-52.3,15.986,1.914Z" transform="translate(-541.684 -425.598)"/><path class="ax" d="M565.6,436.8l9.926,15.348,6.06-13.435Z" transform="translate(-551.846 -425.598)"/><path class="f" d="M565.6,420.985,589.439,410.5l-7.854,12.4Z" transform="translate(-551.846 -409.782)"/><path class="e" d="M613.553,410.5,605.7,422.9l9.488,1.714Z" transform="translate(-575.96 -409.782)"/><path class="ay" d="M538.9,489.1l-6.5-14.112L545.635,436.8" transform="translate(-531.882 -425.598)"/><path class="g" d="M576.89,452.074l2.95-10.684L568,438.4l15.069,1.316" transform="translate(-553.29 -426.56)"/><path class="g" d="M545.3,448.6l-6.657,40.862-4.943-7.415,5.86,13.873.359-1.355" transform="translate(-532.664 -432.694)"/><path class="az" d="M538.036,473.2l.518-.757,31.932-48.237.359-.518L569.131,408.7l-.877.4-23.481,10.325-.319.159-.08.239-13.2,38.111-.08.2,6.538,14.152Zm3.07-6.418,14.312-31.733,5.7-12.637,8.372,1.515Zm27.268-55.931,1.4,12.079-8.093-1.435Zm-.957-.359L560.6,421.258h-.04v.04l-13.833-1.674Zm-7.3,11.76-5.422,12-8.89-13.714Zm-27.985,35.8,11.6-33.447-5.9,45.805ZM545.172,421.3l9.049,13.993-15.189,33.646Z" transform="translate(-531.1 -408.7)"/></g><g transform="translate(408.333 347.934)"><path class="ba" d="M557.5,431.85l32.849-44.45,8.89,3.668Z" transform="translate(-553.553 -376.317)"/><path class="bb" d="M557.5,423.972,575.081,374.3l15.268,5.222Z" transform="translate(-553.553 -368.44)"/><path class="bc" d="M601.6,374.3l6.5,17.062,8.77-11.84Z" transform="translate(-580.073 -368.44)"/><path class="f" d="M601.6,366.362l25.554-5.262-10.285,10.485Z" transform="translate(-580.073 -360.502)"/><path class="e" d="M650.185,361.1,639.9,371.585l8.89,3.668Z" transform="translate(-603.104 -360.502)"/><path class="bd" d="M552.389,423.972,549,408.823,569.969,374.3" transform="translate(-548.442 -368.44)"/><path class="g" d="M609.52,391.568l5.143-9.807L603.7,376.3l14.471,4.465" transform="translate(-581.336 -369.642)"/><path class="g" d="M568.678,385.2l-15.109,38.55-3.269-8.292,2.791,14.75.638-1.236" transform="translate(-549.224 -374.994)"/><path class="be" d="M551.268,416.089l.678-.638,41.38-40.423.439-.439,1.475-14.989-.917.2-25.155,5.143-.359.08-.12.239L547.72,399.744l-.12.159,3.389,15.229Zm4.345-5.621,20.69-28.025,8.252-11.162,7.854,3.229Zm38.43-48.915-1.2,12.079-7.614-3.109Zm-.837-.518-8.93,9.089-.04-.04h0l-13.2-4.545Zm-9.647,9.926-7.814,10.564-5.781-15.268Zm-34.882,29.1,18.378-30.258-15.428,43.533ZM569.167,366.9l5.9,15.587-21.926,29.7Z" transform="translate(-547.6 -359.6)"/></g><g transform="translate(396.453 366.75)"><path class="bf" d="M519.7,409.4l32.849,20.252-18.537.4Z" transform="translate(-518.943 -408.363)"/><path class="bg" d="M519.7,409.4l7.694,30.377,6.618-9.727Z" transform="translate(-518.943 -408.363)"/><path class="e" d="M555.6,460.6l19.933,13.315-1.4-13.714Z" transform="translate(-540.531 -438.912)"/><path class="f" d="M545.618,461.2l19.933,13.315L539,470.927Z" transform="translate(-530.549 -439.513)"/><path class="g" d="M574.24,461.4l-13.554,1.355,14.79,10.883L556.5,461.4" transform="translate(-541.072 -439.633)"/><path class="g" d="M522.6,415.8l10.883,17.82-4.146,8.81.12.957,6.339-9.568" transform="translate(-520.686 -412.212)"/><path class="bh" d="M551.446,427.53,519,407.557l-1.2-.757.359,1.355,7.535,29.859.16.678,26.67,3.628.837.12-1.475-14.631Zm-25,9.488-6.737-26.63,12.558,18.139Zm-6.139-27.507,29.421,18.1-16.584.359Zm6.777,28.3,5.9-8.651L550.729,441Zm7.375-8.85,16.5-.359,1.236,12.239Z" transform="translate(-517.8 -406.8)"/></g><g transform="translate(388.679 349.608)"><path class="bi" d="M528.882,365.3,499.9,367.851l15.548,8.133Z" transform="translate(-499.262 -364.702)"/><path class="e" d="M515.448,379.833,503.289,382.1,499.9,371.7Z" transform="translate(-499.262 -368.551)"/><path class="f" d="M520.559,392.1l1.116,12.837L508.4,394.372Z" transform="translate(-504.374 -380.818)"/><path class="bj" d="M552.335,365.3l-12.318,23.521L538.9,375.984Z" transform="translate(-522.715 -364.702)"/><path class="g" d="M521.919,403.58l-2.272-9.488-9.249.319-.6-.718,11.641-1.993.718,10.6" transform="translate(-505.215 -380.578)"/><path class="bk" d="M515.761,388.676l.4-.757L528.279,364.8l.518-1-29.62,2.631-.877.08,3.628,11.122.4.319ZM515,386.8l-11.521-9.169,10.524-1.953Zm.917-.6L515,375.52v-.2l.4-.319,11-8.77Zm10.4-21.168-11.92,9.448-13.754-7.176Zm-26.55,2.95,13.2,6.9L502.685,376.8Z" transform="translate(-498.3 -363.8)"/></g><g transform="translate(353.677 340.2)"><path class="bl" d="M412.9,345.3,453,383.292l-4.7,8.372Z" transform="translate(-411.943 -343.267)"/><path class="bm" d="M412.9,345.3l47.161,23.481L453,383.292Z" transform="translate(-411.943 -343.267)"/><path class="bn" d="M504.44,404.2l-17.74,4.385,10.684,10.126Z" transform="translate(-456.323 -378.686)"/><path class="f" d="M520.556,404.2l2.113,25.992L513.5,418.711Z" transform="translate(-472.439 -378.686)"/><path class="e" d="M515.573,452.081,506.4,440.6l-4.7,8.372Z" transform="translate(-465.343 -400.575)"/><path class="bo" d="M412.9,343.015l15.468-1.515,31.693,25" transform="translate(-411.943 -340.982)"/><path class="g" d="M489.2,409.967l9.129,6.3,6.737-10.166-6.219,13.754" transform="translate(-457.826 -379.829)"/><path class="g" d="M456.415,364.686l-36.437-19.654,8.651-2.232-15.029.957,1.2.757" transform="translate(-412.364 -341.764)"/><path class="bp" d="M410.5,341.834l.558.718,35.121,46,.4.518,14.71,3.309-.08-.957-2.073-25.594-.04-.359-.2-.159-31.693-25-.159-.12-15.508,1.555Zm5.063,4.983,25.315,23.919,10.086,9.528-4.146,7.415Zm43.892,44.131-11.84-2.671,4.026-7.176Zm.638-.8-7.933-9.966.04-.04h0l6.1-12.518Zm-8.651-10.764-9.528-9.049,15.866-3.907Zm-24.677-38.151,27.786,21.926-41.34-20.57Zm30.457,24.318-16.185,3.987-26.829-25.394Z" transform="translate(-410.5 -340.2)"/></g><g transform="translate(368.707 343.549)"><path class="bq" d="M513.6,356.7l-29.9,24.4,5.7-17.66Z" transform="translate(-469.548 -353.471)"/><path class="br" d="M511.615,352.611,480.4,349.9l7.016,9.448Z" transform="translate(-467.563 -349.382)"/><path class="e" d="M469.135,373.6,450,388.071l13.435,3.189Z" transform="translate(-449.282 -363.634)"/><path class="f" d="M469.135,359.348,450,373.819,462.119,349.9Z" transform="translate(-449.282 -349.382)"/><path class="g" d="M464.76,391.143l3.189-13.235-15.149,10.4L470.58,374.4" transform="translate(-450.966 -364.115)"/><path class="g" d="M509,353.491l-20.411,4.425-6.976-6.817-.917-.2,6.937,9.129" transform="translate(-467.744 -349.983)"/><path class="bs" d="M462.87,376.466l29.54-24.119,1.116-.917-1.4-.12-30.656-2.671-.718-.04-12.159,24-.4.757,14.272,3.428Zm-.8-26.75,27.387,2.392-21.248,5.9Zm28.025,3.229-26.75,21.846,5.1-15.787Zm-28.982-2.87,6.219,8.412-17.023,12.837Zm5.98,9.847-5.063,15.707-11.96-2.87Z" transform="translate(-448.2 -348.6)"/></g><g transform="translate(369.624 370.936)"><path class="bt" d="M484.373,432.415,458.5,419.1l8.77,15.189Z" transform="translate(-455.311 -418.382)"/><path class="e" d="M463.241,434.289,451.8,429.7l2.671-10.6Z" transform="translate(-451.282 -418.382)"/><path class="f" d="M463.241,450.285l-5.9,11.441L451.8,445.7Z" transform="translate(-451.282 -434.378)"/><path class="bu" d="M488.7,452.5l-23,13.315,5.9-11.441Z" transform="translate(-459.641 -438.467)"/><path class="g" d="M458.5,460.33l3.189-9.249-7.973-4.664-.12-.917,10.883,4.5-5.063,9.368" transform="translate(-452.364 -434.258)"/><path class="bv" d="M456.28,445.365l.757-.439,22.6-13.036.957-.558L454.168,417.7l-.8-.4-2.87,11.322.159.478Zm.359-1.993-4.824-13.913,9.926,3.987Zm1.156-.04,4.943-9.528.08-.159.478-.04,13.993-1.515Zm20.092-12.279-15.109,1.634L455,419.253Zm-24-11.72,7.455,12.877-9.727-3.907Z" transform="translate(-450.5 -417.3)"/></g><g transform="translate(347.1 359.575)"><path class="bw" d="M458.411,426.9,420.1,431.48l14.272-11.88Z" transform="translate(-409.695 -407.322)"/><path class="bx" d="M478.616,409.216,453.7,390.2l.877,11.72Z" transform="translate(-429.9 -389.642)"/><path class="e" d="M419.879,419.6,396,421.593l9.608,9.887Z" transform="translate(-395.203 -407.322)"/><path class="f" d="M419.879,401.92,396,403.914,419,390.2Z" transform="translate(-395.203 -389.642)"/><path class="g" d="M407.271,431.043l9.767-9.448-18.338.638L421.144,420" transform="translate(-396.826 -407.562)"/><path class="g" d="M476.024,408.541l-19.614-7.216-2.232-9.448-.678-.678.957,11.441" transform="translate(-429.78 -390.243)"/><path class="by" d="M404.764,413.437l37.832-4.545,1.4-.159-1.116-.837L418.4,389.239l-.558-.439-23.122,13.754-.718.439,10.245,10.524Zm13.634-23L440.244,407.1l-21.089-6.378Zm21.926,17.7-34.284,4.146L418.8,401.637ZM417.361,390.2l.757,10.445-21.248,1.754Zm-.2,11.521-12.677,10.564-8.571-8.81Z" transform="translate(-394 -388.8)"/></g><path class="bz" d="M324.382,507.165,332,500.229s.757-7.614,3.867-12.239,3.309-4.066,3.309-4.066.877-11.561,3.189-17.5,1.993-4.864,1.993-4.864a7.07,7.07,0,0,0,4.5-2.193c1.874-2.113,5.063-1.874,4.425,3.309-.678,5.182-.558,11.362,1.754,12.876,2.312,1.555,10.684,3.428,13.993-1.2s.558-10.006.558-10.006l-2.312-3.947s-1.874-3.907,5.063-2.232,25.673,9.049,25.673,9.049,12.119,3.747,21.687.319,10.365-2.312,10.365-2.312,3.747,3.309-1,9.568c-4.744,6.3-1.116,9.647.12,11.162,1.2,1.515,10.006,2.073,11.242-5.661,1.2-7.694-.319-12.558,0-13s-.678-6.3,4.5-7.056a39.829,39.829,0,0,1,7.814-.558l-4.305,6.817.319,4.425-3.867,4.624,2.551,9.129s4.864,4.744,4.186,10.126c0,0,4.864,4.186,5.94,6.618,0,0,3.309,2.87,3.189,4.186,0,0-5.182,14.112-34.364,16.425,0,0-30.5,4.425-41.659,6.937,0,0-33.288,3.947-49.234-1.634,0,0-13.993-3.867-15.747-7.614a8.35,8.35,0,0,1-.558-6.5Z" transform="translate(-1.68 -70.69)"/><path class="ca" d="M331.077,559.782s-2.113,13.634,8.81,21.567a101.274,101.274,0,0,1,0-20.012s13.156,19.494,49.353,17.7c0,0-7.056-2.472-10.883-5.3,0,0,46.6,7.1,63.785-5.462,0,0,7.694-6.1,9.209-13.873,0,0,3.309.837,5.661,5.1,0,0,5.541,3.269,1.156,7.455,0,0-4.345,7.933-23.441,11.96,0,0-26.112,2.631-35,5.222-8.89,2.631-33.567,4.465-40.7,4.266s-29.1-2.033-36-7.495-4.784-7.774-4.784-7.774a35.376,35.376,0,0,1,10.644-12.518" transform="translate(-1.159 -128.808)"/><path class="ca" d="M513.3,551.226s21.049-2.751,31.733-8.133c0,0-7.255,0-12.119-1.993A60.324,60.324,0,0,1,513.3,551.226Z" transform="translate(-118.641 -120.811)"/><path class="b" d="M378.6,459.1s-7.136,10.365-7.3,27.667a17.389,17.389,0,0,0-8.093,17.66s2.153-12.079,13.714-15.707a32.847,32.847,0,0,0,11.72,15.029s5.462-7.136,9.568-31.693c0,0-6.458,11.043-17.1,3.867a10.209,10.209,0,0,1-1.156-8.412c1.4-4.943-.638-7.734-.638-7.734" transform="translate(-28.268 -71.5)"/><path class="b" d="M440.6,461.352A80.177,80.177,0,0,1,469.3,475.9c13.116,10.8,28.424-1,28.424-1s-.877,7.255,3.309,10.684c0,0-3.787-2.87,1.595-11.282s-1.595-8.85-1.595-8.85a27.9,27.9,0,0,0-9.129,2.591c-5.262,2.392-16.983,1.834-22.6-1.2-5.581-3.03-24.677-8.252-24.677-8.252s-5.143-1.355-4.425,2.073" transform="translate(-74.639 -71.041)"/><path class="cb" d="M356.668,519.1s-11.242-16.624,3.07-30.617c0,0-1.116-12.239,4.943-22.6,0,0,1.316.757,2.87-.877,0,0-5.621,9.368-4.744,24.557,0,.04-14.072,6.737-6.139,29.54" transform="translate(-21.927 -75.048)"/><path class="cb" d="M632.978,463l-2.432,5.94s1.316,6.737-3.947,8.611v1.993s8.133-2.87,7.255-9.687L637.8,461.6" transform="translate(-186.774 -73.003)"/><path class="cc" d="M539.616,544.337a10.614,10.614,0,0,0,1.236-1.036,24.563,24.563,0,0,1-2.83,1.595c-.957.478-1.953.917-2.95,1.316l-1.515.6c-.239.08-.479.2-.758.279l-.757.279-1.515.558c-.518.2-1.036.319-1.515.518-1.036.319-2.033.678-3.07.957l-1.555.438-.757.239-.8.2-3.109.837-3.149.718-1.555.359-1.595.319-3.149.638-6.378,1.2c-1.076.159-2.113.359-3.189.518-1.076.2-2.113.4-3.189.558-2.153.319-4.266.678-6.418,1.076,2.153-.04,4.345-.159,6.5-.279,2.153-.159,4.345-.4,6.5-.6,1.076-.12,2.153-.279,3.229-.438l3.229-.478,3.189-.6,1.595-.319,1.595-.359a85.453,85.453,0,0,0,12.518-3.787,57.358,57.358,0,0,0,5.98-2.711c.957-.558,1.914-1.076,2.83-1.674A16.119,16.119,0,0,0,539.616,544.337Z" transform="translate(-105.291 -122.134)"/><path class="cc" d="M484.849,526.413a17.96,17.96,0,0,0,5.82-.917,44.624,44.624,0,0,1-5.7-.4,29.731,29.731,0,0,1-10.524-3.548A36.244,36.244,0,0,1,469.7,518.4a12.638,12.638,0,0,0,1.834,2.312,17.417,17.417,0,0,0,2.232,1.953,20.079,20.079,0,0,0,5.262,2.751A18.974,18.974,0,0,0,484.849,526.413Z" transform="translate(-92.422 -107.16)"/><path class="cc" d="M405.462,573.421a36.533,36.533,0,0,1-6.3-5.063,33.143,33.143,0,0,1-2.711-3.07A34.113,34.113,0,0,1,394.1,561.9a17.464,17.464,0,0,0,1.674,3.867,23.528,23.528,0,0,0,2.432,3.468,26.662,26.662,0,0,0,6.378,5.581,30.5,30.5,0,0,0,7.694,3.508,30.987,30.987,0,0,0,8.292,1.276,69.462,69.462,0,0,1-7.853-2.512A42.688,42.688,0,0,1,405.462,573.421Z" transform="translate(-46.961 -133.319)"/><path class="cc" d="M456.57,462.207a13.969,13.969,0,0,0-5.98-6.378,12.822,12.822,0,0,0-3.628-9.568,35.452,35.452,0,0,1-2.472-9.368,8.488,8.488,0,0,0,3.349-8.212,30.428,30.428,0,0,1,5.5-8.412h0a2.825,2.825,0,0,0,.957-2.073c.08-1.874-1.595-3.588-3.349-4.5a81.1,81.1,0,0,1,1.355-12.2h0a5.39,5.39,0,0,0,.877-3.588,7.474,7.474,0,0,0-.558-1.993l-1.276,1.276a7.537,7.537,0,0,1,.2.917,3.812,3.812,0,0,1-.877,2.87,5.025,5.025,0,0,1-.8.8,23.968,23.968,0,0,1-5.262,2.95c-.757.319-1.515.678-2.232,1.036a5.845,5.845,0,0,0-1.914,1.355,2.348,2.348,0,0,0-.6,2.073c.2,1.037,1.116,1.993,2.83,2.87a38.873,38.873,0,0,0,4.266,1.794c.718.279,1.435.518,2.113.837.239.08.478.2.678.279,1.634.718,2.91,2.113,2.87,3.189a1.089,1.089,0,0,1-.319.757l-.04.04c-.04.04-.04.08-.12.12a4.388,4.388,0,0,1-1.4.8,17.653,17.653,0,0,1-5.422.757c-.478,0-.917.04-1.4.08a5.946,5.946,0,0,0-5.741,4.585,11.86,11.86,0,0,0,.2,5.3,16.83,16.83,0,0,1,.359,2.352,25,25,0,0,1,0,4.585c-.239,2.711-1,5.661-2.91,7.734A6.757,6.757,0,0,1,430.9,447.3h-.04a5.128,5.128,0,0,1-3.867-1.555c-2.591-2.91-.757-6.139,1.156-9.568a19.929,19.929,0,0,0,2.153-4.624,5.314,5.314,0,0,0-.518-4.5,4.43,4.43,0,0,0-3.508-1.754h-.558a14.764,14.764,0,0,0-6.06,1.754,20.725,20.725,0,0,1-3.03,1.2c-6.817,1.993-14.272,1.355-24.158-2.073-.4-.12-1.276-.478-2.392-.917-11.162-4.465-21.846-8.332-24.8-6.378a1.905,1.905,0,0,0-.877,1.634c-.04,1.714,1.036,3.389,2.113,4.983a12.565,12.565,0,0,1,1.714,3.189,6.275,6.275,0,0,1-2.113,6.817,11.324,11.324,0,0,1-11.043,1.595,4.721,4.721,0,0,1-2.95-4.385c0-1.316.08-2.671.2-3.987a28.507,28.507,0,0,0,0-6.9c-.279-1.634-.837-2.631-1.754-2.99-1.435-.6-2.95.558-4.585,1.754a8.441,8.441,0,0,1-2.95,1.674,2.015,2.015,0,0,1-1.156-.2,2.506,2.506,0,0,1-.8-.8,2.819,2.819,0,0,1,.319-2.99,12.427,12.427,0,0,1,1.953-1.834,2,2,0,0,0,.319-.279c1.834-1.515,3.947-3.269,4.146-5.9a5.724,5.724,0,0,0-1.515-4.146,9.728,9.728,0,0,0-3.109-2.392,16.222,16.222,0,0,0-3.389-1.156c-.558-.12-1.116-.279-1.714-.4-.279-.04-.518-.12-.8-.159a6.326,6.326,0,0,1-1.714-.638,4.715,4.715,0,0,1-2.272-2.512,2.673,2.673,0,0,1,1.037-2.711c.957-.917,2.551-1.156,4.186-1.355l-.678-1.595a8.2,8.2,0,0,0-4.624,1.714,4.144,4.144,0,0,0-1.475,4.345,6.118,6.118,0,0,0,2.751,3.349c.4.359,5.023,4.824,6.9,13.315a13.045,13.045,0,0,0-1.276,1.316,4.539,4.539,0,0,0-.518,4.784,3.656,3.656,0,0,0,1.555,1.555c-1.276,2.83-5.1,12.2-4.5,21.766a18.951,18.951,0,0,0-5.5,7.455,19.526,19.526,0,0,0-1.435,8.252,58.807,58.807,0,0,0-12.279,12.358,7.224,7.224,0,0,0-1.316,5.621,6.916,6.916,0,0,0,3.269,4.664c6.219,3.707,18.9,8.97,41.181,8.97a176.791,176.791,0,0,0,22.843-1.595c3.707-.478,7.574-1.156,11.561-1.993,7.614-1.595,21.966-4.385,32.331-4.9a51.893,51.893,0,0,0,21.089-5.661c5.7-2.95,9.488-6.259,11.242-9.887a2.676,2.676,0,0,0,.159-1.993A6.9,6.9,0,0,0,456.57,462.207Zm-7.255-49.234c-.6-.239-1.2-.478-1.794-.678a40.629,40.629,0,0,1-4.106-1.714c-1.634-.837-1.914-1.475-1.953-1.714-.04-.12-.04-.359.239-.678a3.869,3.869,0,0,1,1.4-.917c.678-.359,1.4-.678,2.153-1.036a31.393,31.393,0,0,0,4.983-2.671C449.912,405.758,449.474,409.266,449.314,412.973Zm-111.5-9.289h0c.558.12,1.116.239,1.674.4a9.871,9.871,0,0,1,5.661,3.03,4.115,4.115,0,0,1,1.116,2.95c-.159,1.874-1.674,3.189-3.349,4.585A29.921,29.921,0,0,0,337.811,403.685ZM439.866,425.65a4.378,4.378,0,0,1,4.266-3.349c.478-.04.917-.04,1.355-.08a24.548,24.548,0,0,0,4.465-.439,28.791,28.791,0,0,0-3.707,6.5l-.08.239.08.279c.04.239,1.355,5.78-5.7,8.372a26.125,26.125,0,0,0-.04-4.385,25.373,25.373,0,0,0-.4-2.512A9.683,9.683,0,0,1,439.866,425.65Zm18.3,42.018c-1.595,3.309-5.143,6.378-10.524,9.169a50.468,50.468,0,0,1-20.411,5.462c-10.485.518-24.916,3.309-32.57,4.943-3.947.837-7.774,1.515-11.441,1.993-36.357,4.824-55.054-2.392-62.947-7.136a5.18,5.18,0,0,1-2.472-3.548,5.531,5.531,0,0,1,1-4.305,60.27,60.27,0,0,1,11.122-11.4,33.6,33.6,0,0,0,4.784,13.076s-4.664-9.647-3.349-16.106a17.961,17.961,0,0,1,1.316-6.458,16.73,16.73,0,0,1,5.342-7.1l.4-.279-.04-.478c-.718-9.568,3.468-19.414,4.5-21.727h.359c1.236-.08,2.512-1.036,3.787-1.993,1.036-.757,2.432-1.794,2.99-1.555.12.04.518.319.757,1.754a27.25,27.25,0,0,1,0,6.5,35.652,35.652,0,0,0-.2,4.146,6.29,6.29,0,0,0,3.907,5.86,13.054,13.054,0,0,0,12.8-1.834,7.939,7.939,0,0,0,2.631-8.491,12.957,12.957,0,0,0-1.914-3.668c-.917-1.4-1.874-2.83-1.834-4.066,0-.159.04-.239.159-.279.478-.319,2.432-.8,10.126,1.674,4.824,1.555,10.046,3.628,13.156,4.864,1.2.478,2.033.8,2.432.957,6.9,2.392,15.986,4.824,25.155,2.113a22.652,22.652,0,0,0,3.229-1.276c1.993-.877,3.867-1.714,5.82-1.595a2.832,2.832,0,0,1,2.272,1.076,3.721,3.721,0,0,1,.279,3.149,20.92,20.92,0,0,1-1.993,4.226c-2.033,3.588-4.345,7.654-.957,11.481a6.692,6.692,0,0,0,5.1,2.113h.04a8.469,8.469,0,0,0,6.179-2.591,14.033,14.033,0,0,0,3.149-7.375,13.39,13.39,0,0,0,2.631-1.116,36.364,36.364,0,0,0,2.551,9.209l.08.159.12.12a11.15,11.15,0,0,1,3.229,7.774,10.082,10.082,0,0,1-.04,1.076c0,.08-.08.279-.159.6,0,0-1,7.375-15.986,15.508,13.036-4.943,16.624-12.159,17.5-14.83a11.884,11.884,0,0,1,4.9,5.581l.12.279.279.159a5.916,5.916,0,0,1,2.751,3.389A1.354,1.354,0,0,1,458.164,467.668Z" transform="translate(0 -31.871)"/><g transform="translate(391.071 439.784)"><path class="cd" d="M506.7,632.508,561.834,629l2.91,9.169Z" transform="translate(-505.743 -613.452)"/><path class="ce" d="M506.7,609.837,556.013,591.3l5.82,15.029Z" transform="translate(-505.743 -590.782)"/><path class="cf" d="M616.99,591.3l-8.89,15.946,14.71-.917Z" transform="translate(-566.72 -590.782)"/><path class="f" d="M630.4,591.3l20.491,16.145-14.67-1.116Z" transform="translate(-580.13 -590.782)"/><path class="e" d="M659.67,630.116,645,629l2.91,9.169Z" transform="translate(-588.909 -613.452)"/><path class="cg" d="M506.7,609.837l9.408-12.358,39.905-6.179" transform="translate(-505.743 -590.782)"/><path class="g" d="M610.3,608.432l10.843-2.352-2.91-11.88,5.9,13.913" transform="translate(-568.043 -592.526)"/><path class="g" d="M551.59,594.3,512.4,607.575l4.226-7.854L507.1,611.4l1.355-.319" transform="translate(-505.984 -592.586)"/><path class="ch" d="M504.3,609.454l.917.08,57.566,5.621.638.08,12.438-8.531-.757-.6L554.969,590.2l-.279-.2-.279.04-39.865,6.179-.2.04-9.448,12.4Zm7.136-.279,34.763-2.232,13.833-.877,2.591,8.093Zm62.15-2.113-10.006,6.857-2.512-7.853Zm-.12-1-12.717-1v-.04h-.04l-5.023-13Zm-13.793-1-13.116.837,7.933-14.272Zm-44.729-7.933,35-5.422-43.214,16.265Zm38.55-5.7L545.4,605.986l-36.836,2.352Z" transform="translate(-504.3 -590)"/></g><g transform="translate(392.546 438.787)"><path class="ci" d="M510.2,590.2l20.531,12.079-9.767,4.425Z" transform="translate(-509.323 -589.124)"/><path class="f" d="M510.2,590.2l8.77,27.188,1.993-10.684Z" transform="translate(-509.323 -589.124)"/><path class="cj" d="M537.2,624.925l12.6,8.332-2.83-12.757Z" transform="translate(-525.559 -607.344)"/><path class="e" d="M534.193,631.6l12.6,8.332L532.2,642.284Z" transform="translate(-522.553 -614.019)"/><path class="g" d="M532,604.485l-7.375,1.794L514.1,594l9.408,14.989" transform="translate(-511.668 -591.409)"/><path class="ck" d="M532,613.971l.837-.12-3.03-13.474-.518-.319L508,587.5l.439,1.355,8.651,26.869.2.638Zm-.518-1.635L520.637,605.2l8.372-3.827Zm-3.149-11.76-8.491,3.867-9.408-14.352Zm-17.86-8.651,8.651,13.235-1.595,8.571ZM520,605.918l10.923,7.216-12.677,2.033Z" transform="translate(-508 -587.5)"/></g></g></svg>