<svg xmlns="http://www.w3.org/2000/svg" width="60.717" height="47.244" viewBox="0 0 60.717 47.244"><defs><style>.a{isolation:isolate;}.b{fill:#231f20;}.c{fill:#ff5f00;}.d{fill:#eb001b;}.e{fill:#f79e1b;}</style></defs><g class="a"><path class="b" d="M113.535,1321.607a1.509,1.509,0,1,1,1.511,1.6,1.5,1.5,0,0,1-1.511-1.6m4.034,0v-2.5h-1.083v.609a1.886,1.886,0,0,0-1.574-.732,2.628,2.628,0,0,0,0,5.25,1.887,1.887,0,0,0,1.574-.732v.607h1.082v-2.5Zm36.605,0a1.509,1.509,0,1,1,1.512,1.6,1.5,1.5,0,0,1-1.512-1.6m4.035,0V1317.1h-1.084v2.616a1.886,1.886,0,0,0-1.574-.732,2.628,2.628,0,0,0,0,5.25,1.887,1.887,0,0,0,1.574-.732v.607h1.084Zm-27.194-1.652a1.239,1.239,0,0,1,1.261,1.213H129.69a1.285,1.285,0,0,1,1.324-1.213m.022-.974a2.627,2.627,0,0,0,.073,5.25,3.02,3.02,0,0,0,2.042-.7l-.531-.805a2.372,2.372,0,0,1-1.449.523,1.385,1.385,0,0,1-1.49-1.224h3.7c.011-.135.022-.272.022-.418a2.4,2.4,0,0,0-2.366-2.625m13.08,2.625a1.509,1.509,0,1,1,1.511,1.6,1.5,1.5,0,0,1-1.511-1.6m4.034,0v-2.5h-1.083v.609a1.887,1.887,0,0,0-1.574-.732,2.628,2.628,0,0,0,0,5.25,1.888,1.888,0,0,0,1.574-.732v.607h1.083v-2.5Zm-10.151,0a2.521,2.521,0,0,0,2.658,2.625,2.6,2.6,0,0,0,1.791-.6l-.52-.879a2.185,2.185,0,0,1-1.305.45,1.6,1.6,0,0,1,0-3.2,2.191,2.191,0,0,1,1.305.45l.52-.879a2.6,2.6,0,0,0-1.791-.6,2.521,2.521,0,0,0-2.658,2.625m13.966-2.625a1.47,1.47,0,0,0-1.313.732v-.606h-1.074v5h1.085v-2.8c0-.827.354-1.287,1.062-1.287a1.754,1.754,0,0,1,.678.126l.334-1.024a2.3,2.3,0,0,0-.772-.136m-29.038.523a3.716,3.716,0,0,0-2.032-.523c-1.262,0-2.075.607-2.075,1.6,0,.815.6,1.318,1.719,1.475l.512.073c.594.084.875.241.875.523,0,.386-.395.607-1.136.607a2.648,2.648,0,0,1-1.657-.523l-.509.848a3.586,3.586,0,0,0,2.157.649c1.439,0,2.273-.68,2.273-1.631,0-.879-.656-1.338-1.741-1.495l-.511-.074c-.469-.061-.845-.156-.845-.491,0-.365.354-.585.949-.585a3.206,3.206,0,0,1,1.553.428l.469-.879Zm13.979-.522a1.466,1.466,0,0,0-1.312.732v-.608h-1.074v5H135.6v-2.8c0-.827.354-1.287,1.062-1.287a1.754,1.754,0,0,1,.677.126l.334-1.024a2.3,2.3,0,0,0-.772-.136m-9.244.125h-1.771v-1.516h-1.1v1.516h-1.01v.994h1.01v2.28c0,1.16.449,1.85,1.73,1.85a2.539,2.539,0,0,0,1.355-.386l-.313-.931a2,2,0,0,1-.959.283c-.542,0-.718-.335-.718-.837V1320.1h1.771Zm-16.2,5v-3.137a1.858,1.858,0,0,0-1.96-1.987,1.927,1.927,0,0,0-1.751.889,1.827,1.827,0,0,0-1.646-.889,1.646,1.646,0,0,0-1.459.742v-.618H103.56v5h1.093v-2.771a1.168,1.168,0,0,1,1.22-1.329c.719,0,1.083.471,1.083,1.318v2.782h1.1v-2.771a1.178,1.178,0,0,1,1.219-1.329c.74,0,1.093.47,1.093,1.318v2.782Z" transform="translate(-100.416 -1276.99)"/><path class="c" d="M746.128,161.751H729.71v-29.6h16.418Z" transform="translate(-707.56 -128.126)"/><path class="d" d="M23.191,18.825a18.817,18.817,0,0,1,7.166-14.8A18.75,18.75,0,0,0,0,18.825a18.75,18.75,0,0,0,30.357,14.8,18.816,18.816,0,0,1-7.166-14.8" transform="translate(0 0.001)"/><path class="e" d="M1030.469,18.825a18.751,18.751,0,0,1-30.359,14.8,18.865,18.865,0,0,0,0-29.6,18.751,18.751,0,0,1,30.358,14.8" transform="translate(-969.752 0.001)"/></g></svg>