<svg xmlns="http://www.w3.org/2000/svg" width="99.985" height="25.361" viewBox="0 0 99.985 25.361"><defs><style>.a{opacity:0.5;mix-blend-mode:luminosity;isolation:isolate;}.b{fill:#003087;}.c{fill:#009cde;}.d{fill:#012169;}</style></defs><g class="a"><path class="b" d="M31.455-88.858c-1.174-1.338-3.3-1.912-6.013-1.912H17.561a1.129,1.129,0,0,0-1.115.952L13.165-69a.676.676,0,0,0,.154.545.676.676,0,0,0,.514.237H18.7l1.222-7.751-.038.243a1.125,1.125,0,0,1,1.11-.952h2.312c4.542,0,8.1-1.845,9.138-7.182q.046-.237.081-.462a5.04,5.04,0,0,0-1.069-4.531" transform="translate(-13.156 90.771)"/><path class="c" d="M225.983-65.779c-.3,1.953-1.789,1.953-3.231,1.953h-.821l.576-3.646a.453.453,0,0,1,.448-.382h.377c.982,0,1.91,0,2.388.559a1.819,1.819,0,0,1,.264,1.517m-.628-5.1h-5.441a.758.758,0,0,0-.748.638l-2.2,13.951a.454.454,0,0,0,.1.365.454.454,0,0,0,.344.159h2.792a.529.529,0,0,0,.523-.446l.624-3.956a.756.756,0,0,1,.746-.638h1.721c3.585,0,5.653-1.733,6.193-5.171a4.19,4.19,0,0,0-.694-3.511,5.047,5.047,0,0,0-3.966-1.39" transform="translate(-148.119 77.596)"/><path class="b" d="M111.1-65.779c-.3,1.953-1.789,1.953-3.232,1.953h-.821l.576-3.646a.453.453,0,0,1,.448-.382h.377c.982,0,1.91,0,2.388.559a1.816,1.816,0,0,1,.264,1.517m-.628-5.1h-5.441a.757.757,0,0,0-.747.638l-2.2,13.951a.453.453,0,0,0,.1.365.453.453,0,0,0,.345.159h2.6a.756.756,0,0,0,.746-.638l.594-3.764a.756.756,0,0,1,.746-.638h1.721c3.585,0,5.653-1.734,6.193-5.172a4.19,4.19,0,0,0-.694-3.511,5.047,5.047,0,0,0-3.966-1.39M123.1-60.77a2.906,2.906,0,0,1-2.941,2.488,2.2,2.2,0,0,1-1.75-.7,2.212,2.212,0,0,1-.408-1.83,2.915,2.915,0,0,1,2.92-2.507,2.2,2.2,0,0,1,1.737.71,2.243,2.243,0,0,1,.442,1.842m3.631-5.072h-2.605a.454.454,0,0,0-.449.384l-.114.728-.182-.264a3.709,3.709,0,0,0-3.077-1.093,5.991,5.991,0,0,0-5.815,5.24,4.919,4.919,0,0,0,.97,4,4.077,4.077,0,0,0,3.281,1.324,4.989,4.989,0,0,0,3.607-1.49l-.116.724a.453.453,0,0,0,.1.365.453.453,0,0,0,.345.159h2.346a.756.756,0,0,0,.747-.638l1.409-8.918a.454.454,0,0,0-.1-.365.454.454,0,0,0-.345-.159" transform="translate(-72.04 77.596)"/><path class="c" d="M262.168-51.383a2.906,2.906,0,0,1-2.941,2.488,2.2,2.2,0,0,1-1.75-.7,2.211,2.211,0,0,1-.408-1.83,2.915,2.915,0,0,1,2.92-2.507,2.2,2.2,0,0,1,1.737.71,2.243,2.243,0,0,1,.442,1.842m3.631-5.072h-2.605a.454.454,0,0,0-.449.384l-.114.728-.182-.264a3.709,3.709,0,0,0-3.077-1.093,5.992,5.992,0,0,0-5.816,5.24,4.919,4.919,0,0,0,.971,4,4.077,4.077,0,0,0,3.281,1.324,4.989,4.989,0,0,0,3.608-1.49l-.116.724a.452.452,0,0,0,.1.365.452.452,0,0,0,.345.159h2.345a.757.757,0,0,0,.748-.638l1.409-8.918a.454.454,0,0,0-.1-.365.454.454,0,0,0-.345-.159" transform="translate(-172.299 68.208)"/><path class="b" d="M192.349-55.974h-2.619a.753.753,0,0,0-.624.332l-3.613,5.32-1.531-5.113a.758.758,0,0,0-.725-.54h-2.574a.454.454,0,0,0-.369.19.454.454,0,0,0-.06.411l2.883,8.464L180.4-43.083a.454.454,0,0,0-.032.47.454.454,0,0,0,.4.245h2.617a.757.757,0,0,0,.621-.325l8.708-12.57a.453.453,0,0,0,.03-.469.453.453,0,0,0-.4-.243" transform="translate(-123.78 67.728)"/><path class="c" d="M294.654-70.49l-2.234,14.206a.454.454,0,0,0,.1.365.454.454,0,0,0,.345.159h2.245a.757.757,0,0,0,.747-.638l2.2-13.951a.453.453,0,0,0-.1-.365.453.453,0,0,0-.345-.159H295.1a.452.452,0,0,0-.448.383" transform="translate(-198.084 77.594)"/><path class="b" d="M31.455-88.858c-1.174-1.338-3.3-1.912-6.013-1.912H17.561a1.129,1.129,0,0,0-1.115.952L13.165-69a.676.676,0,0,0,.154.545.676.676,0,0,0,.514.237H18.7l1.222-7.751-.038.243a1.125,1.125,0,0,1,1.11-.952h2.312c4.542,0,8.1-1.845,9.138-7.182q.046-.237.081-.462a5.04,5.04,0,0,0-1.069-4.531" transform="translate(-13.156 90.771)"/><path class="b" d="M21.232-84.3a.988.988,0,0,1,.974-.833h6.179a12.99,12.99,0,0,1,2.038.147,8.564,8.564,0,0,1,1.01.226,5.582,5.582,0,0,1,1.088.434,5.037,5.037,0,0,0-1.068-4.532c-1.175-1.338-3.3-1.912-6.013-1.912H17.558a1.129,1.129,0,0,0-1.114.952L13.163-69a.676.676,0,0,0,.154.545.676.676,0,0,0,.514.237H18.7l1.222-7.752Z" transform="translate(-13.154 90.769)"/><path class="c" d="M42.713-71.7q-.036.232-.081.462c-1.039,5.336-4.6,7.182-9.138,7.182H31.182a1.124,1.124,0,0,0-1.11.952l-1.184,7.507-.337,2.13a.592.592,0,0,0,.135.477.592.592,0,0,0,.45.207h4.1a.987.987,0,0,0,.974-.833l.04-.209.773-4.9.049-.271a.987.987,0,0,1,.975-.833h.614c3.973,0,7.084-1.613,7.994-6.283.379-1.95.182-3.58-.821-4.724a3.917,3.917,0,0,0-1.123-.866" transform="translate(-23.346 78.139)"/><path class="d" d="M44.621-73.71q-.238-.07-.49-.126c-.168-.037-.342-.07-.521-.1a12.742,12.742,0,0,0-2.039-.149H35.394a.985.985,0,0,0-.974.833l-1.313,8.327-.038.242a1.124,1.124,0,0,1,1.11-.952h2.313c4.542,0,8.1-1.845,9.138-7.182.031-.158.057-.311.081-.462a5.611,5.611,0,0,0-.854-.361c-.076-.025-.154-.049-.234-.073" transform="translate(-26.341 79.72)"/></g></svg>