<svg xmlns="http://www.w3.org/2000/svg" width="70.04" height="22.722" viewBox="0 0 70.04 22.722"><defs><style>.a{isolation:isolate;}.b{fill:#2566af;}.c{fill:#e6a540;}</style></defs><g class="a"><g transform="translate(0 0)"><path class="b" d="M41.589,73.863H35.874l3.572-21.951h5.716ZM31.066,51.911l-5.449,15.1-.645-3.251h0L23.05,53.888a2.447,2.447,0,0,0-2.711-1.976H11.332l-.106.372A21.38,21.38,0,0,1,17.2,54.792l4.965,19.071h5.955l9.093-21.952ZM76.018,73.863h5.248L76.69,51.911H72.1a2.626,2.626,0,0,0-2.638,1.636L60.934,73.863h5.958L68.083,70.6h7.265ZM69.729,66.1l3-8.215L74.422,66.1ZM61.381,57.19l.816-4.714a16.5,16.5,0,0,0-5.14-.957c-2.836,0-9.571,1.24-9.571,7.267,0,5.671,7.9,5.742,7.9,8.72s-7.09,2.445-9.43.567L45.11,73a16.016,16.016,0,0,0,6.451,1.24c3.9,0,9.784-2.019,9.784-7.515,0-5.707-7.976-6.239-7.976-8.72s5.567-2.163,8.012-.816Z" transform="translate(-11.226 -51.519)"/></g><path class="c" d="M24.973,64.034,23.05,54.162a2.447,2.447,0,0,0-2.711-1.976H11.332l-.106.372a22.143,22.143,0,0,1,8.482,4.259A17.117,17.117,0,0,1,24.973,64.034Z" transform="translate(-11.226 -51.794)"/></g></svg>